<svg width="151" height="65" viewBox="0 0 151 65" fill="none" xmlns="http://www.w3.org/2000/svg">
<path fill-rule="evenodd" clip-rule="evenodd" d="M1.67245 15.7663C2.03595 16.1641 1.51475 15.9263 2.01281 16.1347C2.07027 16.159 2.1235 16.1402 2.18507 16.128C3.12661 15.944 3.97533 15.4597 4.83769 15.0393C8.181 13.4103 11.3255 11.3806 14.6276 9.68971C14.8814 9.5601 15.1756 9.48081 15.3695 9.27198C15.5249 9.10472 15.4757 9.01972 15.5717 8.81347C15.8451 8.70126 15.9753 8.38881 15.8621 8.11724C15.7489 7.84566 15.4341 7.71612 15.1607 7.82833C14.9187 7.76471 14.8298 7.67045 14.5803 7.68877C13.1473 7.79379 11.9507 8.839 10.692 9.53227C8.15285 10.9303 5.68505 12.475 3.19162 13.9468C2.633 14.2765 1.85951 14.4 1.54666 14.9648C1.306 15.3975 1.55318 15.0374 1.56732 15.5311C1.50184 15.56 1.47305 15.6361 1.50243 15.7013C1.53095 15.7665 1.60704 15.796 1.67245 15.7663Z" fill="black"/>
<path fill-rule="evenodd" clip-rule="evenodd" d="M14.5197 9.46371C14.5633 9.522 14.6149 9.59366 14.6339 9.67028C14.6797 9.85744 14.6092 10.0445 14.6582 10.3177C14.7367 10.7571 14.9296 11.2831 15.1719 11.9081C16.1025 14.3048 17.8534 18.0029 19.7449 22.0025C22.707 28.2664 26.215 35.1747 28.0072 38.7908C28.2152 39.2104 28.3632 39.6059 28.5687 39.9032C28.7732 40.199 28.9907 40.3607 29.1597 40.5466C29.2597 40.7715 29.5255 40.8744 29.7522 40.7748C29.9789 40.6753 30.0825 40.4117 29.9825 40.1868C29.9577 39.9355 29.98 39.6643 29.8919 39.3135C29.8038 38.9619 29.6011 38.5887 29.4198 38.1555C27.8563 34.4332 24.833 27.2937 21.9157 21.0025C20.0522 16.9843 18.3614 13.243 17.0339 11.0346C16.0464 9.39176 15.2407 8.57746 15.1957 8.55626C14.969 8.38791 14.3938 8.34903 13.7054 8.53911C12.8903 8.76439 11.8565 9.22343 11.3157 9.54765C9.9383 10.3676 8.54116 11.1898 7.11193 11.9455C6.16713 12.4445 5.2077 12.9118 4.23436 13.3342C3.57002 13.6218 2.24723 14.0274 1.58582 14.6091C0.962548 15.1567 0.75939 15.8256 1.17043 16.6111C4.05388 22.0213 6.48752 27.2631 8.82252 31.818C11.7124 37.4563 14.3059 42.0965 16.1063 45.3503C16.28 45.6632 16.4168 45.9815 16.611 46.246C16.7625 46.4522 16.9341 46.5935 17.0979 46.7675C17.1306 46.8308 17.2081 46.8561 17.2716 46.8241C17.3351 46.7921 17.3612 46.7145 17.3285 46.6512C17.2842 46.4179 17.2732 46.1985 17.1987 45.9552C17.1033 45.6436 16.9332 45.3443 16.7906 45.0175C15.3019 41.6091 13.3991 36.6398 10.6779 30.9154C8.47054 26.2718 5.64418 21.1933 2.61255 15.8314C2.56439 15.748 2.70081 15.7383 2.7778 15.679C2.96458 15.5356 3.19585 15.4061 3.43763 15.2889C3.95464 15.038 4.50746 14.8345 4.85467 14.6665C5.84188 14.188 6.80973 13.6617 7.76507 13.1084C9.18231 12.2879 10.569 11.4098 11.9339 10.53C12.2118 10.3525 12.6415 10.1289 13.0941 9.93144C13.5407 9.73608 14.0082 9.56213 14.3705 9.48749C14.4156 9.47662 14.4706 9.46912 14.5197 9.46371Z" fill="black"/>
<path fill-rule="evenodd" clip-rule="evenodd" d="M35.5923 33.9809C35.4014 34.8084 35.0968 35.6907 35.0001 36.155L33.0776 46.0632L31.5415 54.5659C31.4751 54.9072 31.4082 55.4638 31.2583 55.9799C31.183 56.2405 31.1217 56.5123 30.9711 56.6628C30.9272 56.0884 29.2376 55.8753 28.887 55.7312L21.3894 52.733C19.4059 51.9351 17.3764 51.1473 15.3328 50.4231C13.9597 49.9375 12.581 49.4811 11.2043 49.0714C10.5791 48.8695 9.5117 48.5964 8.62881 48.1735L8.59992 48.1593L9.26634 47.7868C10.5815 46.9264 12.0799 46.0668 13.5365 45.2162C14.1627 44.8509 14.7505 44.4614 15.361 44.1294C15.5717 44.0146 15.8828 44.0063 15.9844 43.7955L16.0409 43.6844L16.0241 43.67C15.9421 43.5637 15.8711 43.3777 15.8673 43.2506C15.8655 43.2047 15.9802 43.1836 15.9448 43.086C15.9094 42.9885 15.807 43.0448 15.7791 43.0091C15.6952 42.9022 15.6532 42.7089 15.6128 42.5797L15.6035 42.5385L15.5431 42.5103C15.4818 42.4813 15.4127 42.5417 15.3463 42.5583C14.6271 42.7318 13.8975 42.9176 13.17 43.197C11.3618 43.8914 9.62352 44.937 8.04765 45.8387L6.82417 46.6501C6.81506 46.6557 6.40782 46.8892 6.25318 46.9882C5.46851 47.4922 5.75256 48.3638 5.78884 48.4284C6.08625 48.9587 6.61503 49.4277 7.3093 49.7697C8.3953 50.3036 9.87816 50.5934 10.7015 50.7981C12.3951 51.2632 14.0942 51.7994 15.7809 52.3768C17.4748 52.9569 19.1544 53.5776 20.8034 54.2056L28.3079 57.1252C28.6674 57.271 29.6983 57.9218 30.419 58.1245C30.8629 58.2499 31.2453 58.2214 31.5032 58.0997C31.9028 57.9129 32.2246 57.5529 32.4547 57.0848C32.8017 56.3785 32.935 55.3919 33.042 54.8601L34.659 46.3578L36.7035 36.5224C36.8268 35.9763 37.2456 34.8551 37.4281 33.9206C37.5503 33.2932 37.5522 32.7268 37.4306 32.3465C37.3273 32.0232 36.9725 31.5927 36.2321 31.684C35.6129 31.7603 34.0664 32.4477 33.9009 32.5294L28.2069 35.8807C27.7415 36.1482 27.5827 36.7398 27.8522 37.2016C28.1217 37.6633 28.7174 37.8215 29.1828 37.554L34.734 34.1643C34.7932 34.1327 35.1918 34.0791 35.5923 33.9809Z" fill="black"/>
<path fill-rule="evenodd" clip-rule="evenodd" d="M12.6063 11.0818C12.2336 10.5548 11.6989 10.244 11.0047 10.2373C10.2184 10.2294 9.49736 10.5691 8.91904 11.1699C8.30056 11.8124 7.82576 12.7167 7.55243 13.3319C7.38792 13.661 7.27856 14.0294 7.21145 14.4274L6.38518 16.5825L6.39232 16.5293L6.55061 15.5071C6.57564 15.3268 6.71252 14.9662 6.72597 14.7934C6.75019 14.48 6.64212 14.2516 6.54644 14.1044C6.31542 13.7466 5.91195 13.4151 5.17833 13.7607C4.96647 13.8608 4.75263 14.0358 4.55843 14.2734C4.17481 14.2527 3.5421 14.3333 3.38484 15.012C3.31978 15.2915 3.17614 15.9666 3.14562 16.1209C3.049 16.6083 2.92193 17.1507 2.86458 17.6852C2.8173 18.126 2.82353 18.5628 2.90139 18.9719C3.06325 19.8241 3.73355 19.8137 3.9714 19.8021C4.01381 19.8005 4.06115 19.7952 4.1107 19.7848C4.08783 19.9929 4.06996 20.1759 4.06568 20.3217L4.07095 20.4117L4.0638 20.487C4.0622 20.5669 4.09628 20.7146 4.15978 20.9169C4.27932 21.4263 4.52025 22.1903 4.9116 23.0684C5.08622 23.4602 5.29888 23.8721 5.53352 24.2987C6.57868 26.6718 7.92659 29.5436 8.6754 31.1102L8.70354 31.1705L8.76568 31.3441C8.88985 31.6789 8.99326 31.9143 9.04369 32.0156C9.33159 32.591 9.81505 32.623 9.90477 32.6268C9.99794 32.6303 10.1556 32.6256 10.3213 32.5792C10.3622 32.5925 10.3846 32.6014 10.3813 32.6033C10.4321 32.5756 10.4866 32.5394 10.5402 32.4917C10.6868 32.4122 10.8186 32.2879 10.8948 32.0955C11.1886 33.2926 11.4163 34.2433 11.5193 34.7861C11.6248 35.3385 12.0207 35.4166 12.1932 35.4461C12.3577 35.4738 12.5699 35.4673 12.7734 35.3268C12.9643 36.2951 13.1221 37.0728 13.2256 37.5769C13.371 38.2183 13.776 38.3681 14.0761 38.3878C14.2699 39.4159 14.416 40.266 14.4845 40.8558C14.5532 41.5598 15.0247 41.6494 15.3394 41.6219C15.27 41.979 15.2087 42.3511 15.1769 42.702C15.164 42.8477 15.1577 42.9895 15.1589 43.1275C14.9049 43.3443 14.6276 43.8759 14.3944 44.1248C13.9575 44.5906 13.5545 45.113 13.1387 45.6265C12.7934 45.6522 12.4467 45.7594 12.1096 45.9233C11.7741 46.0863 11.4461 46.312 11.1397 46.5361C11.104 46.4673 11.0659 46.4234 11.0466 46.3994C10.8581 46.1632 10.1126 45.6993 9.67302 46.5426C9.63674 46.6119 9.54241 46.8945 9.50532 47.0091C9.43175 47.235 9.31871 47.5338 9.27616 47.8124C9.24354 48.0179 9.24519 48.2175 9.28182 48.398C9.31582 48.5672 9.37465 48.6982 9.44851 48.7994C9.24521 49.0205 9.27057 49.3128 9.32503 49.4993C9.33815 49.5451 9.40119 49.9422 9.9357 50.0499L15.8667 51.2928L17.132 51.6429C17.7361 52.042 18.3958 52.3637 19.0793 52.6457C20.1414 53.0845 21.2626 53.4234 22.3013 53.8294L23.6418 54.3544C24.1898 54.6231 24.7346 54.8862 25.276 55.138C25.34 55.1677 25.3809 55.181 25.4006 55.1877C25.7032 55.2836 25.8956 55.2015 25.9665 55.1755C26.186 55.0953 26.3348 54.9771 26.4248 54.828L26.5282 54.8957L26.6439 54.9665L28.3723 55.8111C29.0868 56.0678 29.8437 56.2209 30.6545 56.254C31.0369 56.2699 31.3168 56.0849 31.5303 55.7833C31.7532 55.4679 31.7988 54.7715 31.8589 54.4505L32.6963 49.5831L32.7362 49.082L33.1559 46.9343C33.6814 44.3067 34.1298 41.657 34.6244 39.0228C34.9533 37.2707 35.2776 35.5265 35.7865 33.8108C35.81 33.7441 35.7747 33.6703 35.7069 33.6468C35.6391 33.6232 35.5654 33.6585 35.542 33.726C35.3992 34.0665 35.2609 34.4084 35.1279 34.7514C35.1234 34.114 34.5441 33.9776 34.3393 33.9457C34.2849 33.9375 34.2167 33.9321 34.1399 33.938C34.1695 33.5042 33.9508 33.4051 33.3229 34.1601C32.9982 34.5508 32.7062 35.0268 32.4407 35.5642L32.3612 35.6582C31.9737 36.1219 31.461 36.4842 31.0211 36.9002C31.0156 36.7288 30.9949 36.5973 30.966 36.5157C30.7904 36.022 30.4842 35.8475 30.2743 35.7723C29.9582 35.6593 29.6153 35.6495 29.272 35.878C29.1482 35.9607 28.9728 36.1056 28.8361 36.3569L28.7979 36.4354C28.7249 36.423 28.6378 36.419 28.5431 36.4295C28.4992 36.3671 28.4526 36.3157 28.4102 36.2729C28.2548 36.1163 27.8271 35.7415 27.2219 36.0304L27.1995 35.9548L25.2205 30.508L19.5989 19.0336C19.5446 18.8603 19.5394 18.4703 19.4888 18.3007C19.4124 18.0436 19.2789 17.8796 19.1701 17.7868C18.895 17.554 18.5102 17.3501 18.0916 17.628C18.0154 17.3626 17.848 17.1979 17.6769 17.0968C17.276 15.884 16.8051 14.6857 16.4105 13.4873L15.945 11.9466C15.9082 11.8081 15.8042 11.4766 15.7388 11.2721L15.6015 10.7681C15.3496 10.2762 15.0007 10.2003 14.9142 10.1707C14.792 10.1283 14.5231 10.1095 14.2461 10.176C14.1476 10.0808 14.0558 10.0402 14.0169 10.0193C13.7276 9.86071 12.643 9.73599 12.5976 10.8918L12.6063 11.0818ZM30.2062 53.9642L30.175 54.0981L30.2268 54.1393L30.2448 54.1593L30.2837 53.9114L30.2287 53.8737L30.2062 53.9642ZM25.6095 52.3739C25.5733 52.4885 25.5374 52.5849 25.5033 52.6492L25.6135 52.7049C25.9914 52.8863 26.384 53.0213 26.7888 53.1357L26.8052 52.9455L26.8304 52.7117C26.4746 53.0259 26.0148 52.8072 25.7829 52.6047C25.7419 52.5693 25.6705 52.4999 25.6095 52.3739ZM28.78 52.8071L28.7652 52.8074L28.7587 52.8687L28.8168 52.9793L28.8171 52.9719L28.8221 52.8014L28.78 52.8071ZM23.7592 51.6357L23.7699 51.6398L23.7688 51.6136L23.7592 51.6357ZM21.6418 50.6566L21.2924 51.3195L21.6033 51.4658C21.6104 51.2228 21.625 50.9759 21.6386 50.7267L21.6418 50.6566ZM19.0457 49.6501L18.7618 50.2291L19.1587 50.3868L19.4394 50.5026L19.4483 50.4378C19.5793 49.5557 19.9121 48.5899 20.1078 47.8919L20.3088 47.1623L19.0457 49.6501ZM17.0111 49.2095C16.9567 49.235 16.9125 49.2475 16.8819 49.2556L16.7818 49.2756L16.6292 49.4451L16.5931 49.4832L16.7554 49.5275L16.9512 49.5889C16.9683 49.4626 16.9888 49.3361 17.0111 49.2095ZM15.9223 47.5137C15.597 47.7959 15.2812 48.0659 14.9886 48.3225C14.8424 48.4513 14.587 48.7166 14.3031 48.9743L14.3614 48.9863C14.6702 48.9157 14.9561 48.7746 15.1933 48.5205C15.4216 48.2753 15.6363 48.0213 15.8389 47.7576L15.8606 47.691L15.9223 47.5137ZM31.706 41.1354L31.4007 42.5001L31.3701 42.6874L31.2383 43.5251C31.3143 43.1963 31.3973 42.8694 31.4866 42.5437C31.598 42.1349 31.7399 41.7385 31.8818 41.3422L31.9899 40.8021L32.4119 38.8843L31.706 41.1354ZM15.5273 36.3417L15.4827 36.5046L15.5753 37.0473L15.9184 35.8564C15.9977 35.5807 16.041 35.2339 16.0546 34.8285L15.9683 34.6017L15.5273 36.3417ZM18.8496 21.7992C18.8653 21.9895 18.8858 22.1852 18.9101 22.3863C18.9888 23.0509 19.176 23.7491 19.3233 24.4931C19.8899 26.1501 20.4868 27.8837 20.8998 29.2739C21.3771 30.8769 21.548 32.1131 21.4384 32.4782L21.1515 33.5768L21.2578 34.1958C21.3476 34.0105 21.441 33.8275 21.5363 33.6468C22.0154 32.7421 22.5561 31.9034 23.1785 31.1546L18.8496 21.7992ZM14.8194 31.5872L14.478 30.6814L14.7328 32.2037L14.7665 32.0902C14.7995 31.9668 14.8167 31.7978 14.8194 31.5872ZM9.14141 24.7632C9.08002 24.9003 9.01221 25.0328 8.93526 25.1596L9.27069 26.1447C9.40453 26.5479 9.53916 26.9501 9.673 27.3533L9.93022 28.148C9.66481 27.0473 9.39477 25.8985 9.14141 24.7632ZM10.8713 12.3705C10.8494 12.345 10.8179 12.3417 10.7737 12.3656C10.7645 12.3704 10.7639 12.3738 10.77 12.3741C10.593 12.3976 10.4357 12.5066 10.2901 12.6435C10.2256 12.8079 10.1659 12.9662 10.142 13.0831L9.38928 16.2279C9.17994 17.0962 9.50989 19.1371 10.0018 21.5519C10.3618 23.3217 10.8251 25.2792 11.2859 27.1391C11.012 25.4613 10.7611 23.7661 10.5693 22.1946C10.3767 20.6133 10.2516 19.1517 10.2179 17.9387C9.93866 16.3147 9.90907 15.0316 10.1596 14.4247L10.4342 13.8144C10.4889 13.5472 10.5599 13.2993 10.6491 13.073C10.7303 12.8678 10.8216 12.6915 10.9202 12.541C10.9141 12.4633 10.9007 12.4027 10.8732 12.372L10.8022 12.3749C10.7918 12.3749 10.7813 12.3741 10.77 12.3741C10.8026 12.3692 10.8364 12.3682 10.8713 12.3705L10.8732 12.372L10.8922 12.3713L10.8713 12.3705ZM7.38892 18.7582L7.09038 19.6071C7.15497 19.6227 7.01707 19.8141 7.00722 19.8436L7.09038 19.6071C7.08322 19.6044 7.07373 19.6051 7.06177 19.6077C6.71977 19.6865 7.38181 20.6294 7.68283 21.5071C7.63701 20.6287 7.51114 19.6924 7.38892 18.7582Z" fill="black"/>
<path fill-rule="evenodd" clip-rule="evenodd" d="M18.8922 22.7093C18.8635 22.7343 18.8931 22.8311 18.9317 22.9337C19.1463 24.1424 19.4876 25.3195 19.9354 26.4649L20.1877 27.0895C20.7237 28.6664 21.216 30.285 21.8569 31.8348C22.1492 32.5418 22.3138 33.3423 22.8387 33.8923C22.9283 33.9864 22.9971 33.9857 23.1102 34.0507C23.1382 34.1158 23.2151 34.1454 23.2809 34.1176C23.2994 34.1098 23.3148 34.0987 23.3261 34.0842C23.4004 34.2522 23.4719 34.4213 23.538 34.5945C23.5851 34.7828 23.7777 34.8972 23.9672 34.8499C24.1567 34.8026 24.2719 34.6119 24.2248 34.4245C24.0925 33.5606 23.9204 32.7133 23.6638 31.8753C23.1651 30.2482 22.4624 28.6785 21.8293 27.0945C21.3244 25.8307 20.8312 24.5697 20.5149 23.2588L20.4422 22.8896C20.4162 22.7524 20.3461 22.4168 20.3224 22.3222C20.2641 22.0892 20.1375 21.9862 20.1199 21.9684C20.0659 21.9134 18.7315 21.6156 18.8836 22.6481L18.8922 22.7093Z" fill="black"/>
<path fill-rule="evenodd" clip-rule="evenodd" d="M123.11 10.3483C122.989 10.8717 122.887 10.3113 123 10.8361C123.013 10.8968 123.059 10.9294 123.104 10.9726C123.794 11.6344 124.679 12.049 125.52 12.5112C128.777 14.3037 132.252 15.7053 135.537 17.4289C135.789 17.5616 136.023 17.756 136.306 17.7945C136.533 17.8255 136.575 17.7369 136.801 17.6972C137.05 17.8558 137.382 17.7833 137.542 17.5359C137.702 17.2885 137.629 16.958 137.38 16.7994C137.295 16.5659 137.322 16.4396 137.164 16.2469C136.258 15.1395 134.71 14.7621 133.418 14.1329C130.811 12.8635 128.124 11.736 125.482 10.5459C124.89 10.2793 124.346 9.71977 123.701 9.78771C123.205 9.83895 123.644 9.83454 123.244 10.1282C123.183 10.0914 123.104 10.1114 123.067 10.1726C123.029 10.2331 123.048 10.3119 123.11 10.3483Z" fill="black"/>
<path fill-rule="evenodd" clip-rule="evenodd" d="M135.662 17.2119C135.639 17.2808 135.609 17.3637 135.557 17.423C135.428 17.5673 135.233 17.6168 135.035 17.8129C134.717 18.1279 134.392 18.5857 134.014 19.1402C132.565 21.268 130.508 24.8077 128.283 28.6344C124.798 34.6272 121.092 41.4329 119.127 44.9594C118.899 45.3687 118.657 45.7153 118.529 46.0526C118.401 46.3882 118.392 46.6578 118.334 46.9017C118.206 47.1117 118.273 47.3871 118.484 47.5148C118.696 47.6425 118.973 47.5763 119.102 47.3663C119.296 47.2026 119.533 47.0657 119.772 46.7935C120.013 46.5208 120.205 46.1424 120.46 45.7471C122.643 42.3461 126.817 35.8031 130.35 29.8312C132.607 26.0168 134.733 22.5013 135.8 20.1577C136.594 18.4145 136.807 17.2928 136.798 17.244C136.808 16.9631 136.512 16.4724 135.961 16.0202C135.309 15.485 134.339 14.9051 133.762 14.6499C132.297 13.9964 130.818 13.3282 129.377 12.5958C128.424 12.1114 127.49 11.5969 126.584 11.0453C125.967 10.6686 124.876 9.82279 124.017 9.61643C123.208 9.42162 122.539 9.63845 122.125 10.4221C119.3 15.863 116.358 20.8412 113.927 25.3464C110.918 30.9228 108.564 35.6874 106.904 39.0136C106.744 39.3339 106.559 39.6272 106.452 39.9366C106.368 40.1778 106.349 40.3984 106.299 40.6313C106.265 40.6941 106.289 40.7716 106.351 40.8051C106.414 40.8385 106.493 40.8154 106.527 40.7526C106.694 40.5833 106.869 40.4489 107.028 40.2491C107.231 39.9933 107.381 39.6838 107.57 39.3808C109.536 36.2202 112.557 31.8302 115.734 26.342C118.311 21.89 120.894 16.6853 123.593 11.1513C123.635 11.0644 123.721 11.17 123.814 11.1989C124.039 11.2691 124.278 11.3835 124.513 11.5134C125.016 11.7912 125.5 12.1252 125.838 12.3121C126.797 12.8428 127.786 13.3305 128.789 13.7925C130.277 14.4781 131.796 15.1059 133.303 15.7149C133.608 15.8399 134.039 16.0621 134.461 16.3179C134.877 16.5701 135.288 16.8515 135.557 17.104C135.592 17.1346 135.629 17.1751 135.662 17.2119Z" fill="black"/>
<path fill-rule="evenodd" clip-rule="evenodd" d="M127.438 48.3895C126.645 48.707 125.742 48.963 125.302 49.1497L116.013 53.2461L108.107 56.854C107.787 56.995 107.288 57.2586 106.776 57.4314C106.518 57.519 106.258 57.6244 106.047 57.5877C106.497 57.2237 105.708 55.7256 105.626 55.3576L103.82 47.5364C103.346 45.4647 102.837 43.3612 102.268 41.2825C101.885 39.8865 101.474 38.5026 101.026 37.147C100.836 36.5223 100.451 35.4967 100.296 34.5358L100.292 34.5041L100.98 34.8341C102.443 35.4138 104.01 36.1431 105.546 36.8435C106.206 37.1449 106.863 37.4011 107.487 37.7087C107.702 37.8147 107.887 38.0634 108.119 38.0257L108.243 38.0082L108.246 37.9864C108.287 37.8588 108.4 37.6947 108.503 37.6189C108.54 37.5912 108.623 37.6725 108.683 37.588C108.743 37.5034 108.638 37.4522 108.652 37.409C108.692 37.2796 108.828 37.135 108.912 37.0282L108.941 36.9971L108.929 36.9318C108.918 36.8653 108.829 36.8435 108.777 36.7988C108.223 36.3121 107.652 35.824 107.005 35.391C105.398 34.3149 103.54 33.4964 101.894 32.728L100.524 32.1951C100.514 32.1909 100.089 31.9925 99.9186 31.9231C99.0535 31.572 98.4953 32.3015 98.4627 32.368C98.1943 32.9133 98.1088 33.6121 98.2228 34.3731C98.4021 35.5629 99.01 36.9365 99.3113 37.7242C99.8948 39.3696 100.423 41.0602 100.909 42.7642C101.398 44.4756 101.845 46.1985 102.268 47.9007L104.143 55.6825C104.228 56.0587 104.279 57.2703 104.524 57.9734C104.674 58.4066 104.916 58.7018 105.164 58.8423C105.547 59.0611 106.028 59.1175 106.546 59.0375C107.329 58.9164 108.22 58.4612 108.721 58.2445L116.674 54.7026L125.972 50.7472C126.494 50.5355 127.66 50.236 128.537 49.8506C129.126 49.5915 129.595 49.2694 129.84 48.953C130.048 48.684 130.201 48.149 129.702 47.598C129.286 47.1373 127.834 46.2703 127.671 46.1821L121.647 43.459C121.16 43.2328 120.58 43.4415 120.352 43.925C120.125 44.4084 120.334 44.9841 120.821 45.2103L126.796 47.7952C126.856 47.8253 127.128 48.1194 127.438 48.3895Z" fill="black"/>
<path fill-rule="evenodd" clip-rule="evenodd" d="M133.231 16.5779C133.454 15.9732 133.405 15.36 133.014 14.7907C132.571 14.1456 131.878 13.7524 131.051 13.6246C130.166 13.488 129.147 13.618 128.483 13.7469C128.117 13.801 127.75 13.9224 127.382 14.0952L125.129 14.6538L125.177 14.6292L126.112 14.1739C126.275 14.0913 126.652 13.9967 126.802 13.9089C127.075 13.7496 127.202 13.531 127.269 13.3689C127.433 12.9762 127.476 12.4581 126.771 12.058C126.568 11.9426 126.301 11.8684 125.993 11.8461C125.791 11.5217 125.363 11.0524 124.712 11.3121C124.444 11.4188 123.804 11.6876 123.659 11.751C123.201 11.9508 122.68 12.1573 122.205 12.416C121.814 12.6295 121.456 12.8842 121.162 13.1814C120.55 13.8003 120.942 14.3404 121.088 14.5275C121.113 14.5611 121.145 14.5966 121.182 14.6311C120.996 14.7313 120.835 14.8214 120.712 14.9012L120.641 14.9569L120.574 14.9942C120.507 15.0385 120.405 15.1507 120.274 15.318C119.921 15.7066 119.427 16.3394 118.925 17.1601C118.701 17.5262 118.482 17.9349 118.263 18.3698C116.899 20.5775 115.295 23.3167 114.428 24.822L114.394 24.8794L114.287 25.0292C114.081 25.3217 113.945 25.5404 113.89 25.6394C113.579 26.2028 113.829 26.6149 113.877 26.6902C113.928 26.7681 114.022 26.8938 114.155 27.0023C114.167 27.0432 114.172 27.0666 114.169 27.065C114.221 27.0905 114.282 27.1142 114.352 27.1306C114.501 27.2046 114.68 27.2409 114.882 27.193C114.06 28.1165 113.405 28.8453 113.015 29.2394C112.619 29.6411 112.78 30.0082 112.854 30.1656C112.926 30.3154 113.052 30.4846 113.285 30.57C112.593 31.2789 112.041 31.8519 111.683 32.2243C111.236 32.7094 111.344 33.1248 111.499 33.3806C110.76 34.1261 110.14 34.7309 109.692 35.1238C109.149 35.5821 109.345 36.0173 109.547 36.258C109.212 36.4055 108.87 36.5682 108.562 36.7429C108.434 36.8156 108.313 36.8915 108.2 36.9714C107.875 36.8883 107.277 36.9663 106.938 36.9185C106.304 36.8289 105.641 36.7992 104.979 36.7539C104.761 36.4873 104.474 36.2661 104.146 36.0852C103.819 35.905 103.445 35.7669 103.085 35.6453C103.121 35.5769 103.136 35.5207 103.145 35.4914C103.232 35.2028 103.19 34.3304 102.241 34.4542C102.163 34.4643 101.876 34.549 101.76 34.5843C101.531 34.6534 101.22 34.7321 100.965 34.8567C100.776 34.9475 100.612 35.063 100.484 35.1959C100.364 35.3203 100.289 35.4432 100.248 35.5611C99.9486 35.5219 99.7215 35.7096 99.5984 35.8605C99.568 35.8974 99.2758 36.1757 99.4922 36.6727L101.854 42.2145L102.288 43.4452C102.303 44.1654 102.415 44.8866 102.572 45.6046C102.816 46.7206 103.177 47.8276 103.435 48.9058L103.767 50.2979C103.858 50.8977 103.952 51.492 104.053 52.0769C104.065 52.146 104.078 52.1869 104.083 52.2068C104.177 52.5081 104.355 52.6179 104.417 52.6608C104.609 52.7938 104.791 52.8475 104.966 52.8356L104.969 52.9585L104.977 53.0933L105.266 54.9839C105.463 55.7126 105.768 56.4167 106.204 57.0961C106.41 57.4167 106.723 57.539 107.094 57.5406C107.482 57.5418 108.084 57.181 108.384 57.0465L112.886 54.947L113.323 54.6931L115.338 53.8076C117.811 52.734 120.257 51.5849 122.717 50.4824C124.354 49.7491 125.981 49.0164 127.69 48.4504C127.758 48.4314 127.799 48.3606 127.78 48.2918C127.761 48.2231 127.689 48.1833 127.62 48.2028C127.257 48.2811 126.895 48.3638 126.536 48.4515C127.06 48.0835 126.842 47.5337 126.751 47.3486C126.727 47.2996 126.692 47.241 126.644 47.1818C127.019 46.958 126.976 46.7232 125.993 46.6432C125.485 46.6019 124.924 46.6362 124.328 46.727L124.205 46.716C123.6 46.6652 123.008 46.4547 122.413 46.334C122.551 46.2316 122.648 46.1396 122.699 46.0694C123.007 45.6442 122.976 45.295 122.918 45.0811C122.831 44.759 122.643 44.4741 122.258 44.325C122.119 44.2714 121.899 44.2114 121.613 44.2436L121.526 44.2574C121.495 44.1908 121.448 44.1176 121.385 44.0465C121.412 43.975 121.428 43.9077 121.439 43.8487C121.48 43.6326 121.545 43.07 120.96 42.7421L121.01 42.6807L124.382 37.9557L130.654 26.8186C130.766 26.6753 131.086 26.4482 131.197 26.3101C131.366 26.1009 131.425 25.8985 131.44 25.7568C131.475 25.3997 131.423 24.9696 130.955 24.7875C131.13 24.5737 131.171 24.3433 131.157 24.1461C131.93 23.1265 132.651 22.058 133.417 21.0516L134.424 19.7919C134.518 19.6828 134.732 19.4087 134.864 19.2385L135.202 18.8386C135.465 18.3523 135.328 18.0247 135.303 17.9373C135.268 17.8135 135.13 17.5837 134.917 17.3961C134.939 17.2614 134.92 17.1635 134.915 17.1198C134.881 16.7935 134.364 15.8388 133.383 16.4622L133.231 16.5779ZM107.841 55.4223L107.713 55.4733L107.708 55.5391L107.702 55.5653L107.929 55.4552L107.929 55.3889L107.841 55.4223ZM106.529 50.7689C106.413 50.8049 106.313 50.8308 106.24 50.8397L106.257 50.9613C106.323 51.3728 106.436 51.7698 106.573 52.1649L106.74 52.0696L106.947 51.9566C106.484 51.8462 106.402 51.3467 106.437 51.042C106.443 50.9884 106.459 50.8906 106.529 50.7689ZM107.983 53.5992L107.974 53.5874L107.919 53.6171L107.861 53.7276L107.868 53.7236L108.011 53.6302L107.983 53.5992ZM106.082 48.8397L106.084 48.8508L106.105 48.8349L106.082 48.8397ZM105.681 46.5553L104.933 46.6495L104.99 46.9864C105.195 46.8533 105.407 46.7242 105.621 46.5928L105.681 46.5553ZM105.029 43.8653L104.388 43.9649L104.485 44.3784L104.549 44.6732L104.608 44.6434C105.412 44.246 106.401 43.9652 107.089 43.7257L107.808 43.4725L105.029 43.8653ZM104.231 41.9561C104.178 41.9263 104.143 41.8975 104.119 41.8771L104.045 41.8071L103.818 41.7796L103.765 41.772L103.822 41.9295L103.883 42.1241C103.997 42.0659 104.113 42.0103 104.231 41.9561ZM105.01 40.1C104.591 39.9963 104.187 39.8933 103.808 39.8016C103.618 39.7561 103.253 39.6997 102.877 39.6157L102.901 39.67C103.136 39.8812 103.416 40.0335 103.761 40.0815C104.094 40.1274 104.427 40.1571 104.761 40.1714L104.828 40.151L105.01 40.1ZM119.303 49.3124L118 49.8436L117.828 49.9258L117.06 50.2971C117.376 50.1711 117.693 50.0519 118.013 49.9385C118.415 49.7956 118.824 49.6847 119.233 49.5738L119.741 49.3532L121.567 48.6009L119.303 49.3124ZM114.02 33.3935L113.859 33.4502L113.464 33.8358L114.644 33.4347C114.917 33.3417 115.229 33.1788 115.572 32.9581L115.71 32.7582L114.02 33.3935ZM127.94 27.7888C127.791 27.9104 127.641 28.0389 127.489 28.1736C126.984 28.6175 126.514 29.1691 125.983 29.7143C124.938 31.1228 123.846 32.5998 122.932 33.7307C121.88 35.0356 120.956 35.8813 120.591 36.0007L119.519 36.3948L119.068 36.8352C119.273 36.8025 119.478 36.7739 119.681 36.7483C120.703 36.6216 121.705 36.5827 122.68 36.6617L127.94 27.7888ZM117.545 30.0996L118.099 29.3038L116.986 30.3814L117.099 30.3439C117.22 30.3003 117.37 30.2177 117.545 30.0996ZM119.941 21.5743C119.793 21.6026 119.645 21.6232 119.496 21.6329L118.873 22.4692C118.616 22.8086 118.361 23.1481 118.104 23.4876L117.594 24.1513C118.352 23.306 119.148 22.4295 119.941 21.5743ZM131.174 15.9011C131.183 15.8687 131.167 15.8411 131.122 15.8188C131.113 15.8141 131.11 15.8155 131.113 15.8206C130.993 15.6898 130.813 15.624 130.616 15.5836C130.444 15.6251 130.279 15.6669 130.168 15.7142L127.139 16.8983C126.301 17.224 124.803 18.6592 123.088 20.4399C121.83 21.7447 120.477 23.2407 119.203 24.6791C120.433 23.4971 121.691 22.3239 122.881 21.2695C124.078 20.2089 125.214 19.2717 126.198 18.551C127.381 17.3955 128.424 16.638 129.069 16.4953L129.731 16.3702C129.983 16.262 130.228 16.1782 130.466 16.1215C130.682 16.0705 130.88 16.0441 131.061 16.0383C131.122 15.989 131.164 15.9435 131.174 15.9034L131.131 15.8473C131.125 15.8388 131.12 15.8298 131.113 15.8206C131.136 15.8444 131.156 15.8713 131.174 15.9011L131.174 15.9034L131.185 15.9186L131.174 15.9011ZM123.904 16.7149L123.031 16.9568C123.055 17.0183 122.818 17.0154 122.788 17.0242L123.031 16.9568C123.029 16.9494 123.023 16.9421 123.014 16.9338C122.754 16.7003 122.353 17.7784 121.799 18.5252C122.499 17.9859 123.201 17.3483 123.904 16.7149Z" fill="black"/>
<path fill-rule="evenodd" clip-rule="evenodd" d="M127.212 28.3436C127.175 28.3345 127.112 28.414 127.049 28.504C126.172 29.3696 125.394 30.3203 124.704 31.3397L124.331 31.9022C123.334 33.24 122.278 34.5661 121.363 35.9739C120.945 36.6161 120.378 37.2077 120.223 37.9496C120.196 38.0763 120.236 38.1319 120.247 38.2612C120.209 38.3213 120.229 38.4008 120.289 38.4385C120.306 38.4492 120.324 38.4553 120.343 38.4562C120.246 38.6128 120.147 38.7677 120.042 38.9205C119.913 39.0665 119.929 39.2887 120.076 39.4161C120.224 39.5434 120.447 39.5283 120.575 39.3828C121.214 38.7813 121.816 38.1569 122.362 37.469C123.422 36.1328 124.318 34.6633 125.265 33.2423C126.022 32.1088 126.782 30.9864 127.685 29.9795L127.949 29.7093C128.047 29.6097 128.285 29.3608 128.349 29.2875C128.508 29.1068 128.521 28.9448 128.526 28.9203C128.54 28.8449 128.024 27.5877 127.257 28.3017L127.212 28.3436Z" fill="black"/>
<path fill-rule="evenodd" clip-rule="evenodd" d="M61.4328 7.70943C61.5674 8.22963 61.2181 7.778 61.5608 8.19287C61.6002 8.24101 61.6562 8.24895 61.7163 8.26672C62.6357 8.53978 63.6139 8.50424 64.5743 8.53153C68.2971 8.63803 72.0323 8.29812 75.7476 8.33087C76.033 8.33372 76.3305 8.39977 76.6001 8.30476C76.8161 8.22873 76.8126 8.13079 76.9943 7.99274C77.2889 8.02004 77.5508 7.80392 77.5783 7.51129C77.6058 7.21866 77.3881 6.95834 77.0935 6.93103C76.9093 6.76274 76.8749 6.63818 76.6456 6.5389C75.3286 5.96847 73.7791 6.33918 72.34 6.3698C69.4371 6.4312 66.5285 6.65528 63.6313 6.80307C62.9823 6.83615 62.2401 6.58731 61.698 6.94213C61.2819 7.2135 61.6696 7.00942 61.4502 7.45269C61.3788 7.44791 61.3175 7.50197 61.3129 7.57319C61.3075 7.64408 61.361 7.7054 61.4328 7.70943Z" fill="black"/>
<path fill-rule="evenodd" clip-rule="evenodd" d="M75.7583 8.081C75.7694 8.15275 75.7814 8.24002 75.7622 8.31659C75.7149 8.50337 75.5646 8.6362 75.4797 8.90059C75.3427 9.32566 75.2663 9.88026 75.187 10.5453C74.8845 13.0962 74.6962 17.1781 74.4907 21.5919C74.1687 28.5042 74.0269 36.2394 73.9137 40.2678C73.9007 40.7353 73.8458 41.1537 73.8879 41.5118C73.9298 41.8682 74.0463 42.1119 74.1085 42.3546C74.0913 42.5998 74.2781 42.8139 74.5254 42.8307C74.7727 42.8476 74.9882 42.6624 75.0054 42.4171C75.1015 42.1834 75.2486 41.9537 75.3355 41.6027C75.4226 41.2509 75.4186 40.8269 75.4617 40.3597C75.8271 36.3431 76.5063 28.6279 76.8808 21.7121C77.1198 17.2949 77.3815 13.2026 77.2445 10.6344C77.1427 8.72409 76.8124 7.63077 76.7825 7.59116C76.6611 7.3373 76.1705 7.03667 75.4722 6.88614C74.6454 6.70813 73.5152 6.63563 72.8845 6.6721C71.2809 6.75983 69.6587 6.84047 68.0394 6.84736C66.9692 6.85148 65.901 6.82075 64.8415 6.7438C64.1187 6.69076 62.758 6.43724 61.8997 6.64565C61.0911 6.8415 60.5972 7.33926 60.5918 8.22432C60.6012 14.3451 60.2918 20.1087 60.2178 25.2189C60.1259 31.5444 60.2404 36.8498 60.3047 40.5616C60.3114 40.9188 60.2829 41.2637 60.3304 41.5876C60.3676 41.8401 60.453 42.0446 60.5161 42.2743C60.5154 42.3454 60.572 42.4036 60.6432 42.4047C60.7144 42.4058 60.774 42.3492 60.7747 42.2782C60.8452 42.0513 60.9386 41.8521 60.9869 41.6024C61.0488 41.2826 61.039 40.9391 61.0663 40.5839C61.3505 36.8797 62.0015 31.6029 62.2831 25.2793C62.5117 20.1497 62.397 14.3488 62.2338 8.20216C62.2304 8.10607 62.3556 8.16069 62.4516 8.14384C62.6842 8.10348 62.9496 8.09595 63.2185 8.10422C63.7937 8.12159 64.3784 8.19746 64.7644 8.20957C65.8625 8.24328 66.9659 8.22572 68.0709 8.1785C69.7101 8.10871 71.3493 7.97378 72.9699 7.82732C73.2991 7.79896 73.7843 7.80003 74.2774 7.83485C74.7643 7.86879 75.2595 7.93128 75.6151 8.03296C75.6601 8.04426 75.7123 8.06307 75.7583 8.081Z" fill="black"/>
<path fill-rule="evenodd" clip-rule="evenodd" d="M82.883 39.5241C82.3255 40.1678 81.6416 40.8072 81.338 41.1733L74.9831 49.0484L69.6301 55.859C69.4112 56.1301 69.0905 56.5915 68.7154 56.9787C68.5265 57.1744 68.3446 57.3865 68.1406 57.4498C68.3717 56.9214 66.9771 55.9508 66.7345 55.6611L61.5104 49.5381C60.1306 47.9141 58.7053 46.2778 57.2376 44.691C56.251 43.6259 55.2458 42.584 54.2204 41.5843C53.7621 41.1163 52.9462 40.3806 52.3638 39.5977L52.3449 39.5718L53.1094 39.5508C54.677 39.3985 56.4063 39.3317 58.0944 39.2534C58.8199 39.2201 59.5229 39.1477 60.2189 39.1366C60.4592 39.1326 60.7383 39.2693 60.9272 39.1298L61.0294 39.0576L61.0213 39.0372C60.9986 38.9052 61.0233 38.7077 61.0796 38.5935C61.0995 38.5521 61.2109 38.5865 61.2255 38.4838C61.24 38.3811 61.1229 38.3836 61.115 38.3391C61.091 38.2056 61.1447 38.0153 61.1696 37.8823L61.1807 37.8415L61.1406 37.7886C61.1 37.7346 61.0105 37.756 60.9439 37.7399C60.2262 37.5605 59.4935 37.3872 58.7187 37.2976C56.793 37.0748 54.764 37.1951 52.9464 37.2633L51.483 37.4148C51.4723 37.4155 51.0024 37.4335 50.8191 37.4495C49.8882 37.5321 49.73 38.4347 49.7318 38.5086C49.7458 39.1154 49.9932 39.7751 50.4467 40.399C51.1566 41.374 52.3323 42.3168 52.9645 42.879C54.2442 44.0744 55.4954 45.3353 56.7163 46.6268C57.9422 47.9241 59.1365 49.2507 60.3003 50.5695L65.5675 56.6261C65.817 56.9216 66.4233 57.9744 66.9656 58.4874C67.2994 58.8038 67.651 58.9556 67.9364 58.9673C68.3776 58.987 68.8314 58.8175 69.2548 58.51C69.8935 58.0457 70.4749 57.2346 70.8194 56.8138L76.2436 50.0409L82.6722 42.2867C83.0379 41.8607 83.935 41.0628 84.5354 40.3206C84.9382 39.8221 85.206 39.3219 85.277 38.9292C85.3375 38.5954 85.2259 38.0503 84.528 37.7883C83.9445 37.5692 82.2535 37.4614 82.0686 37.4571L75.4574 37.786C74.9201 37.8072 74.5017 38.257 74.5232 38.7903C74.5447 39.3235 74.9974 39.7392 75.5347 39.718L82.0377 39.289C82.1049 39.2884 82.4827 39.4255 82.883 39.5241Z" fill="black"/>
<path fill-rule="evenodd" clip-rule="evenodd" d="M73.3056 8.6266C73.2235 7.9879 72.8964 7.46551 72.2855 7.1382C71.5936 6.76724 70.7962 6.73397 70.0024 6.99773C69.1534 7.27981 68.3086 7.86002 67.7778 8.27771C67.4777 8.49264 67.208 8.7679 66.9616 9.08892L65.2184 10.6129L65.2497 10.5692L65.8699 9.73815C65.9767 9.59027 66.2672 9.33461 66.3603 9.18797C66.5289 8.92198 66.5406 8.6699 66.5251 8.49542C66.4888 8.07189 66.2876 7.59188 65.4763 7.55801C65.2418 7.54848 64.9704 7.60433 64.687 7.72465C64.3574 7.52876 63.7598 7.30719 63.3019 7.83471C63.1131 8.05185 62.6689 8.58256 62.5694 8.70501C62.255 9.09145 61.8878 9.51238 61.586 9.95868C61.3371 10.3268 61.1374 10.716 61.0142 11.114C60.757 11.9428 61.3549 12.2439 61.5707 12.3437C61.609 12.3619 61.6534 12.3791 61.7021 12.3929C61.5841 12.5664 61.4823 12.72 61.4101 12.847L61.3725 12.929L61.3307 12.9924C61.2918 13.0623 61.2525 13.2088 61.2137 13.4171C61.0802 13.9231 60.9345 14.7104 60.8681 15.6684C60.8386 16.0958 60.8332 16.5586 60.8404 17.0446C60.6502 19.6278 60.4937 22.7922 60.4202 24.5246L60.4168 24.591L60.3902 24.7733C60.3428 25.127 60.3237 25.3831 60.3207 25.496C60.3051 26.1383 60.7178 26.3904 60.7954 26.4353C60.8761 26.4815 61.0178 26.5503 61.1861 26.586C61.2161 26.6167 61.2318 26.635 61.2279 26.6352C61.2859 26.6341 61.3511 26.6273 61.4209 26.6099C61.5879 26.6075 61.763 26.5585 61.9207 26.4236C61.6183 27.6186 61.3731 28.565 61.2093 29.0928C61.0432 29.6304 61.3567 29.8827 61.4954 29.9886C61.6279 30.0893 61.8187 30.1818 62.0647 30.1517C61.7787 31.0966 61.553 31.8577 61.4077 32.3515C61.2351 32.9863 61.523 33.3062 61.7793 33.4626C61.4678 34.4617 61.1977 35.2814 60.9812 35.8348C60.7113 36.4894 61.0863 36.7869 61.3776 36.9083C61.1485 37.1921 60.9194 37.4929 60.7266 37.7886C60.6467 37.9114 60.5744 38.034 60.5107 38.1566C60.1842 38.2308 59.6892 38.5728 59.366 38.6849C58.7606 38.8948 58.1588 39.1704 57.5497 39.4322C57.2322 39.2951 56.8752 39.2293 56.4999 39.2183C56.1266 39.2072 55.7305 39.2551 55.3542 39.3114C55.3549 39.2341 55.3417 39.1776 55.336 39.1474C55.2802 38.8512 54.8386 38.0958 54.0536 38.6383C53.9889 38.6828 53.7728 38.8891 53.6861 38.9733C53.5149 39.1391 53.2746 39.3511 53.106 39.5779C52.9807 39.7446 52.8884 39.9219 52.836 40.0985C52.7866 40.2639 52.7771 40.4071 52.7949 40.5308C52.5112 40.6323 52.3963 40.9026 52.3569 41.0927C52.347 41.1394 52.2162 41.5198 52.6385 41.8625L57.3013 45.7075L58.2562 46.6029C58.6031 47.2356 59.0356 47.8255 59.5078 48.3914C60.2412 49.2712 61.0739 50.09 61.802 50.93L62.7413 52.015C63.0998 52.5063 63.4582 52.9912 63.8188 53.4647C63.8615 53.5205 63.8915 53.5512 63.9057 53.5662C64.1283 53.7912 64.3372 53.8076 64.4121 53.8174C64.6439 53.8481 64.8311 53.8124 64.9807 53.7222L65.0404 53.8299L65.1095 53.9461L66.2417 55.4933C66.7532 56.0512 67.3508 56.537 68.0525 56.9416C68.3834 57.1327 68.7179 57.0985 69.0484 56.9306C69.3938 56.7547 69.7612 56.1598 69.9652 55.9037L72.9923 51.9855L73.263 51.5607L74.6431 49.855C76.3423 47.7739 77.9835 45.6375 79.6585 43.5361C80.7725 42.1385 81.8787 40.7456 83.1348 39.4634C83.1869 39.4152 83.1903 39.3337 83.1414 39.2814C83.0925 39.2292 83.0108 39.2263 82.9583 39.2752C82.6721 39.5104 82.3891 39.7487 82.1103 39.9906C82.4057 39.4247 81.9573 39.0359 81.7912 38.9128C81.7469 38.8804 81.6891 38.844 81.6184 38.8137C81.8484 38.4437 81.7015 38.2548 80.7913 38.632C80.3206 38.8273 79.8387 39.1133 79.3514 39.4657L79.2369 39.5121C78.6762 39.7429 78.0525 39.8261 77.468 39.9904C77.5436 39.8363 77.5871 39.7103 77.5999 39.6247C77.6764 39.1068 77.4875 38.8106 77.3372 38.647C77.1106 38.4007 76.8119 38.2333 76.4008 38.2765C76.2525 38.2923 76.0293 38.3394 75.7903 38.4984L75.7196 38.5502C75.6609 38.5054 75.5857 38.4615 75.497 38.427C75.4874 38.3515 75.4704 38.2844 75.453 38.2269C75.389 38.0165 75.1868 37.4869 74.5157 37.4623L74.5314 37.3851L75.3392 31.6507L75.7561 18.8979C75.7895 18.7194 75.9681 18.372 76.0031 18.1986C76.0562 17.9357 76.0152 17.7289 75.9625 17.5965C75.8285 17.2631 75.5839 16.9046 75.0831 16.9567C75.1403 16.6866 75.0696 16.4635 74.9658 16.2948C75.1808 15.0364 75.327 13.7584 75.5409 12.5155L75.8528 10.9372C75.8853 10.7976 75.9491 10.4562 75.9873 10.245L76.1025 9.73559C76.1108 9.18387 75.8379 8.95518 75.7752 8.88902C75.687 8.79492 75.458 8.65382 75.1817 8.58439C75.1392 8.45457 75.0772 8.37617 75.0525 8.3397C74.8711 8.06546 73.9703 7.45311 73.3872 8.45449L73.3056 8.6266ZM68.7316 54.7084L68.6411 54.8124L68.6676 54.8729L68.6741 54.8989L68.825 54.6976L68.794 54.6388L68.7316 54.7084ZM65.4122 51.1738C65.3263 51.2584 65.2493 51.3271 65.189 51.3682L65.2604 51.4684C65.5094 51.8039 65.7932 52.105 66.0976 52.3936L66.2015 52.2329L66.3336 52.0378C65.8713 52.151 65.5672 51.7447 65.4572 51.4583C65.4376 51.4079 65.407 51.3136 65.4122 51.1738ZM68.0134 53.0246L68.0003 53.0181L67.9657 53.0693L67.9651 53.194L67.9689 53.1876L68.0534 53.0391L68.0134 53.0246ZM64.1222 49.6643L64.1297 49.6729L64.141 49.6491L64.1222 49.6643ZM62.709 47.818L62.0885 48.2427L62.2948 48.516C62.4153 48.3043 62.5442 48.0927 62.6733 47.8785L62.709 47.818ZM60.8852 45.7259L60.3621 46.1066L60.6391 46.4299L60.8331 46.6622L60.8713 46.609C61.4015 45.8894 62.1496 45.1891 62.6506 44.6622L63.1712 44.1098L60.8852 45.7259ZM59.2923 44.3943C59.2322 44.3917 59.1872 44.3822 59.1563 44.3752L59.0585 44.3466L58.8438 44.4259L58.794 44.4429L58.9168 44.5572L59.0611 44.7022C59.1356 44.5984 59.2131 44.496 59.2923 44.3943ZM59.1257 42.3901C58.7054 42.4892 58.2992 42.5818 57.9198 42.6735C57.73 42.7197 57.3794 42.8362 57.0073 42.9327L57.0532 42.9703C57.3595 43.0508 57.6787 43.0583 58.0079 42.9434C58.325 42.8322 58.6342 42.7068 58.9373 42.5673L58.9878 42.5184L59.1257 42.3901ZM76.0844 44.054L75.1733 45.12L75.0583 45.2715L74.5482 45.9516C74.7698 45.6958 74.9969 45.4451 75.2288 45.1982C75.5194 44.8882 75.8311 44.6032 76.1428 44.3183L76.4922 43.8906L77.7663 42.3894L76.0844 44.054ZM64.0242 32.3243L63.9082 32.4477L63.7352 32.9707L64.5981 32.076C64.7977 31.8688 64.9989 31.582 65.2014 31.2297L65.2316 30.9891L64.0242 32.3243ZM73.7943 20.9976C73.7188 21.1732 73.6449 21.3557 73.572 21.5449C73.3294 22.1693 73.167 22.8736 72.9479 23.5999C72.6707 25.328 72.3844 27.1379 72.0968 28.5588C71.766 30.1979 71.3365 31.3705 71.0681 31.6427L70.2982 32.4819L70.1015 33.0786C70.2679 32.9563 70.4365 32.8376 70.6058 32.7219C71.4546 32.1433 72.3268 31.6517 73.2291 31.2774L73.7943 20.9976ZM65.6312 27.7907L65.7547 26.8313L65.2651 28.2959L65.3482 28.2111C65.4353 28.1172 65.5299 27.9757 65.6312 27.7907ZM63.8138 19.1256C63.6952 19.2184 63.5729 19.3043 63.4453 19.3808L63.2793 20.4076C63.2083 20.8262 63.1384 21.2444 63.0675 21.6629L62.9217 22.4851C63.2039 21.3885 63.5047 20.2472 63.8138 19.1256ZM71.1654 8.96348C71.158 8.93082 71.1317 8.91328 71.0814 8.91401C71.071 8.91402 71.0689 8.91669 71.0741 8.91983C70.9065 8.85863 70.7161 8.88228 70.523 8.93599C70.3887 9.05158 70.2615 9.16394 70.1855 9.25629L68.0425 11.6898C67.4494 12.361 66.7826 14.3192 66.0834 16.6831C65.5706 18.4154 65.0609 20.3615 64.5949 22.2201C65.1407 20.6091 65.715 18.9933 66.2835 17.5143C66.856 16.0263 67.4318 14.6755 67.9718 13.5868C68.4876 12.021 69.0642 10.8722 69.5709 10.4513L70.1005 10.0384C70.2744 9.82739 70.4537 9.64095 70.6388 9.48205C70.8071 9.33821 70.9707 9.22451 71.1286 9.13692C71.1597 9.06547 71.1763 9.00564 71.1664 8.96567L71.1022 8.93545C71.093 8.93061 71.0841 8.92502 71.0741 8.91983C71.1053 8.93053 71.1356 8.94533 71.1654 8.96348L71.1664 8.96567L71.1835 8.97392L71.1654 8.96348ZM65.0843 13.0022L64.4214 13.615C64.4713 13.6587 64.2594 13.7642 64.2368 13.7857L64.4214 13.615C64.4164 13.6093 64.4076 13.6055 64.3959 13.6023C64.0563 13.5137 64.1991 14.6542 64.0531 15.57C64.4251 14.7717 64.7536 13.8852 65.0843 13.0022Z" fill="black"/>
<path fill-rule="evenodd" clip-rule="evenodd" d="M73.4045 21.8223C73.3674 21.8311 73.348 21.9304 73.334 22.039C72.9561 23.2076 72.705 24.4069 72.5632 25.6274L72.493 26.2968C72.2264 27.9399 71.9016 29.5996 71.7406 31.2673C71.667 32.028 71.4366 32.8124 71.6426 33.5419C71.6776 33.6666 71.7388 33.6978 71.8084 33.8076C71.8026 33.8782 71.8567 33.94 71.9279 33.9459C71.9479 33.9475 71.9668 33.9448 71.9836 33.9372C71.9704 34.1202 71.9542 34.3029 71.9313 34.4867C71.8846 34.6751 72.0012 34.8655 72.191 34.9114C72.3809 34.9572 72.5724 34.8418 72.6188 34.6543C72.9076 33.8288 73.1533 32.9996 73.32 32.1395C73.6431 30.4693 73.7588 28.7554 73.9428 27.0611C74.0898 25.7094 74.2459 24.3656 74.5819 23.0595L74.6909 22.6993C74.7324 22.5659 74.828 22.2365 74.8515 22.1419C74.9094 21.9088 74.8458 21.759 74.8385 21.7352C74.8166 21.6615 73.776 20.7804 73.4256 21.7642L73.4045 21.8223Z" fill="black"/>
</svg>
