<svg width="175" height="134" viewBox="0 0 175 134" fill="none" xmlns="http://www.w3.org/2000/svg">
<g filter="url(#filter0_d_164_1939)">
<path fill-rule="evenodd" clip-rule="evenodd" d="M140.967 4.74053C140.949 4.70971 140.923 4.68275 140.887 4.65772C140.792 4.59224 140.86 4.66349 140.967 4.74053C141.238 5.21045 139.465 6.35637 139.115 6.98421L135.121 16.1284C133.125 20.8969 131.04 25.7154 128.501 30.2432C126.841 33.2052 124.989 36.044 122.802 38.6401C114.834 48.1251 105.681 54.1108 96.0419 57.9106C84.8489 62.3228 72.9683 63.4957 61.4214 64.1389C56.1908 64.4297 51.0566 64.7706 46.0431 64.9054C45.3616 64.8862 44.7927 65.4235 44.7746 66.1053C44.7565 66.787 45.2933 67.3552 45.9747 67.3744C51.5894 67.8309 57.3768 68.372 63.2749 68.3162C71.923 68.2334 80.7118 67.0663 89.2533 64.7302C102.565 61.0902 115.264 54.1146 125.92 41.2381C128.244 38.4205 130.228 35.3603 131.965 32.1499C134.506 27.4526 136.532 22.4434 138.488 17.4977L141.602 7.85086C141.727 7.09783 142.571 5.76895 142.469 5.06793C142.332 4.12617 142.205 3.48679 141.365 4.07033C141.2 4.06841 141.065 4.19936 141.061 4.36306C141.057 4.52868 141.19 4.6635 141.355 4.66736C141.457 4.7675 141.321 4.85224 141.236 4.86572C141.174 4.87727 141.055 4.80794 140.967 4.74053Z" fill="black"/>
<path fill-rule="evenodd" clip-rule="evenodd" d="M10.0416 78.7851C13.4912 76.0735 16.8141 73.1057 20.0084 70.0031C23.5947 66.5172 27.0182 62.858 30.2707 59.1969C32.5262 56.6585 34.7335 54.0567 36.7136 51.3007C38.0624 49.4268 39.3068 47.4798 40.3984 45.4345C40.4828 45.2765 40.8909 44.3348 41.3874 43.1773C42.5594 48.8857 43.5826 57.8353 44.1977 63.2913C44.2942 64.1445 44.1455 65.0015 44.5234 65.5427C45.1285 66.4093 44.8752 65.6852 45.7094 66.1282C45.7034 66.2938 45.8341 66.4305 45.9989 66.4363C46.1637 66.4421 46.3004 66.3131 46.3065 66.1474C47.398 65.8239 46.5175 66.6828 47.3719 65.8066C47.7016 65.4676 47.6774 64.9033 47.7438 64.3313C48.2041 60.414 47.2412 53.9662 46.4713 48.3233C45.826 43.6049 44.9516 39.4276 44.248 37.5595C43.7132 36.1362 42.8609 35.52 42.3905 35.3524C42.3101 35.3235 40.318 35.2214 39.4415 37.157C38.6776 38.844 36.8804 43.106 36.6955 43.4488C35.6863 45.3266 34.5345 47.11 33.2921 48.8298C31.3864 51.4625 29.2656 53.9431 27.0986 56.3678C23.9023 59.9422 20.5431 63.5167 17.0212 66.9178C13.5254 70.2958 9.87276 73.5043 6.06334 76.3816C5.64923 76.6936 5.0361 77.2329 4.79889 77.7914C4.62399 78.2054 4.55565 78.6503 4.62199 79.126C4.68029 79.5555 4.84312 79.9253 5.08435 80.2469C5.27935 80.5088 5.56278 80.7399 5.82613 80.9209C8.17208 82.5483 12.7193 87.6231 17.8997 93.7801C29.5852 107.664 44.254 127.05 44.254 127.05C44.8229 127.801 45.8059 128.105 46.6985 127.809C47.591 127.512 48.1961 126.678 48.2021 125.738C48.2021 125.738 48.5801 112.569 48.0654 102.886C47.8101 98.0864 47.2091 94.2 47.0342 93.0444C47.004 92.4763 46.5196 92.0391 45.9507 92.068C45.3818 92.0969 44.9455 92.5841 44.9757 93.1523C44.9254 94.304 44.3585 98.1461 44.1093 102.886C43.8298 108.184 43.7655 114.528 43.7655 119.181C38.571 112.436 29.2133 100.43 21.2347 90.9703C16.8001 85.7145 12.7575 81.2407 10.0416 78.7851Z" fill="black"/>
<path fill-rule="evenodd" clip-rule="evenodd" d="M45.7455 93.2178C44.9334 94.0979 45.5224 92.9751 45.3315 94.3656C45.2912 94.6583 45.5104 94.6949 45.6833 94.9973C46.0009 95.5539 46.7024 95.8697 47.6332 96.278C49.0122 96.8846 51.1129 97.0984 53.5614 97.2332C64.1896 97.8148 82.3441 95.1302 85.4881 94.5948C105.818 90.7661 124.899 82.321 139.958 69.7276C149.295 61.9181 157.24 52.6084 162.696 41.7386C166.216 34.7245 168.608 27.0768 169.999 18.9399C170.065 18.6414 169.876 18.3448 169.577 18.2793C169.277 18.2139 168.982 18.4026 168.915 18.7011C166.815 26.4625 163.602 33.5382 159.743 40.1363C153.861 50.1894 146.24 58.9792 137.091 66.2052C122.356 77.8453 103.988 85.5893 84.4649 88.8151C81.7109 89.3082 67.0441 91.0068 56.6511 91.5788C54.0318 91.7232 51.7039 91.7175 49.9088 91.7964C48.775 91.8465 47.4704 92.6631 47.408 92.0699C47.3437 91.4729 46.6481 92.2413 46.7507 92.6766C46.9014 93.3314 46.8854 92.7921 46.2702 92.9308C46.1918 92.7864 46.0089 92.7343 45.8642 92.8133C45.7194 92.8923 45.6671 93.0733 45.7455 93.2178Z" fill="black"/>
<path fill-rule="evenodd" clip-rule="evenodd" d="M39.5099 47.1472C39.343 47.0028 39.1902 46.9084 39.0636 46.8622C38.0142 46.4886 36.6372 46.3075 36.4764 48.3682C36.1447 50.0784 36.0723 51.8926 36.199 53.7646L35.6884 54.483C35.409 54.2807 35.214 54.2018 35.1919 54.2018C34.1948 54.221 33.654 54.6698 33.465 55.4651H33.3203C33.0972 55.4748 32.5242 55.4921 31.883 56.1238C29.9411 58.1075 28.0595 60.1875 26.2603 62.3618C25.8462 62.4562 25.5326 62.7046 25.3839 62.8548C25.1044 63.1379 24.8954 63.5809 24.7969 64.1606C23.8782 65.3026 22.9796 66.462 22.0911 67.631C21.679 67.8198 21.4357 68.2261 21.295 68.6787L21.1483 68.8713L20.0929 70.2811C19.9502 70.2464 19.8034 70.2291 19.6546 70.2271C19.1099 70.2214 18.5932 70.464 18.2535 70.7972C17.8153 71.2286 17.5077 72.2223 17.6565 73.5531L17.0293 74.3948C16.5066 73.8074 16.1086 73.4048 15.8955 73.2585C14.8823 72.5632 14.1164 73.0698 13.7847 73.4029C13.3163 73.8729 13.0811 75.506 13.9938 77.5186L14.2551 78.0732L13.8249 78.6356C13.246 77.923 12.7133 77.2913 12.2992 76.8406C11.4267 75.8873 10.4739 75.9682 10.3392 76.1107C10.108 76.3476 10.1261 77.1238 10.5683 78.1214L10.5261 78.1676C10.508 78.1965 10.492 78.5451 10.9221 78.9899C10.9684 79.0419 11.0287 79.0728 11.091 79.0805L11.2076 79.2596C13.0912 82.0155 16.9227 86.4085 17.3891 86.9728L19.0938 89.0585C20.9693 91.5718 22.9193 94.0273 24.9315 96.4347L26.5659 98.3625C28.2284 100.876 29.9632 103.378 31.7583 105.804C34.9406 110.107 38.3158 114.178 41.8377 117.687C41.9 117.749 44.5978 117.036 43.9203 115.615L43.9223 115.605L43.9083 115.59L43.8862 115.547C43.8621 115.391 43.8037 115.218 43.7193 115.029C43.6751 114.929 43.6088 114.817 43.5263 114.698C44.4551 115.095 45.1365 114.792 45.4441 114.627C46.1216 114.265 46.6543 113.679 46.6442 112.647C46.6362 111.876 45.7718 109.981 44.2239 107.524C44.445 107.397 44.6199 107.247 44.7385 107.121C45.5687 106.264 45.7517 105.323 45.428 104.31C45.1687 103.503 43.9807 102.469 43.462 101.669L42.9052 100.816C43.5303 101.115 44.055 101.086 44.445 100.86C44.7767 100.668 45.5667 100.286 45.4602 99.1097C45.426 98.4896 45.1044 97.5382 44.5435 96.3268C45.028 96.4578 45.5607 96.3961 46.019 96.1169C46.8633 95.6046 47.1729 94.528 46.7327 93.6441L46.6241 93.4341C47.4624 93.4091 47.977 93.047 48.3168 92.6041C48.5942 92.242 48.8092 91.7663 48.7831 91.1558C48.7771 90.9863 48.7148 90.7533 48.6263 90.5048L48.7268 90.5087C50.325 90.4528 50.9079 89.6382 50.6245 88.1919C50.4898 87.5062 49.7661 86.3468 49.3319 85.5033C48.6726 82.8802 47.6896 79.5581 46.3668 76.13C46.1276 75.5079 45.8703 74.8839 45.6029 74.2619C45.6833 74.0558 45.7275 73.8324 45.7296 73.5994L45.7235 73.5069H45.7276L45.7175 73.3702L45.2793 65.0368C44.7948 61.7513 44.1716 58.4522 43.7354 55.1435C43.4519 52.9865 43.2429 50.8257 43.2127 48.6629L43.1685 45.5873C43.1685 44.8362 42.6197 44.1968 41.8759 44.0851C41.1321 43.9734 40.4205 44.424 40.1994 45.1424C40.2034 45.1462 39.936 45.9878 39.5099 47.1472ZM44.3063 97.7385C44.449 98.0158 44.6119 98.1641 44.8049 98.0486C45.0823 97.881 44.6541 97.7886 44.3063 97.7385ZM25.1627 81.9423C25.3336 82.2389 25.3235 82.2197 25.5145 82.5201L25.9166 83.1056C25.6311 82.6453 25.3437 82.1888 25.0522 81.7363L25.1627 81.9423ZM15.7105 80.964L15.6965 80.9794L15.9699 81.3261L16.1709 81.586L15.7729 80.8908L15.7105 80.964ZM38.744 67.7851C39.6064 70.3176 40.6597 72.8232 41.7473 75.2344C40.7401 72.7173 39.7129 70.1636 38.744 67.7851ZM30.8859 67.1438L31.8408 68.5921L31.3362 66.489L30.8859 67.1438ZM37.9318 49.8435C37.7931 49.6605 37.6263 49.597 37.4313 49.7087C37.1619 49.8589 37.578 49.857 37.9318 49.8435Z" fill="black"/>
<path fill-rule="evenodd" clip-rule="evenodd" d="M67.8282 64.9764C67.4523 64.8839 67.1226 64.8955 66.8653 64.9513C66.0512 65.1304 65.1164 65.5868 65.1425 67.1237C65.1506 67.5628 65.3053 68.2658 65.9446 69.0284C66.7185 69.9509 68.6725 71.4916 71.2195 73.3809L73.4629 75.0276L73.7022 75.2394C74.0922 75.5996 75.0671 76.6261 76.3356 77.9665C74.1625 76.7705 71.6819 75.3415 69.3681 73.8971L62.4005 67.8652C61.8558 67.4781 60.6456 66.5151 60.2998 66.5016C59.544 66.4728 58.6213 66.6326 58.4263 67.7862C58.0082 67.5648 57.588 67.3587 57.1679 67.1642C55.6542 66.4111 54.9224 67.4357 54.7113 67.8382C54.5525 68.1425 54.3696 68.6721 54.6591 69.3635C54.8742 69.8758 56.416 71.6322 57.0855 72.3005L59.5118 74.7117C56.6935 72.0078 53.9957 69.4521 52.1523 67.8151C50.4054 66.2648 49.0364 65.5695 48.7289 65.5772C47.3498 65.5426 46.988 66.3245 46.9196 67.064C46.807 67.0505 46.6925 67.0467 46.5739 67.0486C45.2089 67.0255 44.8551 67.8536 44.7466 68.5701C44.7003 68.8782 44.7425 69.3154 45.0039 69.8084C45.2471 70.2648 46.0814 71.066 46.3186 71.5591L48.8294 75.8018L49.6536 77.0093C49.145 76.3757 48.6203 75.7613 48.0755 75.1682C46.5176 73.4715 44.8089 72.0078 42.9534 70.8214L41.6528 70.338C40.4185 70.4305 40.0365 71.0102 40.3883 72.1156C40.5753 72.7011 41.3412 73.7738 41.6347 74.3612L44.1194 79.0893C45.2009 80.8129 48.4535 84.9594 50.6708 88.9036C51.3462 90.1054 51.9654 91.2686 52.3513 92.3086C49.7601 89.0808 45.8281 83.9329 43.6429 81.0325C43.4439 80.3854 42.9796 79.3762 42.5293 78.9121C42.1031 78.4749 41.6548 78.4769 41.3131 78.7811C41.2648 78.8254 41.7352 80.3507 42.9956 82.3209C45.0099 85.4698 48.3891 90.4135 50.6325 93.6105C51.0969 94.2788 51.6477 95.8657 52.1262 96.484C53.077 97.7165 53.9635 97.6992 54.7395 96.2779C55.5014 94.7275 55.0089 92.2451 53.67 89.5527C53.4791 89.1675 53.27 88.7746 53.0489 88.3817L53.8952 89.5796C54.0701 89.8165 57.972 94.5446 59.6968 96.1854C60.2636 96.7247 60.7421 97.0193 60.9652 97.1156C62.6297 97.8301 63.5243 96.9134 63.9143 96.0968C64.0409 95.8311 64.1133 95.4651 64.1193 95.0164C65.237 94.9721 66.5959 94.3308 68.178 92.8016L67.6875 92.2181C67.4724 92.0486 67.2412 91.8907 67.1286 91.8002L61.5864 86.71C61.8176 86.4115 62.087 86.1496 62.3945 85.9377L67.6875 92.2181C67.9951 92.4511 68.2785 92.6996 68.178 92.7997L68.2202 92.8498C68.3067 92.9422 68.3649 92.9942 68.3911 93.0173C68.6122 93.2273 68.7851 93.3062 68.8494 93.3447C70.3732 94.248 71.4004 93.285 71.7784 92.9268C71.8527 92.8575 71.9894 92.715 72.1201 92.5108C72.9845 93.2157 73.8368 93.8859 74.4097 94.2903C76.1868 95.5499 77.8634 94.6024 77.9518 94.5003C78.5087 93.8628 79.0735 92.5859 78.1468 90.9855C76.8241 88.6976 71.6738 83.8328 71.2034 83.3166L69.3882 81.1115C70.4194 82.0898 71.4205 83.0508 72.3895 83.9637L78.2312 89.6027C78.8343 90.2171 79.8113 91.6519 80.5631 92.4376C81.3712 93.2812 82.2015 93.6798 82.6719 93.7684C83.6689 93.9572 84.4811 93.7338 85.1083 93.1656C85.5284 92.7843 86.1596 92.1218 86.1194 90.8083C86.1033 90.2729 85.3958 88.7958 83.9303 87.0625L87.0462 88.4491C88.2704 89.2869 89.2414 89.6913 89.6354 89.699C91.141 89.7279 91.714 88.8439 91.9934 88.3663L92.0175 88.3817L92.2447 88.5242L92.3874 88.6725L92.7955 89.1367C92.8457 89.3601 92.9342 89.5045 93.0809 89.4564L93.0528 89.4275L92.7955 89.1347L92.7492 88.8901L92.7432 88.8247C93.1211 89.0519 93.3724 89.2291 93.2438 89.3524C93.1835 89.4121 93.1292 89.4467 93.0789 89.4564C93.3282 89.726 93.5795 89.9802 93.7604 90.1189C94.3997 90.6119 95.067 90.61 95.5093 90.6292C96.7697 90.6832 98.0663 90.1092 98.2573 87.7307C98.2915 87.3032 98.1588 86.45 97.3246 85.5083C97.1276 85.2849 96.7878 84.9864 96.3275 84.6262C96.6692 84.6031 97.0029 84.5685 97.3246 84.5261C98.4423 84.5261 99.3489 83.619 99.3489 82.502C99.3489 81.3849 98.4423 80.4779 97.3246 80.4779C96.0601 80.3411 94.7092 79.7595 93.1533 79.2395C90.7671 78.4403 88.0573 77.458 85.3837 76.1889L77.9458 70.3226L72.4096 66.4053C71.7703 65.9374 70.1299 64.8723 69.6716 64.7279C68.96 64.5045 68.4353 64.6624 68.1479 64.7915C68.0654 64.8319 67.9508 64.8935 67.8282 64.9764ZM59.7349 85.1231C59.9943 85.5237 60.2516 85.9224 60.5089 86.3229L61.1683 87.3822C60.6597 88.3778 60.4707 89.6162 60.5752 90.8025C61.3994 91.6615 62.1975 92.4704 62.7363 92.9788C62.8609 93.0982 63.0338 93.2619 63.0338 93.2619C63.0338 93.2619 62.2417 93.3698 61.4638 93.547C62.0688 94.4637 62.9614 95.0607 64.1193 95.0126C64.1474 93.753 63.673 91.8464 62.5151 89.701C62.1211 88.971 61.6648 88.191 61.1683 87.3822L61.2306 87.2551C61.2869 87.1588 61.3432 87.0644 61.4015 86.9681L61.5864 86.7062L60.4908 85.6989L59.4877 84.7456L59.7349 85.1231ZM83.671 88.4722C84.0228 88.9364 84.3565 89.1925 84.6098 88.921C85.048 88.4491 84.3806 88.401 83.671 88.4722ZM45.5969 77.2597L45.9547 77.9222C46.4834 78.7407 47.5086 80.1023 48.6846 81.7316C47.6875 80.2063 46.6663 78.6945 45.5969 77.2597Z" fill="black"/>
<path fill-rule="evenodd" clip-rule="evenodd" d="M139.172 10.9245C139.043 11.1498 138.953 11.3732 138.894 11.5889C138.722 11.6794 138.649 11.7642 138.81 11.8065C137.952 12.2919 137.777 13.0391 137.964 13.4301C138.155 13.8326 138.231 14.6357 139.178 14.913L139.759 15.0536C139.757 15.1248 139.819 15.1191 139.904 15.0805L139.767 15.0555L139.759 15.0536C139.759 15.0401 139.761 15.0228 139.767 15.0035C139.797 14.8918 139.94 14.8995 140.119 14.9631L140 15.0343L139.906 15.0825L140.489 15.1865L140.643 15.2096C140.844 15.3174 141.003 15.4195 141.017 15.4233L143.982 15.9068L154.588 16.6058C155.296 16.6521 156.755 16.9101 157.939 16.8947C158.83 16.8832 159.606 16.706 160.135 16.3747C161.349 15.6256 161.13 14.7127 160.776 14.054C160.577 13.6823 158.862 13.0256 158.126 12.7079L154.48 11.4175L153.76 11.1325C153.827 10.8956 153.796 10.6067 153.571 10.2543C153.408 9.99812 153.089 9.72849 152.624 9.55516C151.953 9.30286 150.807 9.195 150.459 9.11797C148.841 8.75783 146.799 8.02987 144.901 7.83535C144.65 7.81032 144.402 7.79297 144.157 7.78719L144.125 7.78143L142.786 7.46558L142.597 7.4232L142.77 5.91716C143.564 6.08664 144.648 6.09625 144.973 6.19254L144.963 6.23107C144.957 6.3967 145.084 6.53536 145.249 6.54307L146.011 6.61433C146.34 6.72218 146.654 6.77803 146.811 6.68944L147.309 6.73564C147.667 6.61046 147.593 6.35048 147.536 6.1579C147.458 5.88827 146.348 5.42412 146.025 5.00235C145.685 4.62102 143.446 2.97247 142.416 2.57958C141.522 2.23677 140.935 2.77216 140.599 3.06297C140.171 3.41733 139.701 4.18964 139.385 5.21614C138.939 6.67211 138.979 8.65963 138.929 9.42036C138.929 9.46851 139.124 10.262 139.172 10.9245ZM139.109 11.4868L138.894 11.5889L138.864 11.6775L138.844 11.7892L138.814 11.8046L138.808 11.8084L138.838 11.8142L138.842 11.7892L139.043 11.6871L139.132 11.6525C139.152 11.5985 139.166 11.535 139.174 11.4618L139.109 11.4868ZM142.927 11.7006L141.934 11.4175L141.829 11.6004L141.86 11.6062L142.927 11.7006Z" fill="black"/>
<path fill-rule="evenodd" clip-rule="evenodd" d="M168.94 17.8347C168.728 17.8925 168.495 18.0177 168.296 18.2468C167.866 18.7379 167.575 19.4794 167.464 19.8107L166.246 25.1242C166.039 25.4266 166.117 25.8406 166.421 26.0467C166.722 26.2528 167.136 26.1758 167.343 25.8734C167.985 25.13 168.393 24.4193 168.654 23.6644C169.022 22.6013 169.046 21.492 169.34 20.2267C169.372 19.9917 169.647 19.5449 169.713 19.0923C169.794 18.555 169.627 18.2218 169.631 17.9695C169.645 17.0913 169.726 16.8448 169.03 17.5901C168.958 17.6556 168.927 17.7461 168.94 17.8347Z" fill="black"/>
<path fill-rule="evenodd" clip-rule="evenodd" d="M170.337 17.2897L170.3 17.2685C170.292 17.2338 170.268 17.2088 170.228 17.1953C170.138 17.1683 170.212 17.2165 170.3 17.2685C170.377 17.5304 169.685 18.3547 169.611 18.53L167.723 24.4001C166.292 27.9148 164.603 31.393 162.863 34.8615C161.568 37.4364 160.195 39.9786 158.844 42.515C157.471 45.0957 156.17 47.6803 154.719 50.1493C154.536 50.4208 154.608 50.7906 154.88 50.9735C155.151 51.1565 155.521 51.0833 155.702 50.8118C158.547 46.9349 161.355 42.8752 163.655 38.515C165.952 34.1586 167.719 29.5403 169.307 24.9971L170.803 18.7957C170.813 18.5685 170.964 17.6209 170.908 17.2454C170.859 16.9295 170.731 16.7812 170.606 16.7812C170.447 16.7389 170.282 16.8352 170.24 16.9931C170.214 17.1048 170.252 17.2184 170.337 17.2897Z" fill="black"/>
<path fill-rule="evenodd" clip-rule="evenodd" d="M116.858 51.9403C116.575 51.9711 116.295 52.0096 116.028 52.0539C115.065 52.2157 114.229 52.4988 113.66 52.8242C112.801 53.3154 112.604 53.9278 112.51 54.1724C112.297 54.7174 112.19 55.509 112.46 56.1888L107.758 56.5875C106.797 56.7184 104.409 56.8975 103.795 57.0458C102.426 57.3771 102.026 58.367 101.906 58.6925C101.749 59.12 101.691 59.5533 101.773 59.9847C99.7971 60.2178 97.9034 60.5221 96.1424 60.9169C95.0529 61.1615 94.7091 61.7835 94.5986 61.9491C94.4458 62.1764 94.2568 62.6617 94.2005 63.2125C93.7342 63.2568 93.3462 63.3608 93.0688 63.486L92.4335 63.5438C91.7038 63.6555 89.9127 63.6208 88.9357 63.9752C88.3688 64.1813 87.9306 64.4817 87.615 64.8418L85.4881 64.6126C84.6237 64.5683 82.6758 64.5375 82.3481 64.8861C82.0928 65.1557 81.8737 65.5178 81.9381 65.9935L81.5501 65.9569L76.2671 65.8548C76.2088 65.8548 75.1374 65.7855 74.7333 65.8144C74.0378 65.8645 73.6538 66.2034 73.5352 66.3363C73.0367 66.8968 72.908 67.5111 73.3402 68.1987C73.5774 68.5781 74.0679 69.0095 74.8298 69.229C75.3826 69.3889 76.1807 69.4601 76.8139 69.5333L76.8883 69.5911L76.5445 69.7066C75.6882 70.0071 75.4068 70.5097 75.2922 70.7004C74.8057 71.5093 74.4278 73.4255 76.5687 73.9436L76.5204 74.0553L76.4581 74.2344C76.1405 74.6292 76.0862 75.076 76.1003 75.2686C76.1324 75.7289 76.2692 76.0813 76.4923 76.3433C76.8159 76.9904 77.5155 77.5546 78.8262 77.8782C79.9117 78.1459 82.4949 78.2384 87.1164 77.8686C89.4483 77.6818 91.7782 77.4564 94.102 77.1868C93.2035 77.4237 92.2727 77.6991 91.4566 78.0207C89.8946 78.6351 88.6945 79.4748 88.1658 80.3376C87.6572 81.1657 87.7295 81.8763 87.9909 82.4522L88.0251 82.5177C87.2149 83.1378 86.5918 83.8061 86.2138 84.484C85.5846 85.6087 85.86 86.5486 86.7626 87.3363C87.5064 87.9853 90.7711 88.2164 91.3922 88.2164C91.551 88.5477 91.8325 88.8693 92.2948 89.1582C92.8517 89.5048 93.7121 89.7321 94.7614 89.6107C96.3515 89.4259 98.7417 88.4205 99.4272 88.1605L106.634 84.9039C109.633 83.9833 112.773 82.978 115.839 81.7531L116.534 81.9688C116.579 81.9804 119.797 82.7218 120.499 82.6044C121.572 82.4252 121.799 81.6664 121.771 81.0829C121.759 80.8306 121.685 80.3395 121.082 79.8773L120.7 79.6038C123.771 78.1151 126.676 76.4376 129.295 74.6966C130.11 74.2209 130.204 73.6297 130.24 73.4872C130.299 73.258 130.268 72.659 129.997 72.141L130.051 71.9792C130.045 71.9234 130.039 71.8675 130.033 71.8116L129.977 71.5805L130.552 71.4996L130.998 71.4245C131.804 71.6229 132.789 71.8694 133.063 71.7866C133.885 71.5362 134.715 71.0008 134.442 69.8588L134.588 69.6354C134.671 69.4717 134.661 69.4909 134.721 69.3427L134.761 69.2098L135.34 69.2733C135.27 69.2617 135.085 69.2098 135.085 69.2098C135.085 69.2098 136.484 69.5583 136.705 69.5314C137.696 69.412 138.237 68.8438 138.541 68.1967C138.734 67.7865 139.027 67.0181 138.414 65.98C138.114 65.4735 137.117 64.6724 135.519 64.2872C134.261 63.9829 132.462 63.7537 131.058 63.6016L133.175 63.4879L136.142 63.3531C136.759 63.3088 138.018 63.4456 138.567 63.3165C139.415 63.1162 139.948 62.6463 140.271 62.1976C140.804 61.4619 141.17 60.445 140.37 59.093C140.289 58.9563 140.183 58.8157 140.05 58.677L140.088 58.6732C140.478 58.6327 144.71 58.2033 146.37 57.9048C148.479 57.5254 148.855 55.6534 148.833 55.3799C148.787 54.6076 148.343 53.6871 147.114 53.1401C145.773 52.5411 141.896 52.4025 141.226 52.3813L139.562 52.3486L140.181 52.2561L146.931 51.3972C147.165 51.376 150.039 51.0659 151.129 50.8213C151.79 50.673 152.19 50.4034 152.337 50.2724C153.173 49.5194 153.105 48.7183 152.683 47.9903C152.514 47.6975 151.768 47.0081 150.361 46.9503C148.507 46.8752 144.183 47.2835 142.348 47.4337C138.245 47.7669 134.074 47.8593 129.961 48.4294C125.775 49.011 121.707 50.0548 117.69 51.2527C117.296 51.3355 116.999 51.6013 116.858 51.9403ZM99.9981 81.4353C98.7276 81.9052 96.836 82.5292 94.9624 83.2919C95.4388 83.1956 95.9133 83.0974 96.3877 82.9914L97.2883 82.7815L99.9981 81.4353ZM99.8453 81.4296L99.6503 81.4835C99.7287 81.5201 99.793 81.497 99.8453 81.4296ZM134.703 68.2815C134.797 68.5164 134.822 68.7514 134.797 68.9767C134.866 69.0538 134.93 69.0653 134.972 68.9459C135.075 68.6551 134.962 68.4394 134.703 68.2815Z" fill="black"/>
<path fill-rule="evenodd" clip-rule="evenodd" d="M136.999 18.7646L136.836 18.8243C135.875 19.223 135.471 19.8989 135.354 20.3746C135.198 21.0198 135.33 21.5899 135.712 22.0791C136.044 22.5008 136.868 22.9072 137.435 23.0016C135.791 23.4022 134.526 23.7565 134.03 23.9606C133.083 24.3497 132.787 24.9949 132.699 25.2298C132.389 26.0464 132.518 26.784 133.183 27.4234C133.368 27.5987 133.744 27.9357 134.484 28.0089L135.029 28.0551C134.755 28.1341 134.5 28.2188 134.269 28.3074C133.037 28.7889 132.387 29.5997 132.239 30.2006C132.078 30.8496 132.064 31.9107 133.34 32.371L131.531 32.8333C130.855 33.0297 129.217 33.5323 128.92 33.7789C128.146 34.4202 128.053 35.1732 128.142 35.7452C128.18 35.9936 128.258 36.4058 128.552 36.7813C127.221 37.7578 125.896 38.738 124.592 39.7453L124.322 39.9571L123.639 40.1459C123.309 40.2171 122.523 40.5002 122.318 40.6042C121.98 40.7795 121.789 40.9586 121.715 41.0414C121.244 41.5749 121.098 42.0718 121.134 42.5032C119.918 43.5027 118.716 44.5196 117.52 45.5519L110.831 51.1832L107.794 53.7947C107.607 53.941 106.64 54.7422 106.26 55.0869C106.079 55.2487 105.959 55.3778 105.908 55.4375C104.543 57.0494 105.838 58.4418 106.162 58.7115C106.214 58.7538 106.268 58.7981 106.328 58.8405C106.453 59.322 106.807 59.763 107.633 59.9652C108.204 60.1058 109.173 59.9883 110.259 59.4356C111.969 58.5632 114.377 56.6488 115.222 55.9902L117.473 54.7518C120.362 53.2323 123.202 51.7012 126.115 50.3011C128.017 49.3882 129.951 48.5331 131.953 47.7763C132.164 47.6973 132.454 47.5991 132.789 47.4951L132.198 48.2847L127.559 56.8992L126.395 59.4048C126.344 59.4838 126.222 59.6764 126.186 59.7303L126.174 59.7476C120.647 68.4025 119.719 72.0945 121.144 72.1003C121.588 73.0478 123.301 72.0078 126.371 67.9596C126.447 68.3429 126.608 68.7165 126.853 69.0497C127.675 70.1647 129.195 70.5018 130.411 69.8373L130.656 69.6852C130.769 69.743 130.89 69.793 131.02 69.8373C131.746 70.0877 135.632 68.7781 135.732 68.7146C136.07 68.5046 136.406 68.2832 136.735 68.0482C137.16 68.2196 137.654 68.1946 138.076 67.9442C142.141 65.8835 145.496 63.0967 148.25 59.7014C152.156 54.8847 154.794 48.9973 158.197 43.7685L163.432 35.9166L165.667 32.398C165.981 31.7644 166.282 30.0889 166.143 29.7422C166.019 29.4321 165.854 29.1144 165.627 28.8659C165.765 28.4461 165.822 27.695 165.375 27.2039L165.651 27.1499C167.169 26.8245 167.758 25.823 167.848 25.4706C167.936 25.1239 167.838 24.1879 167.064 23.5177C167.723 23.3733 168.288 23.1691 168.718 22.8976C170.212 22.0194 169.832 21.0603 169.209 20.3901C169.806 20.2398 170.071 19.9452 170.067 19.6024C170.817 19.1209 170.419 18.4911 168.107 17.9808C167.717 17.8594 167.277 17.7728 166.797 17.7323L166.638 17.7054C166.433 17.6746 165.934 17.6052 165.044 17.5012L163.345 17.324L160.601 17.0024L156.255 16.6326C157.57 16.5075 158.86 16.4189 160.103 16.4381C160.135 16.5864 160.279 16.6827 160.432 16.6596C161.023 16.6191 162.473 16.7694 162.857 16.7424C164.073 16.6558 164.63 16.261 162.847 15.6504C160.637 14.9225 158.112 14.6085 155.491 14.622C151.766 14.6413 147.908 15.2941 144.66 15.531L139.152 16.0241C138.561 16.1184 137.117 16.1608 136.842 16.3206C136.323 16.623 136.169 17.0621 136.165 17.4723C136.161 17.7516 136.209 18.2677 136.858 18.6818L136.999 18.7646ZM138.026 36.2556L137.936 36.269C137.706 36.3018 137.461 36.3518 137.206 36.4135L137.121 36.4963L138.026 36.2556Z" fill="black"/>
<path fill-rule="evenodd" clip-rule="evenodd" d="M142.141 3.26721C142.326 3.27492 142.537 3.40972 141.862 4.11267C141.721 4.02793 141.538 4.07415 141.451 4.21667C141.367 4.35726 141.413 4.54216 141.554 4.62497C141.266 5.51281 141.053 5.44155 140.955 5.29711C140.832 5.1257 140.872 4.8503 141.136 5.95384C141.355 6.87442 142.378 7.38093 143.267 8.02996C149.549 12.6213 160.472 16.5925 165.934 19.4524C166.668 19.8357 167.231 20.4366 167.836 20.4809C168.347 20.5174 168.234 20.2863 168.65 20.1342C169.374 20.581 170.323 20.3557 170.771 19.6315C171.217 18.9074 170.992 17.9579 170.268 17.5111C170.216 17.0431 170.415 17.0374 170.118 16.5848C169.756 16.0359 168.867 15.8568 168.079 15.4292C162.676 12.498 152.811 6.65293 145.589 3.81031C144.606 3.42321 143.697 2.86279 142.82 3.10353C141.769 3.39241 141.938 3.25373 142.141 3.26721Z" fill="black"/>
</g>
<defs>
<filter id="filter0_d_164_1939" x="0.597046" y="0.46875" width="174.403" height="133.452" filterUnits="userSpaceOnUse" color-interpolation-filters="sRGB">
<feFlood flood-opacity="0" result="BackgroundImageFix"/>
<feColorMatrix in="SourceAlpha" type="matrix" values="0 0 0 0 0 0 0 0 0 0 0 0 0 0 0 0 0 0 127 0" result="hardAlpha"/>
<feOffset dy="2"/>
<feGaussianBlur stdDeviation="2"/>
<feComposite in2="hardAlpha" operator="out"/>
<feColorMatrix type="matrix" values="0 0 0 0 0 0 0 0 0 0 0 0 0 0 0 0 0 0 0.25 0"/>
<feBlend mode="normal" in2="BackgroundImageFix" result="effect1_dropShadow_164_1939"/>
<feBlend mode="normal" in="SourceGraphic" in2="effect1_dropShadow_164_1939" result="shape"/>
</filter>
</defs>
</svg>
