<svg width="546" height="311" viewBox="0 0 546 311" fill="none" xmlns="http://www.w3.org/2000/svg">
<g opacity="0.62">
<path d="M542.189 12.147H3.81057C3.63905 12.147 3.5 12.286 3.5 12.4575C3.5 12.6291 3.63901 12.7681 3.81054 12.7681H542.189C542.361 12.7681 542.5 12.6291 542.5 12.4575C542.5 12.286 542.361 12.147 542.189 12.147Z" fill="#DEF6F9"/>
<path d="M545.689 24.5698H0.310573C0.139048 24.5698 0 24.7089 0 24.8804C0 25.0519 0.139011 25.191 0.310536 25.191H545.689C545.861 25.191 546 25.0519 546 24.8804C546 24.7089 545.861 24.5698 545.689 24.5698Z" fill="#DEF6F9"/>
<path d="M545.689 36.9927H0.310573C0.139048 36.9927 0 37.1317 0 37.3032C0 37.4748 0.139011 37.6138 0.310536 37.6138H545.689C545.861 37.6138 546 37.4748 546 37.3032C546 37.1317 545.861 36.9927 545.689 36.9927Z" fill="#DEF6F9"/>
<path d="M545.689 49.4158H0.310573C0.139048 49.4158 0 49.5548 0 49.7263C0 49.8979 0.139011 50.0369 0.310536 50.0369H545.689C545.861 50.0369 546 49.8979 546 49.7263C546 49.5548 545.861 49.4158 545.689 49.4158Z" fill="#DEF6F9"/>
<path d="M545.689 61.8386H0.310573C0.139048 61.8386 0 61.9777 0 62.1492C0 62.3207 0.139011 62.4598 0.310536 62.4598H545.689C545.861 62.4598 546 62.3207 546 62.1492C546 61.9777 545.861 61.8386 545.689 61.8386Z" fill="#DEF6F9"/>
<path d="M545.689 74.2615H0.310573C0.139048 74.2615 0 74.4005 0 74.572C0 74.7436 0.139011 74.8826 0.310536 74.8826H545.689C545.861 74.8826 546 74.7436 546 74.572C546 74.4005 545.861 74.2615 545.689 74.2615Z" fill="#DEF6F9"/>
<path d="M545.689 86.6846H0.310573C0.139048 86.6846 0 86.8236 0 86.9951C0 87.1667 0.139011 87.3057 0.310536 87.3057H545.689C545.861 87.3057 546 87.1667 546 86.9951C546 86.8236 545.861 86.6846 545.689 86.6846Z" fill="#DEF6F9"/>
<path d="M545.689 99.1074H0.310573C0.139048 99.1074 0 99.2465 0 99.418C0 99.5895 0.139011 99.7286 0.310536 99.7286H545.689C545.861 99.7286 546 99.5895 546 99.418C546 99.2465 545.861 99.1074 545.689 99.1074Z" fill="#DEF6F9"/>
<path d="M545.689 111.53H0.310573C0.139048 111.53 0 111.669 0 111.841C0 112.012 0.139011 112.151 0.310536 112.151H545.689C545.861 112.151 546 112.012 546 111.841C546 111.669 545.861 111.53 545.689 111.53Z" fill="#DEF6F9"/>
<path d="M545.689 123.953H0.310573C0.139048 123.953 0 124.092 0 124.264C0 124.435 0.139011 124.575 0.310536 124.575H545.689C545.861 124.575 546 124.435 546 124.264C546 124.092 545.861 123.953 545.689 123.953Z" fill="#DEF6F9"/>
<path d="M545.689 136.376H0.310573C0.139048 136.376 0 136.515 0 136.687C0 136.858 0.139011 136.997 0.310536 136.997H545.689C545.861 136.997 546 136.858 546 136.687C546 136.515 545.861 136.376 545.689 136.376Z" fill="#DEF6F9"/>
<path d="M545.689 148.799H0.310573C0.139048 148.799 0 148.938 0 149.11C0 149.281 0.139011 149.42 0.310536 149.42H545.689C545.861 149.42 546 149.281 546 149.11C546 148.938 545.861 148.799 545.689 148.799Z" fill="#DEF6F9"/>
<path d="M545.689 161.222H0.310573C0.139048 161.222 0 161.361 0 161.532C0 161.704 0.139011 161.843 0.310536 161.843H545.689C545.861 161.843 546 161.704 546 161.532C546 161.361 545.861 161.222 545.689 161.222Z" fill="#DEF6F9"/>
<path d="M545.689 173.645H0.310573C0.139048 173.645 0 173.784 0 173.956C0 174.127 0.139011 174.266 0.310536 174.266H545.689C545.861 174.266 546 174.127 546 173.956C546 173.784 545.861 173.645 545.689 173.645Z" fill="#DEF6F9"/>
<path d="M545.689 186.068H0.310573C0.139048 186.068 0 186.207 0 186.378C0 186.55 0.139011 186.689 0.310536 186.689H545.689C545.861 186.689 546 186.55 546 186.378C546 186.207 545.861 186.068 545.689 186.068Z" fill="#DEF6F9"/>
<path d="M545.689 198.491H0.310573C0.139048 198.491 0 198.63 0 198.802C0 198.973 0.139011 199.112 0.310536 199.112H545.689C545.861 199.112 546 198.973 546 198.802C546 198.63 545.861 198.491 545.689 198.491Z" fill="#DEF6F9"/>
<path d="M545.689 210.914H0.310573C0.139048 210.914 0 211.053 0 211.224C0 211.396 0.139011 211.535 0.310536 211.535H545.689C545.861 211.535 546 211.396 546 211.224C546 211.053 545.861 210.914 545.689 210.914Z" fill="#DEF6F9"/>
<path d="M545.689 223.337H0.310573C0.139048 223.337 0 223.476 0 223.647C0 223.819 0.139011 223.958 0.310536 223.958H545.689C545.861 223.958 546 223.819 546 223.647C546 223.476 545.861 223.337 545.689 223.337Z" fill="#DEF6F9"/>
<path d="M545.689 235.76H0.310573C0.139048 235.76 0 235.899 0 236.07C0 236.242 0.139011 236.381 0.310536 236.381H545.689C545.861 236.381 546 236.242 546 236.07C546 235.899 545.861 235.76 545.689 235.76Z" fill="#DEF6F9"/>
<path d="M545.689 248.183H0.310573C0.139048 248.183 0 248.322 0 248.493C0 248.665 0.139011 248.804 0.310536 248.804H545.689C545.861 248.804 546 248.665 546 248.493C546 248.322 545.861 248.183 545.689 248.183Z" fill="#DEF6F9"/>
<path d="M545.689 260.605H0.310573C0.139048 260.605 0 260.745 0 260.916C0 261.088 0.139011 261.227 0.310536 261.227H545.689C545.861 261.227 546 261.088 546 260.916C546 260.745 545.861 260.605 545.689 260.605Z" fill="#DEF6F9"/>
<path d="M545.689 273.029H0.310573C0.139048 273.029 0 273.168 0 273.339C0 273.511 0.139011 273.65 0.310536 273.65H545.689C545.861 273.65 546 273.511 546 273.339C546 273.168 545.861 273.029 545.689 273.029Z" fill="#DEF6F9"/>
<path d="M545.689 285.451H0.310573C0.139048 285.451 0 285.59 0 285.762C0 285.934 0.139011 286.073 0.310536 286.073H545.689C545.861 286.073 546 285.934 546 285.762C546 285.59 545.861 285.451 545.689 285.451Z" fill="#DEF6F9"/>
<path d="M541.689 297.874H4.12443C3.95291 297.874 3.81386 298.013 3.81386 298.185C3.81386 298.356 3.95288 298.495 4.12441 298.495H541.689C541.861 298.495 542 298.356 542 298.185C542 298.013 541.861 297.874 541.689 297.874Z" fill="#DEF6F9"/>
<path d="M367.975 309.67V0.398424C367.975 0.197392 367.812 0.0344238 367.611 0.0344238C367.41 0.0344238 367.247 0.197398 367.247 0.398429V309.67C367.247 309.871 367.41 310.034 367.611 310.034C367.812 310.034 367.975 309.871 367.975 309.67Z" fill="#DEF6F9"/>
<path d="M353.415 309.67V0.398424C353.415 0.197392 353.252 0.0344238 353.051 0.0344238C352.85 0.0344238 352.687 0.197398 352.687 0.398429V309.67C352.687 309.871 352.85 310.034 353.051 310.034C353.252 310.034 353.415 309.871 353.415 309.67Z" fill="#DEF6F9"/>
<path d="M338.855 309.67V0.398424C338.855 0.197392 338.692 0.0344238 338.491 0.0344238C338.29 0.0344238 338.127 0.197398 338.127 0.398429V309.67C338.127 309.871 338.29 310.034 338.491 310.034C338.692 310.034 338.855 309.871 338.855 309.67Z" fill="#DEF6F9"/>
<path d="M324.295 309.67V0.398424C324.295 0.197392 324.132 0.0344238 323.931 0.0344238C323.73 0.0344238 323.567 0.197398 323.567 0.398429V309.67C323.567 309.871 323.73 310.034 323.931 310.034C324.132 310.034 324.295 309.871 324.295 309.67Z" fill="#DEF6F9"/>
<path d="M309.735 309.67V0.398424C309.735 0.197392 309.572 0.0344238 309.371 0.0344238C309.17 0.0344238 309.007 0.197398 309.007 0.398429V309.67C309.007 309.871 309.17 310.034 309.371 310.034C309.572 310.034 309.735 309.871 309.735 309.67Z" fill="#DEF6F9"/>
<path d="M295.175 309.67V0.398424C295.175 0.197392 295.012 0.0344238 294.811 0.0344238C294.61 0.0344238 294.447 0.197398 294.447 0.398429V309.67C294.447 309.871 294.61 310.034 294.811 310.034C295.012 310.034 295.175 309.871 295.175 309.67Z" fill="#DEF6F9"/>
<path d="M280.615 309.67V0.398424C280.615 0.197392 280.452 0.0344238 280.251 0.0344238C280.05 0.0344238 279.887 0.197398 279.887 0.398429V309.67C279.887 309.871 280.05 310.034 280.251 310.034C280.452 310.034 280.615 309.871 280.615 309.67Z" fill="#DEF6F9"/>
<path d="M266.055 309.67V0.398424C266.055 0.197392 265.892 0.0344238 265.691 0.0344238C265.49 0.0344238 265.327 0.197398 265.327 0.398429V309.67C265.327 309.871 265.49 310.034 265.691 310.034C265.892 310.034 266.055 309.871 266.055 309.67Z" fill="#DEF6F9"/>
<path d="M251.495 309.67V0.398424C251.495 0.197392 251.332 0.0344238 251.131 0.0344238C250.93 0.0344238 250.767 0.197398 250.767 0.398429V309.67C250.767 309.871 250.93 310.034 251.131 310.034C251.332 310.034 251.495 309.871 251.495 309.67Z" fill="#DEF6F9"/>
<path d="M236.935 309.67V0.398424C236.935 0.197392 236.772 0.0344238 236.571 0.0344238C236.37 0.0344238 236.207 0.197398 236.207 0.398429V309.67C236.207 309.871 236.37 310.034 236.571 310.034C236.772 310.034 236.935 309.871 236.935 309.67Z" fill="#DEF6F9"/>
<path d="M222.375 309.67V0.398424C222.375 0.197392 222.212 0.0344238 222.011 0.0344238C221.81 0.0344238 221.647 0.197398 221.647 0.398429V309.67C221.647 309.871 221.81 310.034 222.011 310.034C222.212 310.034 222.375 309.871 222.375 309.67Z" fill="#DEF6F9"/>
<path d="M207.815 309.67V0.398424C207.815 0.197392 207.652 0.0344238 207.451 0.0344238C207.25 0.0344238 207.087 0.197398 207.087 0.398429V309.67C207.087 309.871 207.25 310.034 207.451 310.034C207.652 310.034 207.815 309.871 207.815 309.67Z" fill="#DEF6F9"/>
<path d="M193.255 309.67V0.398424C193.255 0.197392 193.092 0.0344238 192.891 0.0344238C192.69 0.0344238 192.527 0.197398 192.527 0.398429V309.67C192.527 309.871 192.69 310.034 192.891 310.034C193.092 310.034 193.255 309.871 193.255 309.67Z" fill="#DEF6F9"/>
<path d="M178.695 309.67V0.398424C178.695 0.197392 178.532 0.0344238 178.331 0.0344238C178.13 0.0344238 177.967 0.197398 177.967 0.398429V309.67C177.967 309.871 178.13 310.034 178.331 310.034C178.532 310.034 178.695 309.871 178.695 309.67Z" fill="#DEF6F9"/>
<path d="M164.135 309.67V0.398424C164.135 0.197392 163.972 0.0344238 163.771 0.0344238C163.57 0.0344238 163.407 0.197398 163.407 0.398429V309.67C163.407 309.871 163.57 310.034 163.771 310.034C163.972 310.034 164.135 309.871 164.135 309.67Z" fill="#DEF6F9"/>
<path d="M542.753 297.17V12.7983C542.753 12.5973 542.59 12.4343 542.389 12.4343C542.188 12.4343 542.025 12.5973 542.025 12.7983V297.17C542.025 297.371 542.188 297.534 542.389 297.534C542.59 297.534 542.753 297.371 542.753 297.17Z" fill="#DEF6F9"/>
<path d="M528.193 308.591V0.398424C528.193 0.197392 528.03 0.0344238 527.829 0.0344238C527.628 0.0344238 527.465 0.197401 527.465 0.398432V308.591C527.465 308.792 527.628 308.955 527.829 308.955C528.03 308.955 528.193 308.792 528.193 308.591Z" fill="#DEF6F9"/>
<path d="M513.633 309.67V0.398424C513.633 0.197392 513.47 0.0344238 513.269 0.0344238C513.068 0.0344238 512.905 0.197398 512.905 0.398429V309.67C512.905 309.871 513.068 310.034 513.269 310.034C513.47 310.034 513.633 309.871 513.633 309.67Z" fill="#DEF6F9"/>
<path d="M499.073 309.67V0.398424C499.073 0.197392 498.91 0.0344238 498.709 0.0344238C498.508 0.0344238 498.345 0.197398 498.345 0.398429V309.67C498.345 309.871 498.508 310.034 498.709 310.034C498.91 310.034 499.073 309.871 499.073 309.67Z" fill="#DEF6F9"/>
<path d="M484.513 309.67V0.398424C484.513 0.197392 484.35 0.0344238 484.149 0.0344238C483.948 0.0344238 483.785 0.197398 483.785 0.398429V309.67C483.785 309.871 483.948 310.034 484.149 310.034C484.35 310.034 484.513 309.871 484.513 309.67Z" fill="#DEF6F9"/>
<path d="M469.953 309.67V0.398424C469.953 0.197392 469.79 0.0344238 469.589 0.0344238C469.388 0.0344238 469.225 0.197398 469.225 0.398429V309.67C469.225 309.871 469.388 310.034 469.589 310.034C469.79 310.034 469.953 309.871 469.953 309.67Z" fill="#DEF6F9"/>
<path d="M455.393 309.67V0.398424C455.393 0.197392 455.23 0.0344238 455.029 0.0344238C454.828 0.0344238 454.665 0.197398 454.665 0.398429V309.67C454.665 309.871 454.828 310.034 455.029 310.034C455.23 310.034 455.393 309.871 455.393 309.67Z" fill="#DEF6F9"/>
<path d="M440.833 309.67V0.398424C440.833 0.197392 440.67 0.0344238 440.469 0.0344238C440.268 0.0344238 440.105 0.197398 440.105 0.398429V309.67C440.105 309.871 440.268 310.034 440.469 310.034C440.67 310.034 440.833 309.871 440.833 309.67Z" fill="#DEF6F9"/>
<path d="M426.273 309.67V0.398424C426.273 0.197392 426.11 0.0344238 425.909 0.0344238C425.708 0.0344238 425.545 0.197398 425.545 0.398429V309.67C425.545 309.871 425.708 310.034 425.909 310.034C426.11 310.034 426.273 309.871 426.273 309.67Z" fill="#DEF6F9"/>
<path d="M411.713 309.67V0.398424C411.713 0.197392 411.55 0.0344238 411.349 0.0344238C411.148 0.0344238 410.985 0.197398 410.985 0.398429V309.67C410.985 309.871 411.148 310.034 411.349 310.034C411.55 310.034 411.713 309.871 411.713 309.67Z" fill="#DEF6F9"/>
<path d="M397.153 309.67V0.398424C397.153 0.197392 396.99 0.0344238 396.789 0.0344238C396.588 0.0344238 396.425 0.197398 396.425 0.398429V309.67C396.425 309.871 396.588 310.034 396.789 310.034C396.99 310.034 397.153 309.871 397.153 309.67Z" fill="#DEF6F9"/>
<path d="M382.593 309.67V0.398424C382.593 0.197392 382.43 0.0344238 382.229 0.0344238C382.028 0.0344238 381.865 0.197398 381.865 0.398429V309.67C381.865 309.871 382.028 310.034 382.229 310.034C382.43 310.034 382.593 309.871 382.593 309.67Z" fill="#DEF6F9"/>
<path d="M149.575 309.67V0.398424C149.575 0.197392 149.412 0.0344238 149.211 0.0344238C149.01 0.0344238 148.847 0.197398 148.847 0.398429V309.67C148.847 309.871 149.01 310.034 149.211 310.034C149.412 310.034 149.575 309.871 149.575 309.67Z" fill="#DEF6F9"/>
<path d="M135.015 309.67V0.398424C135.015 0.197392 134.852 0.0344238 134.651 0.0344238C134.45 0.0344238 134.287 0.197398 134.287 0.398429V309.67C134.287 309.871 134.45 310.034 134.651 310.034C134.852 310.034 135.015 309.871 135.015 309.67Z" fill="#DEF6F9"/>
<path d="M120.455 309.67V0.398424C120.455 0.197392 120.292 0.0344238 120.091 0.0344238C119.89 0.0344238 119.727 0.197398 119.727 0.398429V309.67C119.727 309.871 119.89 310.034 120.091 310.034C120.292 310.034 120.455 309.871 120.455 309.67Z" fill="#DEF6F9"/>
<path d="M105.895 309.67V0.398424C105.895 0.197392 105.732 0.0344238 105.531 0.0344238C105.33 0.0344238 105.167 0.197398 105.167 0.398429V309.67C105.167 309.871 105.33 310.034 105.531 310.034C105.732 310.034 105.895 309.871 105.895 309.67Z" fill="#DEF6F9"/>
<path d="M91.3349 309.67V0.398424C91.3349 0.197392 91.1719 0.0344238 90.9709 0.0344238C90.7698 0.0344238 90.6069 0.197398 90.6069 0.398429V309.67C90.6069 309.871 90.7698 310.034 90.9709 310.034C91.1719 310.034 91.3349 309.871 91.3349 309.67Z" fill="#DEF6F9"/>
<path d="M76.7749 309.67V0.398424C76.7749 0.197392 76.6119 0.0344238 76.4109 0.0344238C76.2099 0.0344238 76.0469 0.197398 76.0469 0.398429V309.67C76.0469 309.871 76.2099 310.034 76.4109 310.034C76.6119 310.034 76.7749 309.871 76.7749 309.67Z" fill="#DEF6F9"/>
<path d="M62.2149 309.67V0.398424C62.2149 0.197392 62.0519 0.0344238 61.8509 0.0344238C61.6499 0.0344238 61.4869 0.197398 61.4869 0.398429V309.67C61.4869 309.871 61.6499 310.034 61.8509 310.034C62.0519 310.034 62.2149 309.871 62.2149 309.67Z" fill="#DEF6F9"/>
<path d="M47.6549 309.67V0.398424C47.6549 0.197392 47.4919 0.0344238 47.2909 0.0344238C47.0898 0.0344238 46.9269 0.197398 46.9269 0.398429V309.67C46.9269 309.871 47.0898 310.034 47.2909 310.034C47.4919 310.034 47.6549 309.871 47.6549 309.67Z" fill="#DEF6F9"/>
<path d="M33.0949 309.67V0.398424C33.0949 0.197392 32.9319 0.0344238 32.7309 0.0344238C32.5299 0.0344238 32.3669 0.197398 32.3669 0.398429V309.67C32.3669 309.871 32.5299 310.034 32.7309 310.034C32.9319 310.034 33.0949 309.871 33.0949 309.67Z" fill="#DEF6F9"/>
<path d="M18.5349 308.67V1.39842C18.5349 1.19739 18.3719 1.03442 18.1709 1.03442C17.9698 1.03442 17.8069 1.1974 17.8069 1.39843V308.67C17.8069 308.871 17.9698 309.034 18.1709 309.034C18.3719 309.034 18.5349 308.871 18.5349 308.67Z" fill="#DEF6F9"/>
<path d="M3.97488 297.27V12.8984C3.97488 12.6974 3.81191 12.5344 3.61088 12.5344C3.40985 12.5344 3.24688 12.6974 3.24688 12.8984V297.27C3.24688 297.472 3.40985 297.634 3.61088 297.634C3.81191 297.634 3.97488 297.471 3.97488 297.27Z" fill="#DEF6F9"/>
</g>
</svg>
