<svg width="32" height="31" viewBox="0 0 32 31" fill="none" xmlns="http://www.w3.org/2000/svg">
<g filter="url(#filter0_d_41_1259)">
<path d="M12.0526 3.23864C12.0526 5.02729 10.6388 6.47727 8.89474 6.47727C7.15068 6.47727 1 5.02729 1 3.23864C1 1.44999 7.15068 0 8.89474 0C10.6388 0 12.0526 1.44999 12.0526 3.23864Z" fill="black"/>
<ellipse cx="8.89471" cy="12.9545" rx="3.15789" ry="3.23864" fill="black"/>
<ellipse cx="8.89471" cy="22.6705" rx="3.15789" ry="3.23864" fill="black"/>
<ellipse cx="18.3685" cy="3.23864" rx="3.15789" ry="3.23864" fill="black"/>
<ellipse cx="18.3685" cy="12.9545" rx="3.15789" ry="3.23864" fill="black"/>
<ellipse cx="18.3685" cy="12.9545" rx="3.15789" ry="3.23864" fill="black" fill-opacity="0.2"/>
<ellipse cx="18.3685" cy="22.6705" rx="3.15789" ry="3.23864" fill="black"/>
<ellipse cx="27.8421" cy="3.23864" rx="3.15789" ry="3.23864" fill="black"/>
<ellipse cx="27.8421" cy="12.9545" rx="3.15789" ry="3.23864" fill="black"/>
<path d="M28.1429 19.0909C29.7209 19.0909 31.0001 20.312 31.0001 21.8182C31.0001 23.3244 29.7209 28.6364 28.1429 28.6364C26.565 28.6364 25.2858 23.3244 25.2858 21.8182C25.2858 20.312 26.565 19.0909 28.1429 19.0909Z" fill="black"/>
</g>
<defs>
<filter id="filter0_d_41_1259" x="0" y="0" width="32" height="30.6364" filterUnits="userSpaceOnUse" color-interpolation-filters="sRGB">
<feFlood flood-opacity="0" result="BackgroundImageFix"/>
<feColorMatrix in="SourceAlpha" type="matrix" values="0 0 0 0 0 0 0 0 0 0 0 0 0 0 0 0 0 0 127 0" result="hardAlpha"/>
<feOffset dy="1"/>
<feGaussianBlur stdDeviation="0.5"/>
<feComposite in2="hardAlpha" operator="out"/>
<feColorMatrix type="matrix" values="0 0 0 0 0 0 0 0 0 0 0 0 0 0 0 0 0 0 0.25 0"/>
<feBlend mode="normal" in2="BackgroundImageFix" result="effect1_dropShadow_41_1259"/>
<feBlend mode="normal" in="SourceGraphic" in2="effect1_dropShadow_41_1259" result="shape"/>
</filter>
</defs>
</svg>
