<svg width="24" height="22" viewBox="0 0 24 22" fill="none" xmlns="http://www.w3.org/2000/svg">
<path d="M14.1091 13.686C12.7241 14.3626 12.2201 15.8179 12.9834 16.9365C13.7467 18.0551 17.5614 21.4515 18.9464 20.7749C20.3314 20.0983 18.7623 15.605 17.999 14.4864C17.2357 13.3678 15.4941 13.0095 14.1091 13.686Z" fill="black"/>
<path d="M15.7932 8.98596C14.4082 8.30938 13.9041 6.85411 14.6674 5.73552C15.4307 4.61693 19.2454 1.22051 20.6305 1.89709C22.0155 2.57366 20.4464 7.06702 19.6831 8.18561C18.9198 9.3042 17.1782 9.66253 15.7932 8.98596Z" fill="black"/>
<path d="M8.84146 13.686C10.2265 14.3626 10.7305 15.8179 9.9672 16.9364C9.2039 18.055 5.3892 21.4515 4.00417 20.7749C2.61913 20.0983 4.18824 15.605 4.95154 14.4864C5.71485 13.3678 7.45642 13.0094 8.84146 13.686Z" fill="black"/>
<path d="M7.99941 8.98598C9.38445 8.30941 9.88846 6.85414 9.12516 5.73555C8.36186 4.61696 4.54716 1.22054 3.16213 1.89711C1.77709 2.57369 3.3462 7.06704 4.1095 8.18564C4.87281 9.30423 6.61438 9.66256 7.99941 8.98598Z" fill="black"/>
<ellipse cx="11.7341" cy="10.9778" rx="2.65918" ry="2.72717" fill="black"/>
<ellipse cx="11.7341" cy="10.9778" rx="2.65918" ry="2.72717" fill="black" fill-opacity="0.2"/>
</svg>
