<svg width="26" height="26" viewBox="0 0 26 26" fill="none" xmlns="http://www.w3.org/2000/svg">
<path d="M21.9018 11.4137V8.99091C21.9018 6.09404 19.5317 3.72388 16.6348 3.72388H8.73425C5.83739 3.72388 3.46722 6.09404 3.46722 8.99091V10.571" stroke="black" stroke-opacity="0.6" stroke-width="2" stroke-miterlimit="10" stroke-linecap="round" stroke-linejoin="round"/>
<path d="M3.46722 13.7839V16.8915C3.46722 19.7884 5.83739 22.1585 8.73425 22.1585H16.6348C19.5317 22.1585 21.9018 19.7884 21.9018 16.8915V14.4686" stroke="black" stroke-opacity="0.6" stroke-width="2" stroke-miterlimit="10" stroke-linecap="round" stroke-linejoin="round"/>
<path d="M12.6845 8.46411C10.209 8.46411 8.20755 10.4656 8.20755 12.9411C8.20755 15.4166 10.209 17.4181 12.6845 17.4181C15.16 17.4181 17.1615 15.4166 17.1615 12.9411C17.1615 10.4656 15.16 8.46411 12.6845 8.46411Z" stroke="black" stroke-opacity="0.6" stroke-width="2" stroke-miterlimit="10"/>
<path d="M17.9515 6.62085C17.3722 6.62085 16.8981 7.09488 16.8981 7.67426C16.8981 8.25363 17.3722 8.72766 17.9515 8.72766C18.5309 8.72766 19.0049 8.25363 19.0049 7.67426C19.0049 7.09488 18.5309 6.62085 17.9515 6.62085Z" fill="black" fill-opacity="0.6"/>
</svg>
