<svg width="58" height="52" viewBox="0 0 58 52" fill="none" xmlns="http://www.w3.org/2000/svg">
<path d="M44.2 0H13C9.55219 0 6.24558 1.36964 3.80761 3.80761C1.36964 6.24558 0 9.55219 0 13V39C0 42.4478 1.36964 45.7544 3.80761 48.1924C6.24558 50.6304 9.55219 52 13 52H44.2C47.6478 52 50.9544 50.6304 53.3924 48.1924C55.8304 45.7544 57.2 42.4478 57.2 39V13C57.2 9.55219 55.8304 6.24558 53.3924 3.80761C50.9544 1.36964 47.6478 0 44.2 0ZM22.646 25.246L17.446 30.446C17.2043 30.6897 16.9167 30.8831 16.5999 31.0151C16.2831 31.1471 15.9432 31.2151 15.6 31.2151C15.2568 31.2151 14.9169 31.1471 14.6001 31.0151C14.2833 30.8831 13.9957 30.6897 13.754 30.446C13.5103 30.2043 13.3169 29.9167 13.1849 29.5999C13.0529 29.2831 12.9849 28.9432 12.9849 28.6C12.9849 28.2568 13.0529 27.9169 13.1849 27.6001C13.3169 27.2833 13.5103 26.9957 13.754 26.754L17.134 23.4L13.754 20.046C13.2644 19.5564 12.9894 18.8924 12.9894 18.2C12.9894 17.5076 13.2644 16.8436 13.754 16.354C14.2436 15.8644 14.9076 15.5894 15.6 15.5894C16.2924 15.5894 16.9564 15.8644 17.446 16.354L22.646 21.554C22.8897 21.7957 23.0831 22.0833 23.2151 22.4001C23.3471 22.7169 23.4151 23.0568 23.4151 23.4C23.4151 23.7432 23.3471 24.0831 23.2151 24.3999C23.0831 24.7167 22.8897 25.0043 22.646 25.246ZM33.8 31.2H28.6C27.9104 31.2 27.2491 30.9261 26.7615 30.4385C26.2739 29.9509 26 29.2896 26 28.6C26 27.9104 26.2739 27.2491 26.7615 26.7615C27.2491 26.2739 27.9104 26 28.6 26H33.8C34.4896 26 35.1509 26.2739 35.6385 26.7615C36.1261 27.2491 36.4 27.9104 36.4 28.6C36.4 29.2896 36.1261 29.9509 35.6385 30.4385C35.1509 30.9261 34.4896 31.2 33.8 31.2Z" fill="black"/>
</svg>
