<svg width="586" height="586" viewBox="0 0 586 586" fill="none" xmlns="http://www.w3.org/2000/svg">
<path d="M96.8553 374.293C96.8553 374.293 92.6501 353.084 98.6848 341.876C104.719 330.668 122.824 342.738 121.1 327.22C119.376 311.702 107.306 241.007 144.378 223.764C181.449 206.522 236.626 228.075 253.007 180.658C269.388 133.241 267.663 98.755 322.839 97.8936C378.016 97.031 480.609 230.662 486.645 272.045C492.68 313.427 432.944 349.609 431.344 371.176C429.744 392.743 465.954 442.748 454.747 460.851C443.539 478.957 440.952 483.267 440.952 483.267L96.8553 374.293Z" fill="#FFD700"/>
<path opacity="0.7" d="M96.8553 374.293C96.8553 374.293 92.6501 353.084 98.6848 341.876C104.719 330.668 122.824 342.738 121.1 327.22C119.376 311.702 107.306 241.007 144.378 223.764C181.449 206.522 236.626 228.075 253.007 180.658C269.388 133.241 267.663 98.755 322.839 97.8936C378.016 97.031 480.609 230.662 486.645 272.045C492.68 313.427 432.944 349.609 431.344 371.176C429.744 392.743 465.954 442.748 454.747 460.851C443.539 478.957 440.952 483.267 440.952 483.267L96.8553 374.293Z" fill="#FFF7CC"/>
<path d="M433.645 481.235L449.9 486.34" stroke="#263238" stroke-miterlimit="10" stroke-linecap="round" stroke-linejoin="round"/>
<path d="M120.308 382.843L421.887 477.543" stroke="#263238" stroke-miterlimit="10" stroke-linecap="round" stroke-linejoin="round"/>
<path d="M270.72 493.612L307.322 453.092L191.725 414.034L158.786 454.551L270.72 493.612Z" fill="#FFD700" stroke="#263238" stroke-miterlimit="10" stroke-linecap="round" stroke-linejoin="round"/>
<path d="M267.232 482.835L291.803 456.324L203.866 425.288L179.295 453.739L267.232 482.835Z" fill="#263238" stroke="#263238" stroke-miterlimit="10" stroke-linecap="round" stroke-linejoin="round"/>
<path d="M254.324 302.608C254.324 302.608 236.178 307.418 228.526 314.633C220.874 321.848 217.377 335.184 217.377 335.184C217.377 335.184 207.102 343.928 202.292 346.552C197.482 349.175 189.612 354.204 185.676 366.01C181.741 377.815 176.931 404.488 176.931 404.488L189.174 410.172C189.174 410.172 189.393 403.176 200.324 392.463C211.255 381.751 218.033 363.605 218.907 363.168C219.782 362.73 239.02 350.051 239.02 350.051C239.02 350.051 253.887 360.326 270.72 363.168C287.554 366.01 306.137 362.95 306.137 362.95L300.89 379.128C300.89 379.128 288.865 384.375 285.805 390.715C282.745 397.056 268.315 421.104 268.315 421.104L278.59 429.413C278.59 429.413 289.302 421.104 304.387 413.453C319.472 405.801 323.188 400.336 327.561 391.373C331.934 382.41 337.399 365.357 337.618 363.826C337.836 362.296 342.209 358.361 342.865 348.959C343.521 339.559 343.521 339.559 343.521 339.559L366.476 319.008C366.476 319.008 384.622 311.793 399.707 295.178C414.792 278.562 417.197 270.473 418.727 255.606C420.258 240.739 426.379 181.931 426.597 181.055C426.817 180.181 428.783 175.808 431.407 175.371C434.03 174.934 448.46 187.614 450.428 188.925C452.395 190.237 456.33 190.893 456.768 186.739C457.207 182.586 453.707 172.31 442.558 161.161C431.409 150.01 423.319 148.261 420.695 151.104C418.072 153.946 419.821 160.067 418.072 169.031C416.324 177.994 405.392 210.351 399.926 225.653C394.461 240.957 396.21 261.726 396.21 261.726C396.21 261.726 388.777 264.349 383.53 268.285C378.283 272.22 370.194 277.685 370.194 277.685L368.008 276.592C368.008 276.592 380.251 264.349 383.967 257.354C387.684 250.358 388.777 249.921 386.809 245.767C384.841 241.614 368.882 221.5 361.887 212.536C354.891 203.573 346.365 188.488 344.616 184.115C342.867 179.743 343.085 175.371 344.397 172.31C345.708 169.249 357.951 163.127 358.17 153.727C358.388 144.326 352.267 146.949 346.583 148.917C340.898 150.884 325.594 165.751 322.097 175.152C318.599 184.552 321.66 187.614 327.781 193.298C333.903 198.982 341.336 210.57 345.271 221.5C349.207 232.431 354.235 242.925 362.324 245.767C362.324 245.767 349.425 251.889 340.898 258.01C332.372 264.131 328.219 266.973 328.219 266.973C328.219 266.973 316.631 270.253 312.259 275.937C307.887 281.621 306.138 285.337 306.138 285.337C306.138 285.337 266.567 292.114 254.324 302.608Z" fill="white"/>
<mask id="mask0_48_1546" style="mask-type:luminance" maskUnits="userSpaceOnUse" x="176" y="147" width="281" height="283">
<path d="M254.324 302.608C254.324 302.608 236.178 307.418 228.526 314.633C220.874 321.848 217.377 335.184 217.377 335.184C217.377 335.184 207.102 343.928 202.292 346.552C197.482 349.175 189.612 354.204 185.676 366.01C181.741 377.815 176.931 404.488 176.931 404.488L189.174 410.172C189.174 410.172 189.393 403.176 200.324 392.463C211.255 381.751 218.033 363.605 218.907 363.168C219.782 362.73 239.02 350.051 239.02 350.051C239.02 350.051 253.887 360.326 270.72 363.168C287.554 366.01 306.137 362.95 306.137 362.95L300.89 379.128C300.89 379.128 288.865 384.375 285.805 390.715C282.745 397.056 268.315 421.104 268.315 421.104L278.59 429.413C278.59 429.413 289.302 421.104 304.387 413.453C319.472 405.801 323.188 400.336 327.561 391.373C331.934 382.41 337.399 365.357 337.618 363.826C337.836 362.296 342.209 358.361 342.865 348.959C343.521 339.559 343.521 339.559 343.521 339.559L366.476 319.008C366.476 319.008 384.622 311.793 399.707 295.178C414.792 278.562 417.197 270.473 418.727 255.606C420.258 240.739 426.379 181.931 426.597 181.055C426.817 180.181 428.783 175.808 431.407 175.371C434.03 174.934 448.46 187.614 450.428 188.925C452.395 190.237 456.33 190.893 456.768 186.739C457.207 182.586 453.707 172.31 442.558 161.161C431.409 150.01 423.319 148.261 420.695 151.104C418.072 153.946 419.821 160.067 418.072 169.031C416.324 177.994 405.392 210.351 399.926 225.653C394.461 240.957 396.21 261.726 396.21 261.726C396.21 261.726 388.777 264.349 383.53 268.285C378.283 272.22 370.194 277.685 370.194 277.685L368.008 276.592C368.008 276.592 380.251 264.349 383.967 257.354C387.684 250.358 388.777 249.921 386.809 245.767C384.841 241.614 368.882 221.5 361.887 212.536C354.891 203.573 346.365 188.488 344.616 184.115C342.867 179.743 343.085 175.371 344.397 172.31C345.708 169.249 357.951 163.127 358.17 153.727C358.388 144.326 352.267 146.949 346.583 148.917C340.898 150.884 325.594 165.751 322.097 175.152C318.599 184.552 321.66 187.614 327.781 193.298C333.903 198.982 341.336 210.57 345.271 221.5C349.207 232.431 354.235 242.925 362.324 245.767C362.324 245.767 349.425 251.889 340.898 258.01C332.372 264.131 328.219 266.973 328.219 266.973C328.219 266.973 316.631 270.253 312.259 275.937C307.887 281.621 306.138 285.337 306.138 285.337C306.138 285.337 266.567 292.114 254.324 302.608Z" fill="white"/>
</mask>
<g mask="url(#mask0_48_1546)">
<path opacity="0.2" d="M358.927 323.347L340.25 332.002C340.25 332.002 341.161 346.124 336.151 353.413C331.139 360.702 329.318 362.98 329.318 362.98C329.318 362.98 328.862 373.914 325.673 380.746C322.484 387.58 317.473 389.858 317.473 389.858C317.473 389.858 317.928 397.602 311.55 403.524C305.172 409.446 289.229 419.013 279.207 425.39C278.16 426.057 277.169 426.763 276.212 427.485L278.593 429.409C278.593 429.409 289.305 421.101 304.389 413.45C319.474 405.798 323.191 400.333 327.563 391.369C331.936 382.406 337.401 365.353 337.62 363.823C337.838 362.292 342.211 358.358 342.867 348.956C343.524 339.555 343.524 339.555 343.524 339.555L360.31 324.528L358.927 323.347Z" fill="black"/>
</g>
<mask id="mask1_48_1546" style="mask-type:luminance" maskUnits="userSpaceOnUse" x="176" y="147" width="281" height="283">
<path d="M254.324 302.608C254.324 302.608 236.178 307.418 228.526 314.633C220.874 321.848 217.377 335.184 217.377 335.184C217.377 335.184 207.102 343.928 202.292 346.552C197.482 349.175 189.612 354.204 185.676 366.01C181.741 377.815 176.931 404.488 176.931 404.488L189.174 410.172C189.174 410.172 189.393 403.176 200.324 392.463C211.255 381.751 218.033 363.605 218.907 363.168C219.782 362.73 239.02 350.051 239.02 350.051C239.02 350.051 253.887 360.326 270.72 363.168C287.554 366.01 306.137 362.95 306.137 362.95L300.89 379.128C300.89 379.128 288.865 384.375 285.805 390.715C282.745 397.056 268.315 421.104 268.315 421.104L278.59 429.413C278.59 429.413 289.302 421.104 304.387 413.453C319.472 405.801 323.188 400.336 327.561 391.373C331.934 382.41 337.399 365.357 337.618 363.826C337.836 362.296 342.209 358.361 342.865 348.959C343.521 339.559 343.521 339.559 343.521 339.559L366.476 319.008C366.476 319.008 384.622 311.793 399.707 295.178C414.792 278.562 417.197 270.473 418.727 255.606C420.258 240.739 426.379 181.931 426.597 181.055C426.817 180.181 428.783 175.808 431.407 175.371C434.03 174.934 448.46 187.614 450.428 188.925C452.395 190.237 456.33 190.893 456.768 186.739C457.207 182.586 453.707 172.31 442.558 161.161C431.409 150.01 423.319 148.261 420.695 151.104C418.072 153.946 419.821 160.067 418.072 169.031C416.324 177.994 405.392 210.351 399.926 225.653C394.461 240.957 396.21 261.726 396.21 261.726C396.21 261.726 388.777 264.349 383.53 268.285C378.283 272.22 370.194 277.685 370.194 277.685L368.008 276.592C368.008 276.592 380.251 264.349 383.967 257.354C387.684 250.358 388.777 249.921 386.809 245.767C384.841 241.614 368.882 221.5 361.887 212.536C354.891 203.573 346.365 188.488 344.616 184.115C342.867 179.743 343.085 175.371 344.397 172.31C345.708 169.249 357.951 163.127 358.17 153.727C358.388 144.326 352.267 146.949 346.583 148.917C340.898 150.884 325.594 165.751 322.097 175.152C318.599 184.552 321.66 187.614 327.781 193.298C333.903 198.982 341.336 210.57 345.271 221.5C349.207 232.431 354.235 242.925 362.324 245.767C362.324 245.767 349.425 251.889 340.898 258.01C332.372 264.131 328.219 266.973 328.219 266.973C328.219 266.973 316.631 270.253 312.259 275.937C307.887 281.621 306.138 285.337 306.138 285.337C306.138 285.337 266.567 292.114 254.324 302.608Z" fill="white"/>
</mask>
<g mask="url(#mask1_48_1546)">
<path opacity="0.2" d="M270.72 363.166C285.977 365.743 302.671 363.47 305.665 363.021C306.626 360.511 307.244 357.68 305.627 356.602C302.894 354.78 303.805 349.768 303.805 349.768C303.805 349.768 301.527 354.78 283.305 354.78C265.083 354.78 240.483 339.291 240.483 339.291C240.483 339.291 238.66 344.757 233.65 346.579C228.638 348.402 214.972 356.146 214.972 356.146C214.972 356.146 214.516 368.902 205.405 376.646C196.294 384.39 185.797 402.467 185.797 402.467L184.206 407.863L189.174 410.17C189.174 410.17 189.393 403.174 200.324 392.461C211.255 381.749 218.033 363.602 218.907 363.165C219.782 362.728 239.021 350.048 239.021 350.048C239.021 350.048 253.887 360.324 270.72 363.166Z" fill="black"/>
</g>
<path d="M254.324 302.608C254.324 302.608 236.178 307.418 228.526 314.633C220.874 321.848 217.377 335.184 217.377 335.184C217.377 335.184 207.102 343.928 202.292 346.552C197.482 349.175 189.612 354.204 185.676 366.01C181.741 377.815 176.931 404.488 176.931 404.488L189.174 410.172C189.174 410.172 189.393 403.176 200.324 392.463C211.255 381.751 218.033 363.605 218.907 363.168C219.782 362.73 239.02 350.051 239.02 350.051C239.02 350.051 253.887 360.326 270.72 363.168C287.554 366.01 306.137 362.95 306.137 362.95L300.89 379.128C300.89 379.128 288.865 384.375 285.805 390.715C282.745 397.056 268.315 421.104 268.315 421.104L278.59 429.413C278.59 429.413 289.302 421.104 304.387 413.453C319.472 405.801 323.188 400.336 327.561 391.373C331.934 382.41 337.399 365.357 337.618 363.826C337.836 362.296 342.209 358.361 342.865 348.959C343.521 339.559 343.521 339.559 343.521 339.559L366.476 319.008C366.476 319.008 384.622 311.793 399.707 295.178C414.792 278.562 417.197 270.473 418.727 255.606C420.258 240.739 426.379 181.931 426.597 181.055C426.817 180.181 428.783 175.808 431.407 175.371C434.03 174.934 448.46 187.614 450.428 188.925C452.395 190.237 456.33 190.893 456.768 186.739C457.207 182.586 453.707 172.31 442.558 161.161C431.409 150.01 423.319 148.261 420.695 151.104C418.072 153.946 419.821 160.067 418.072 169.031C416.324 177.994 405.392 210.351 399.926 225.653C394.461 240.957 396.21 261.726 396.21 261.726C396.21 261.726 388.777 264.349 383.53 268.285C378.283 272.22 370.194 277.685 370.194 277.685L368.008 276.592C368.008 276.592 380.251 264.349 383.967 257.354C387.684 250.358 388.777 249.921 386.809 245.767C384.841 241.614 368.882 221.5 361.887 212.536C354.891 203.573 346.365 188.488 344.616 184.115C342.867 179.743 343.085 175.371 344.397 172.31C345.708 169.249 357.951 163.127 358.17 153.727C358.388 144.326 352.267 146.949 346.583 148.917C340.898 150.884 325.594 165.751 322.097 175.152C318.599 184.552 321.66 187.614 327.781 193.298C333.903 198.982 341.336 210.57 345.271 221.5C349.207 232.431 354.235 242.925 362.324 245.767C362.324 245.767 349.425 251.889 340.898 258.01C332.372 264.131 328.219 266.973 328.219 266.973C328.219 266.973 316.631 270.253 312.259 275.937C307.887 281.621 306.138 285.337 306.138 285.337C306.138 285.337 266.567 292.114 254.324 302.608Z" stroke="#263238" stroke-miterlimit="10" stroke-linecap="round" stroke-linejoin="round"/>
<path d="M319.91 277.685C317.15 277.685 313.74 277.941 310.531 278.271C307.431 282.609 306.137 285.337 306.137 285.337C306.137 285.337 266.567 292.115 254.323 302.609C254.323 302.609 236.177 307.419 228.525 314.634C220.873 321.849 217.376 335.185 217.376 335.185C217.376 335.185 211.93 339.815 207.111 343.35C210.903 343.078 217.264 343.234 220.655 346.772C224.082 350.348 223.852 356.662 223.359 360.323C229.294 356.461 239.019 350.052 239.019 350.052C239.019 350.052 253.886 360.327 270.719 363.169C287.553 366.011 306.136 362.951 306.136 362.951L305.291 365.555C308.443 363.197 315.259 359.741 325.155 363.607C330.597 365.733 333.319 369.48 334.612 373.457C336.308 368.504 337.516 364.527 337.617 363.825C337.835 362.294 342.208 358.36 342.864 348.958C343.52 339.558 343.52 339.558 343.52 339.558L362.863 322.241C363.272 318.04 362.742 311.564 358.824 302.61C351.175 285.118 326.688 277.685 319.91 277.685Z" fill="#FFD700"/>
<mask id="mask2_48_1546" style="mask-type:luminance" maskUnits="userSpaceOnUse" x="207" y="277" width="156" height="97">
<path d="M319.91 277.685C317.15 277.685 313.74 277.941 310.531 278.271C307.431 282.609 306.137 285.337 306.137 285.337C306.137 285.337 266.567 292.115 254.323 302.609C254.323 302.609 236.177 307.419 228.525 314.634C220.873 321.849 217.376 335.185 217.376 335.185C217.376 335.185 211.93 339.815 207.111 343.35C210.903 343.078 217.264 343.234 220.655 346.772C224.082 350.348 223.852 356.662 223.359 360.323C229.294 356.461 239.019 350.052 239.019 350.052C239.019 350.052 253.886 360.327 270.719 363.169C287.553 366.011 306.136 362.951 306.136 362.951L305.291 365.555C308.443 363.197 315.259 359.741 325.155 363.607C330.597 365.733 333.319 369.48 334.612 373.457C336.308 368.504 337.516 364.527 337.617 363.825C337.835 362.294 342.208 358.36 342.864 348.958C343.52 339.558 343.52 339.558 343.52 339.558L362.863 322.241C363.272 318.04 362.742 311.564 358.824 302.61C351.175 285.118 326.688 277.685 319.91 277.685Z" fill="white"/>
</mask>
<g mask="url(#mask2_48_1546)">
<path opacity="0.2" d="M270.72 363.166C285.977 365.742 302.671 363.47 305.665 363.021C306.626 360.511 307.244 357.68 305.627 356.602C302.894 354.78 303.805 349.768 303.805 349.768C303.805 349.768 301.527 354.78 283.305 354.78C265.083 354.78 240.483 339.29 240.483 339.29C240.483 339.29 238.66 344.757 233.65 346.579C228.638 348.402 214.972 356.146 214.972 356.146C214.972 356.146 214.516 368.902 205.405 376.646C196.294 384.39 185.797 402.467 185.797 402.467L184.206 407.863L189.174 410.169C189.174 410.169 189.393 403.174 200.324 392.461C211.255 381.748 218.033 363.602 218.907 363.165C219.782 362.728 239.021 350.048 239.021 350.048C239.021 350.048 253.887 360.324 270.72 363.166Z" fill="black"/>
</g>
<mask id="mask3_48_1546" style="mask-type:luminance" maskUnits="userSpaceOnUse" x="207" y="277" width="156" height="97">
<path d="M319.91 277.685C317.15 277.685 313.74 277.941 310.531 278.271C307.431 282.609 306.137 285.337 306.137 285.337C306.137 285.337 266.567 292.115 254.323 302.609C254.323 302.609 236.177 307.419 228.525 314.634C220.873 321.849 217.376 335.185 217.376 335.185C217.376 335.185 211.93 339.815 207.111 343.35C210.903 343.078 217.264 343.234 220.655 346.772C224.082 350.348 223.852 356.662 223.359 360.323C229.294 356.461 239.019 350.052 239.019 350.052C239.019 350.052 253.886 360.327 270.719 363.169C287.553 366.011 306.136 362.951 306.136 362.951L305.291 365.555C308.443 363.197 315.259 359.741 325.155 363.607C330.597 365.733 333.319 369.48 334.612 373.457C336.308 368.504 337.516 364.527 337.617 363.825C337.835 362.294 342.208 358.36 342.864 348.958C343.52 339.558 343.52 339.558 343.52 339.558L362.863 322.241C363.272 318.04 362.742 311.564 358.824 302.61C351.175 285.118 326.688 277.685 319.91 277.685Z" fill="white"/>
</mask>
<g mask="url(#mask3_48_1546)">
<path opacity="0.2" d="M358.927 323.347L340.25 332.002C340.25 332.002 341.161 346.124 336.151 353.413C331.139 360.702 329.318 362.98 329.318 362.98C329.318 362.98 328.862 373.914 325.673 380.746C322.484 387.58 317.473 389.858 317.473 389.858C317.473 389.858 317.928 397.602 311.55 403.524C305.172 409.446 289.229 419.013 279.207 425.39C278.16 426.057 277.169 426.763 276.212 427.485L278.593 429.409C278.593 429.409 289.305 421.101 304.389 413.45C319.474 405.798 323.191 400.333 327.563 391.369C331.936 382.406 337.401 365.353 337.62 363.823C337.838 362.292 342.211 358.358 342.867 348.956C343.524 339.555 343.524 339.555 343.524 339.555L360.31 324.528L358.927 323.347Z" fill="black"/>
</g>
<path d="M319.91 277.685C317.15 277.685 313.74 277.941 310.531 278.271C307.431 282.609 306.137 285.337 306.137 285.337C306.137 285.337 266.567 292.115 254.323 302.609C254.323 302.609 236.177 307.419 228.525 314.634C220.873 321.849 217.376 335.185 217.376 335.185C217.376 335.185 211.93 339.815 207.111 343.35C210.903 343.078 217.264 343.234 220.655 346.772C224.082 350.348 223.852 356.662 223.359 360.323C229.294 356.461 239.019 350.052 239.019 350.052C239.019 350.052 253.886 360.327 270.719 363.169C287.553 366.011 306.136 362.951 306.136 362.951L305.291 365.555C308.443 363.197 315.259 359.741 325.155 363.607C330.597 365.733 333.319 369.48 334.612 373.457C336.308 368.504 337.516 364.527 337.617 363.825C337.835 362.294 342.208 358.36 342.864 348.958C343.52 339.558 343.52 339.558 343.52 339.558L362.863 322.241C363.272 318.04 362.742 311.564 358.824 302.61C351.175 285.118 326.688 277.685 319.91 277.685Z" stroke="#263238" stroke-miterlimit="10" stroke-linecap="round" stroke-linejoin="round"/>
<path d="M313.571 334.527C313.571 334.527 307.012 338.463 304.827 346.989C302.641 355.516 305.045 360.544 305.045 360.544" stroke="#263238" stroke-miterlimit="10" stroke-linecap="round" stroke-linejoin="round"/>
<path d="M245.793 299.277C245.793 299.277 235.98 303.693 232.546 301.73C229.111 299.767 229.602 291.426 233.773 286.765C237.943 282.104 246.039 281.613 243.341 280.877C240.642 280.141 235.491 278.669 241.133 274.253C246.775 269.837 263.212 265.912 276.706 269.837C290.199 273.762 295.105 281.122 296.086 284.556C297.067 287.991 297.067 289.217 297.067 289.217C297.067 289.217 302.955 286.764 303.936 288.726C304.917 290.689 303.445 291.915 303.445 291.915C303.445 291.915 305.653 294.123 306.144 299.275C306.635 304.427 303.2 309.088 301.238 311.051C299.275 313.014 296.332 313.504 292.897 310.56C289.462 307.616 287.5 297.558 285.292 297.558C283.084 297.558 273.762 298.049 273.517 296.331C273.272 294.614 273.272 294.614 273.272 294.614L248.248 300.992L245.793 299.277Z" fill="#263238" stroke="#263238" stroke-miterlimit="10" stroke-linecap="round" stroke-linejoin="round"/>
<path d="M296.955 320.754C296.955 320.754 298.704 341.742 292.802 352.236C286.898 362.731 276.186 355.298 273.781 352.893C271.377 350.488 284.931 340.431 287.992 332.561C291.053 324.69 295.862 316.381 296.955 320.754Z" fill="white"/>
<mask id="mask4_48_1546" style="mask-type:luminance" maskUnits="userSpaceOnUse" x="273" y="319" width="25" height="39">
<path d="M296.955 320.754C296.955 320.754 298.704 341.742 292.802 352.236C286.898 362.731 276.186 355.298 273.781 352.893C271.377 350.488 284.931 340.431 287.992 332.561C291.053 324.69 295.862 316.381 296.955 320.754Z" fill="white"/>
</mask>
<g mask="url(#mask4_48_1546)">
<path opacity="0.2" d="M296.955 320.754C296.955 320.754 298.704 341.742 292.802 352.236C286.898 362.731 276.186 355.298 273.781 352.893C271.377 350.488 284.931 340.431 287.992 332.561C291.053 324.69 295.862 316.381 296.955 320.754Z" fill="black"/>
</g>
<path d="M296.955 320.754C296.955 320.754 298.704 341.742 292.802 352.236C286.898 362.731 276.186 355.298 273.781 352.893C271.377 350.488 284.931 340.431 287.992 332.561C291.053 324.69 295.862 316.381 296.955 320.754Z" stroke="#263238" stroke-miterlimit="10" stroke-linecap="round" stroke-linejoin="round"/>
<path d="M245.793 299.277C245.793 299.277 246.284 315.959 252.662 333.378C259.04 350.796 269.835 356.684 274.496 356.929C279.157 357.174 287.99 348.343 291.915 340.002C295.84 331.661 298.539 322.093 298.539 322.093C298.539 322.093 304.181 320.129 305.653 314.979C307.125 309.826 306.88 305.165 302.955 304.674C299.03 304.183 297.313 309.826 297.313 309.826C297.313 309.826 292.407 306.637 290.444 300.258C288.481 293.88 292.407 288.973 290.444 290.2C288.481 291.427 284.556 295.352 282.594 294.616C280.632 293.88 283.821 288.238 283.821 288.238C283.821 288.238 251.926 296.579 245.793 299.277Z" fill="white" stroke="#263238" stroke-miterlimit="10" stroke-linecap="round" stroke-linejoin="round"/>
<path d="M287.499 312.279L298.293 308.109" stroke="#263238" stroke-miterlimit="10" stroke-linecap="round" stroke-linejoin="round"/>
<path d="M261.985 313.506L240.396 309.581C240.396 309.581 240.641 316.451 244.076 320.376C247.51 324.301 254.625 324.792 257.323 323.811C260.022 322.83 259.531 315.225 262.475 315.961C265.419 316.697 264.928 319.886 266.155 322.83C267.382 325.774 268.608 325.528 274.005 326.265C279.402 327.001 284.554 326.51 286.516 323.812C288.48 321.113 289.46 312.772 287.497 312.282C285.534 311.791 278.911 312.773 271.796 313.018C264.683 313.261 261.985 313.506 261.985 313.506Z" fill="white"/>
<mask id="mask5_48_1546" style="mask-type:luminance" maskUnits="userSpaceOnUse" x="240" y="309" width="49" height="18">
<path d="M261.985 313.506L240.396 309.581C240.396 309.581 240.641 316.451 244.076 320.376C247.51 324.301 254.625 324.792 257.323 323.811C260.022 322.83 259.531 315.225 262.475 315.961C265.419 316.697 264.928 319.886 266.155 322.83C267.382 325.774 268.608 325.528 274.005 326.265C279.402 327.001 284.554 326.51 286.516 323.812C288.48 321.113 289.46 312.772 287.497 312.282C285.534 311.791 278.911 312.773 271.796 313.018C264.683 313.261 261.985 313.506 261.985 313.506Z" fill="white"/>
</mask>
<g mask="url(#mask5_48_1546)">
<path d="M274.005 326.264C279.402 327 284.555 326.509 286.516 323.811C287.938 321.856 288.838 316.953 288.484 314.205L267.339 324.693C268.459 325.708 270.188 325.742 274.005 326.264Z" fill="#FFD700"/>
<path d="M257.323 323.811C260.022 322.83 259.531 315.225 262.475 315.961C264.233 316.4 264.765 317.716 265.171 319.33L272.608 312.984C272.339 312.995 272.069 313.007 271.797 313.017C269.684 313.089 267.97 313.162 266.59 313.229L245.237 321.461C248.92 324.377 254.899 324.692 257.323 323.811Z" fill="#FFD700"/>
</g>
<path d="M261.985 313.506L240.396 309.581C240.396 309.581 240.641 316.451 244.076 320.376C247.51 324.301 254.625 324.792 257.323 323.811C260.022 322.83 259.531 315.225 262.475 315.961C265.419 316.697 264.928 319.886 266.155 322.83C267.382 325.774 268.608 325.528 274.005 326.265C279.402 327.001 284.554 326.51 286.516 323.812C288.48 321.113 289.46 312.772 287.497 312.282C285.534 311.791 278.911 312.773 271.796 313.018C264.683 313.261 261.985 313.506 261.985 313.506Z" stroke="#263238" stroke-miterlimit="10" stroke-linecap="round" stroke-linejoin="round"/>
<path d="M260.513 321.357C260.513 321.357 260.268 327.735 260.268 331.661C260.268 335.586 261.74 335.586 264.439 335.341C267.139 335.096 268.611 333.869 268.611 333.869" stroke="#263238" stroke-miterlimit="10" stroke-linecap="round" stroke-linejoin="round"/>
<path d="M269.099 342.21C269.099 342.21 274.251 335.341 279.404 336.077C284.556 336.813 284.556 341.474 281.857 343.191C279.157 344.908 272.288 345.89 270.571 345.399C268.854 344.908 268.118 343.191 269.099 342.21Z" stroke="#263238" stroke-miterlimit="10" stroke-linecap="round" stroke-linejoin="round"/>
<path d="M282.102 337.794C282.102 337.794 275.723 343.191 269.344 343.436" stroke="#263238" stroke-miterlimit="10" stroke-linecap="round" stroke-linejoin="round"/>
<path d="M263.211 307.863C263.211 307.863 266.4 311.298 267.627 310.316C268.854 309.334 273.269 304.919 278.421 304.428C283.574 303.937 284.31 304.919 283.574 303.937C282.838 302.956 279.402 301.238 275.232 301.729C271.062 302.22 268.118 306.39 266.646 307.126C265.174 307.863 263.211 307.863 263.211 307.863Z" fill="#263238" stroke="#263238" stroke-miterlimit="10" stroke-linecap="round" stroke-linejoin="round"/>
<path d="M257.569 306.882C257.569 306.882 257.078 308.845 256.342 309.09C255.606 309.335 255.361 309.335 251.19 308.109C247.019 306.882 245.793 306.637 245.793 306.637C245.793 306.637 245.548 304.675 248.491 304.429C251.435 304.184 255.115 306.392 255.115 306.392C255.115 306.392 256.833 307.618 257.569 306.882Z" fill="#263238" stroke="#263238" stroke-miterlimit="10" stroke-linecap="round" stroke-linejoin="round"/>
<path d="M286.273 273.764C286.273 273.764 297.312 278.425 298.294 296.824L300.502 296.579C300.502 296.579 300.747 287.993 297.067 280.142C293.387 272.292 286.273 273.764 286.273 273.764Z" fill="white" stroke="#263238" stroke-miterlimit="10" stroke-linecap="round" stroke-linejoin="round"/>
<path d="M295.901 304.531C294.465 304.531 293.119 303.639 292.607 302.211C291.956 300.392 292.903 298.39 294.722 297.74L305.043 294.045C306.861 293.391 308.863 294.341 309.515 296.16C310.166 297.979 309.219 299.98 307.4 300.631L297.079 304.325C296.689 304.464 296.292 304.531 295.901 304.531Z" fill="white" stroke="#263238" stroke-miterlimit="10"/>
<path d="M296.957 300.593C297.526 302.11 297.076 303.682 295.952 304.104C294.828 304.525 293.456 303.637 292.887 302.121C292.318 300.604 292.768 299.032 293.892 298.61C295.016 298.19 296.388 299.077 296.957 300.593Z" fill="white" stroke="#263238" stroke-miterlimit="10" stroke-linecap="round" stroke-linejoin="round"/>
<path d="M295.726 320.118C295.726 321.412 294.677 322.461 293.382 322.461C292.088 322.461 291.039 321.412 291.039 320.118C291.039 318.824 293.382 313.639 293.382 313.639C293.382 313.639 295.726 318.824 295.726 320.118Z" stroke="#263238" stroke-miterlimit="10" stroke-linecap="round" stroke-linejoin="round"/>
<path d="M420.696 151.102C418.073 153.944 419.822 160.066 418.073 169.029C416.325 177.993 405.394 210.349 399.927 225.652C394.462 240.956 396.211 261.725 396.211 261.725C396.211 261.725 388.778 264.348 383.531 268.284C378.284 272.219 370.195 277.684 370.195 277.684L368.008 276.592C368.008 276.592 380.251 264.349 383.967 257.353C387.683 250.358 388.777 249.921 386.809 245.767C384.841 241.614 368.882 221.5 361.887 212.536C354.891 203.573 346.365 188.488 344.616 184.115C342.867 179.742 343.085 175.371 344.397 172.31C345.708 169.248 357.951 163.127 358.17 153.726C358.388 144.326 352.267 146.949 346.583 148.917C340.898 150.884 325.594 165.751 322.097 175.152C318.599 184.552 321.66 187.614 327.781 193.298C333.903 198.982 341.336 210.57 345.271 221.5C349.207 232.431 354.235 242.925 362.324 245.767C362.324 245.767 349.425 251.888 340.898 258.01C332.372 264.131 328.219 266.973 328.219 266.973C328.219 266.973 316.631 270.253 312.259 275.937C309.645 279.337 307.984 282.009 307.059 283.627C312.053 281.803 324.149 278.996 338.275 287.305C355.79 297.608 359.512 314.702 359.517 325.237L366.477 319.005C366.477 319.005 384.623 311.791 399.708 295.175C414.793 278.56 417.198 270.47 418.729 255.604C420.259 240.737 426.381 181.928 426.599 181.053C426.818 180.178 428.784 175.806 431.408 175.369C434.031 174.931 448.461 187.611 450.429 188.923C452.397 190.234 456.331 190.891 456.769 186.737C457.208 182.583 453.708 172.307 442.559 161.158C431.408 150.009 423.319 148.26 420.696 151.102Z" fill="#263238" stroke="#263238" stroke-miterlimit="10" stroke-linecap="round" stroke-linejoin="round"/>
<path d="M345.052 268.722C345.052 268.722 368.226 271.783 380.469 290.585" stroke="white" stroke-miterlimit="10" stroke-linecap="round" stroke-linejoin="round"/>
<path d="M456.769 186.738C457.207 182.585 453.708 172.309 442.559 161.159C431.41 150.009 423.321 148.26 420.696 151.102C418.073 153.945 419.822 160.066 418.073 169.029C417.839 170.229 417.436 171.86 416.907 173.802C418.587 173.524 421.152 173.64 424.195 175.588C425.655 176.523 426.796 177.614 427.694 178.711C428.562 177.243 429.865 175.627 431.409 175.37C434.031 174.933 448.461 187.613 450.429 188.924C452.397 190.235 456.331 190.892 456.769 186.738Z" fill="#263238" stroke="#263238" stroke-miterlimit="10" stroke-linecap="round" stroke-linejoin="round"/>
<path d="M327.781 193.297C328.993 194.422 330.256 195.785 331.532 197.32C336.082 197.269 342.372 195.664 346.679 188.395C345.727 186.577 344.999 185.076 344.615 184.114C342.866 179.741 343.084 175.37 344.396 172.309C345.707 169.247 357.95 163.126 358.169 153.725C358.387 144.325 352.266 146.948 346.581 148.915C340.897 150.883 325.593 165.75 322.096 175.151C318.599 184.551 321.66 187.613 327.781 193.297Z" fill="#263238" stroke="#263238" stroke-miterlimit="10" stroke-linecap="round" stroke-linejoin="round"/>
<path d="M346.583 148.917C340.898 150.884 325.594 165.751 322.097 175.152C319.352 182.528 320.657 186.003 324.299 189.904C325.611 189.572 327.159 188.9 328.875 187.614C334.122 183.678 336.308 176.682 339.587 174.277C341.454 172.909 344.807 170.76 348.198 168.478C352.253 165.047 358.021 160.155 358.17 153.726C358.388 144.325 352.267 146.949 346.583 148.917Z" fill="white" stroke="#263238" stroke-miterlimit="10" stroke-linecap="round" stroke-linejoin="round"/>
<path d="M346.583 148.917C340.898 150.884 325.594 165.751 322.097 175.152C320.146 180.398 320.24 183.668 321.764 186.523C323.638 186.906 325.898 186.619 328.438 184.772C335.653 179.525 333.028 174.059 339.369 170.998C344.516 168.514 351.969 163.722 357.049 158.38C357.706 156.928 358.131 155.381 358.17 153.728C358.388 144.325 352.267 146.949 346.583 148.917Z" fill="white" stroke="#263238" stroke-miterlimit="10" stroke-linecap="round" stroke-linejoin="round"/>
<path d="M456.769 186.738C457.207 182.585 453.708 172.309 442.559 161.159C431.41 150.009 423.321 148.26 420.696 151.102C419.938 151.924 419.551 153.028 419.333 154.386C421.393 153.655 424.864 153.164 429.442 155.256C437.094 158.754 451.085 176.244 453.272 181.053C454.546 183.856 454.187 187.322 453.882 189.904C455.288 189.805 456.534 188.97 456.769 186.738Z" fill="white" stroke="#263238" stroke-miterlimit="10" stroke-linecap="round" stroke-linejoin="round"/>
<path d="M369.382 309.311L359.153 317.645C358.947 317.813 358.832 318.068 358.843 318.334L359.198 327.383C359.225 328.078 360.031 328.445 360.574 328.009L371.158 319.504C371.376 319.328 371.493 319.056 371.471 318.777L370.761 309.899C370.706 309.219 369.91 308.879 369.382 309.311Z" fill="#263238" stroke="#263238" stroke-miterlimit="10" stroke-linecap="round" stroke-linejoin="round"/>
<path d="M364.729 216.426C364.416 172.484 364.416 129.12 364.729 86.1854" stroke="#263238" stroke-miterlimit="10" stroke-linecap="round" stroke-linejoin="round"/>
<path d="M364.729 312.883V216.426" stroke="white" stroke-miterlimit="10" stroke-linecap="round" stroke-linejoin="round"/>
<path d="M300.891 286.212C301.128 219.364 301.128 152.56 300.891 86.2287" stroke="#263238" stroke-miterlimit="10" stroke-linecap="round" stroke-linejoin="round"/>
<path d="M290.393 402.691C285.32 399.985 282.52 399.412 281.067 399.393C279.169 402.718 277.008 406.424 275.01 409.824C278.616 410.417 284.01 411.76 287.337 414.731C289.559 416.715 291.114 418.661 292.183 420.264C294.964 418.57 298.081 416.77 301.468 414.969C299.585 411.324 295.953 405.656 290.393 402.691Z" fill="#263238" stroke="#263238" stroke-miterlimit="10" stroke-linecap="round" stroke-linejoin="round"/>
<path d="M291.616 395.619L274.455 416.276L284.942 422.949L305.28 402.611L291.616 395.619Z" fill="#263238" stroke="#263238" stroke-miterlimit="10" stroke-linecap="round" stroke-linejoin="round"/>
<path d="M292.57 399.221L279.646 414.474L284.73 417.441L299.561 402.399L292.57 399.221Z" fill="white" stroke="#263238" stroke-miterlimit="10" stroke-linecap="round" stroke-linejoin="round"/>
<path d="M178.695 420.774C178.817 415.383 176.316 407.489 175.758 405.779C174.38 401.553 171.33 399.809 168.925 402.002C166.996 403.762 168.161 407.745 168.612 409.877C169.414 413.67 170.008 417.512 171.333 421.175C171.864 422.641 172.495 425.45 174.323 425.836C177.529 426.513 178.619 424.128 178.695 420.774Z" fill="white" stroke="#263238" stroke-miterlimit="10" stroke-linecap="round" stroke-linejoin="round"/>
<path d="M171.977 425.27C172.068 421.222 170.191 415.294 169.771 414.009C168.736 410.835 166.446 409.525 164.64 411.173C163.192 412.495 164.067 415.485 164.406 417.087C165.008 419.935 165.454 422.821 166.45 425.572C166.848 426.674 167.322 428.782 168.695 429.072C171.101 429.579 171.919 427.788 171.977 425.27Z" fill="white" stroke="#263238" stroke-miterlimit="10" stroke-linecap="round" stroke-linejoin="round"/>
<path d="M191.97 407.468C191.97 407.468 196.939 413.584 201.143 414.157C205.348 414.73 207.45 416.832 208.788 418.935C210.126 421.038 205.731 428.108 205.539 430.593C205.348 433.077 203.628 433.46 201.335 432.122C199.042 430.784 198.278 427.153 199.042 424.477C199.806 421.802 200.188 421.038 199.615 420.847C199.042 420.655 194.073 419.317 192.735 418.553C191.397 417.789 191.97 407.468 191.97 407.468Z" fill="white" stroke="#263238" stroke-miterlimit="10" stroke-linecap="round" stroke-linejoin="round"/>
<path d="M186.404 419.086C186.526 413.695 184.025 405.802 183.467 404.092C182.089 399.865 179.039 398.121 176.634 400.314C174.705 402.075 175.87 406.057 176.322 408.19C177.123 411.984 177.717 415.826 179.043 419.488C179.574 420.954 180.204 423.764 182.033 424.149C185.238 424.824 186.328 422.44 186.404 419.086Z" fill="white" stroke="#263238" stroke-miterlimit="10" stroke-linecap="round" stroke-linejoin="round"/>
<path d="M195.568 421.24C195.69 415.849 193.189 407.956 192.631 406.246C191.253 402.02 188.203 400.274 185.798 402.468C183.869 404.229 185.034 408.211 185.485 410.344C186.287 414.138 186.881 417.98 188.207 421.643C188.738 423.11 189.368 425.919 191.197 426.305C194.402 426.978 195.492 424.595 195.568 421.24Z" fill="white" stroke="#263238" stroke-miterlimit="10" stroke-linecap="round" stroke-linejoin="round"/>
<path d="M267.777 445.838C269.431 439.874 274.644 432.491 275.79 430.9C278.622 426.968 282.377 426.595 284.161 430.211C285.591 433.111 283.06 436.884 281.887 438.993C279.799 442.742 277.91 446.65 275.319 449.992C274.281 451.33 272.696 454.088 270.663 453.587C267.098 452.711 266.748 449.549 267.777 445.838Z" fill="white" stroke="#263238" stroke-miterlimit="10" stroke-linecap="round" stroke-linejoin="round"/>
<path d="M276.67 449.579C277.912 445.1 281.826 439.556 282.688 438.361C284.815 435.409 287.635 435.128 288.973 437.844C290.046 440.023 288.147 442.855 287.265 444.439C285.697 447.254 284.279 450.189 282.334 452.698C281.554 453.702 280.365 455.773 278.837 455.398C276.161 454.739 275.898 452.365 276.67 449.579Z" fill="white" stroke="#263238" stroke-miterlimit="10" stroke-linecap="round" stroke-linejoin="round"/>
<path d="M261.706 419.999C261.706 419.999 254.507 424.189 249.935 422.696C245.363 421.203 242.477 422.444 240.388 424.071C238.299 425.697 240.546 435.659 239.925 438.476C239.304 441.293 240.97 442.579 243.803 442.272C246.636 441.963 248.632 438.374 248.718 435.058C248.805 431.742 248.658 430.712 249.32 430.792C249.981 430.872 255.603 431.915 257.249 431.752C258.896 431.589 261.706 419.999 261.706 419.999Z" fill="white" stroke="#263238" stroke-miterlimit="10" stroke-linecap="round" stroke-linejoin="round"/>
<path d="M263.672 435.528C265.324 429.564 270.539 422.18 271.685 420.59C274.516 416.658 278.271 416.286 280.055 419.901C281.485 422.801 278.955 426.574 277.782 428.682C275.693 432.432 273.805 436.34 271.214 439.682C270.175 441.02 268.591 443.778 266.557 443.277C262.993 442.401 262.643 439.239 263.672 435.528Z" fill="white" stroke="#263238" stroke-miterlimit="10" stroke-linecap="round" stroke-linejoin="round"/>
<path d="M253.407 433.264C255.061 427.299 260.274 419.917 261.42 418.325C264.252 414.393 268.007 414.022 269.791 417.636C271.221 420.537 268.692 424.31 267.517 426.418C265.429 430.167 263.541 434.076 260.949 437.417C259.911 438.756 258.326 441.513 256.293 441.013C252.729 440.136 252.38 436.974 253.407 433.264Z" fill="white" stroke="#263238" stroke-miterlimit="10" stroke-linecap="round" stroke-linejoin="round"/>
<path d="M137.913 397.484L158.786 454.551L270.72 493.612L264.308 439.101L137.913 397.484Z" fill="#FFD700" stroke="#263238" stroke-miterlimit="10" stroke-linecap="round" stroke-linejoin="round"/>
<path d="M390.188 364.989H425.755" stroke="#263238" stroke-miterlimit="10" stroke-linecap="round" stroke-linejoin="round"/>
<path d="M364.783 364.989H377.202" stroke="#263238" stroke-miterlimit="10" stroke-linecap="round" stroke-linejoin="round"/>
<path d="M419.546 371.476H425.755" stroke="#263238" stroke-miterlimit="10" stroke-linecap="round" stroke-linejoin="round"/>
<path d="M402.043 371.476H414.464" stroke="#263238" stroke-miterlimit="10" stroke-linecap="round" stroke-linejoin="round"/>
<path d="M364.783 371.476H393.575" stroke="#263238" stroke-miterlimit="10" stroke-linecap="round" stroke-linejoin="round"/>
<path d="M394.14 377.963H425.755" stroke="#263238" stroke-miterlimit="10" stroke-linecap="round" stroke-linejoin="round"/>
<path d="M364.783 377.963H387.365" stroke="#263238" stroke-miterlimit="10" stroke-linecap="round" stroke-linejoin="round"/>
<path d="M412.205 384.45H425.755" stroke="#263238" stroke-miterlimit="10" stroke-linecap="round" stroke-linejoin="round"/>
<path d="M378.332 384.45H406.56" stroke="#263238" stroke-miterlimit="10" stroke-linecap="round" stroke-linejoin="round"/>
<path d="M364.783 384.45H372.122" stroke="#263238" stroke-miterlimit="10" stroke-linecap="round" stroke-linejoin="round"/>
<path d="M390.188 390.125H425.755" stroke="#263238" stroke-miterlimit="10" stroke-linecap="round" stroke-linejoin="round"/>
<path d="M364.783 390.125H377.202" stroke="#263238" stroke-miterlimit="10" stroke-linecap="round" stroke-linejoin="round"/>
<path d="M419.546 396.612H425.755" stroke="#263238" stroke-miterlimit="10" stroke-linecap="round" stroke-linejoin="round"/>
<path d="M402.043 396.612H414.464" stroke="#263238" stroke-miterlimit="10" stroke-linecap="round" stroke-linejoin="round"/>
<path d="M364.783 396.612H393.575" stroke="#263238" stroke-miterlimit="10" stroke-linecap="round" stroke-linejoin="round"/>
<path d="M394.14 403.099H425.755" stroke="#263238" stroke-miterlimit="10" stroke-linecap="round" stroke-linejoin="round"/>
<path d="M364.783 403.099H387.365" stroke="#263238" stroke-miterlimit="10" stroke-linecap="round" stroke-linejoin="round"/>
<path d="M419.546 415.282H425.755" stroke="#263238" stroke-miterlimit="10" stroke-linecap="round" stroke-linejoin="round"/>
<path d="M402.043 415.282H414.464" stroke="#263238" stroke-miterlimit="10" stroke-linecap="round" stroke-linejoin="round"/>
<path d="M364.783 415.282H393.575" stroke="#263238" stroke-miterlimit="10" stroke-linecap="round" stroke-linejoin="round"/>
<path d="M394.14 421.769H425.755" stroke="#263238" stroke-miterlimit="10" stroke-linecap="round" stroke-linejoin="round"/>
<path d="M364.783 421.769H387.365" stroke="#263238" stroke-miterlimit="10" stroke-linecap="round" stroke-linejoin="round"/>
<path d="M412.205 428.255H425.755" stroke="#263238" stroke-miterlimit="10" stroke-linecap="round" stroke-linejoin="round"/>
<path d="M378.332 428.255H406.56" stroke="#263238" stroke-miterlimit="10" stroke-linecap="round" stroke-linejoin="round"/>
<path d="M364.783 428.255H372.122" stroke="#263238" stroke-miterlimit="10" stroke-linecap="round" stroke-linejoin="round"/>
<path d="M390.188 433.931H425.755" stroke="#263238" stroke-miterlimit="10" stroke-linecap="round" stroke-linejoin="round"/>
<path d="M364.783 433.931H377.202" stroke="#263238" stroke-miterlimit="10" stroke-linecap="round" stroke-linejoin="round"/>
<path d="M419.546 440.418H425.755" stroke="#263238" stroke-miterlimit="10" stroke-linecap="round" stroke-linejoin="round"/>
<path d="M402.043 440.418H414.464" stroke="#263238" stroke-miterlimit="10" stroke-linecap="round" stroke-linejoin="round"/>
<path d="M364.783 440.418H393.575" stroke="#263238" stroke-miterlimit="10" stroke-linecap="round" stroke-linejoin="round"/>
<path d="M433.17 452.248L437.748 431.648L442.326 444.618L448.429 388.922L456.821 431.648L466.74 357.642L477.421 443.092L481.999 434.699L484.288 451.485" stroke="#263238" stroke-miterlimit="10" stroke-linecap="round" stroke-linejoin="round"/>
<path d="M369.578 352.458L395.815 326.221L415.121 343.547L431.458 328.697L455.715 347.013L481.951 319.291" stroke="#263238" stroke-miterlimit="10" stroke-linecap="round" stroke-linejoin="round"/>
<path d="M399.281 326.221C399.281 324.308 397.729 322.756 395.815 322.756C393.901 322.756 392.349 324.308 392.349 326.221C392.349 328.135 393.901 329.687 395.815 329.687C397.729 329.687 399.281 328.135 399.281 326.221Z" fill="#FFD700" stroke="#263238" stroke-miterlimit="10" stroke-linecap="round" stroke-linejoin="round"/>
<path d="M434.922 328.697C434.922 326.783 433.37 325.231 431.457 325.231C429.543 325.231 427.991 326.783 427.991 328.697C427.991 330.611 429.543 332.162 431.457 332.162C433.372 332.162 434.922 330.611 434.922 328.697Z" fill="#FFD700" stroke="#263238" stroke-miterlimit="10" stroke-linecap="round" stroke-linejoin="round"/>
<path d="M455.715 350.478C457.629 350.478 459.18 348.927 459.18 347.013C459.18 345.099 457.629 343.547 455.715 343.547C453.801 343.547 452.249 345.099 452.249 347.013C452.249 348.927 453.801 350.478 455.715 350.478Z" fill="#FFD700" stroke="#263238" stroke-miterlimit="10" stroke-linecap="round" stroke-linejoin="round"/>
<path d="M484.921 319.291C484.921 317.378 483.369 315.826 481.455 315.826C479.541 315.826 477.99 317.378 477.99 319.291C477.99 321.205 479.541 322.757 481.455 322.757C483.369 322.756 484.921 321.205 484.921 319.291Z" fill="#FFD700" stroke="#263238" stroke-miterlimit="10" stroke-linecap="round" stroke-linejoin="round"/>
<path d="M369.579 355.923C371.493 355.923 373.044 354.372 373.044 352.458C373.044 350.544 371.493 348.992 369.579 348.992C367.665 348.992 366.113 350.544 366.113 352.458C366.113 354.372 367.665 355.923 369.579 355.923Z" fill="#FFD700" stroke="#263238" stroke-miterlimit="10" stroke-linecap="round" stroke-linejoin="round"/>
<path d="M415.121 346.023C417.035 346.023 418.587 344.472 418.587 342.558C418.587 340.644 417.035 339.092 415.121 339.092C413.207 339.092 411.656 340.644 411.656 342.558C411.656 344.472 413.207 346.023 415.121 346.023Z" fill="#FFD700" stroke="#263238" stroke-miterlimit="10" stroke-linecap="round" stroke-linejoin="round"/>
<path d="M181.605 239.179L191.795 233.296" stroke="#263238" stroke-miterlimit="10" stroke-linecap="round" stroke-linejoin="round"/>
<path d="M131.882 233.296V267.888L161.838 285.184L191.795 267.888V233.296L161.838 216L131.882 233.296Z" stroke="#263238" stroke-miterlimit="10" stroke-linecap="round" stroke-linejoin="round"/>
<path d="M142.072 239.179V262.004L161.838 273.416L181.605 262.004V239.179L161.838 227.768L142.072 239.179Z" stroke="#263238" stroke-miterlimit="10" stroke-linecap="round" stroke-linejoin="round"/>
<path d="M161.838 216V190.303" stroke="#263238" stroke-miterlimit="10" stroke-linecap="round" stroke-linejoin="round"/>
<path d="M161.838 194.086C164.63 194.086 166.893 191.822 166.893 189.031C166.893 186.239 164.63 183.976 161.838 183.976C159.046 183.976 156.783 186.239 156.783 189.031C156.783 191.822 159.046 194.086 161.838 194.086Z" fill="#FFD700" stroke="#263238" stroke-miterlimit="10" stroke-linecap="round" stroke-linejoin="round"/>
<path d="M161.838 284.451V310.149" stroke="#263238" stroke-miterlimit="10" stroke-linecap="round" stroke-linejoin="round"/>
<path d="M156.784 311.422C156.784 314.213 159.047 316.475 161.839 316.475C164.631 316.475 166.894 314.212 166.894 311.422C166.894 308.63 164.631 306.367 161.839 306.367C159.047 306.367 156.784 308.63 156.784 311.422Z" fill="#FFD700" stroke="#263238" stroke-miterlimit="10" stroke-linecap="round" stroke-linejoin="round"/>
<path d="M142.072 239.179L131.882 233.296" stroke="#263238" stroke-miterlimit="10" stroke-linecap="round" stroke-linejoin="round"/>
<path d="M142.932 262.175L162.698 250.762L181.605 262.004" stroke="#263238" stroke-miterlimit="10" stroke-linecap="round" stroke-linejoin="round"/>
<path d="M162.698 250.762V227.768" stroke="#263238" stroke-miterlimit="10" stroke-linecap="round" stroke-linejoin="round"/>
<path d="M223.398 138.741H236.948" stroke="#263238" stroke-miterlimit="10" stroke-linecap="round" stroke-linejoin="round"/>
<path d="M189.524 138.741H217.753" stroke="#263238" stroke-miterlimit="10" stroke-linecap="round" stroke-linejoin="round"/>
<path d="M175.975 138.741H183.315" stroke="#263238" stroke-miterlimit="10" stroke-linecap="round" stroke-linejoin="round"/>
<path d="M201.38 144.417H236.948" stroke="#263238" stroke-miterlimit="10" stroke-linecap="round" stroke-linejoin="round"/>
<path d="M175.975 144.417H188.396" stroke="#263238" stroke-miterlimit="10" stroke-linecap="round" stroke-linejoin="round"/>
<path d="M230.738 150.904H236.948" stroke="#263238" stroke-miterlimit="10" stroke-linecap="round" stroke-linejoin="round"/>
<path d="M213.236 150.904H225.657" stroke="#263238" stroke-miterlimit="10" stroke-linecap="round" stroke-linejoin="round"/>
<path d="M175.975 150.904H204.768" stroke="#263238" stroke-miterlimit="10" stroke-linecap="round" stroke-linejoin="round"/>
<path d="M205.332 157.39H236.948" stroke="#263238" stroke-miterlimit="10" stroke-linecap="round" stroke-linejoin="round"/>
<path d="M175.975 157.39H198.558" stroke="#263238" stroke-miterlimit="10" stroke-linecap="round" stroke-linejoin="round"/>
<path d="M223.398 163.877H236.948" stroke="#263238" stroke-miterlimit="10" stroke-linecap="round" stroke-linejoin="round"/>
<path d="M189.524 163.877H217.753" stroke="#263238" stroke-miterlimit="10" stroke-linecap="round" stroke-linejoin="round"/>
<path d="M175.975 163.877H183.315" stroke="#263238" stroke-miterlimit="10" stroke-linecap="round" stroke-linejoin="round"/>
<path d="M201.38 169.553H236.948" stroke="#263238" stroke-miterlimit="10" stroke-linecap="round" stroke-linejoin="round"/>
<path d="M175.975 169.553H188.396" stroke="#263238" stroke-miterlimit="10" stroke-linecap="round" stroke-linejoin="round"/>
<path d="M230.738 176.04H236.948" stroke="#263238" stroke-miterlimit="10" stroke-linecap="round" stroke-linejoin="round"/>
<path d="M213.236 176.04H225.657" stroke="#263238" stroke-miterlimit="10" stroke-linecap="round" stroke-linejoin="round"/>
<path d="M175.975 176.04H204.768" stroke="#263238" stroke-miterlimit="10" stroke-linecap="round" stroke-linejoin="round"/>
<path d="M205.332 182.526H236.948" stroke="#263238" stroke-miterlimit="10" stroke-linecap="round" stroke-linejoin="round"/>
<path d="M175.975 182.526H198.558" stroke="#263238" stroke-miterlimit="10" stroke-linecap="round" stroke-linejoin="round"/>
<path d="M223.398 189.013H236.948" stroke="#263238" stroke-miterlimit="10" stroke-linecap="round" stroke-linejoin="round"/>
<path d="M189.524 189.013H217.753" stroke="#263238" stroke-miterlimit="10" stroke-linecap="round" stroke-linejoin="round"/>
<path d="M175.975 189.013H183.315" stroke="#263238" stroke-miterlimit="10" stroke-linecap="round" stroke-linejoin="round"/>
<path d="M201.38 194.689H236.948" stroke="#263238" stroke-miterlimit="10" stroke-linecap="round" stroke-linejoin="round"/>
<path d="M175.975 194.689H188.396" stroke="#263238" stroke-miterlimit="10" stroke-linecap="round" stroke-linejoin="round"/>
<path d="M236.948 201.176H230.738" stroke="#263238" stroke-miterlimit="10" stroke-linecap="round" stroke-linejoin="round"/>
<path d="M213.236 201.176H225.657" stroke="#263238" stroke-miterlimit="10" stroke-linecap="round" stroke-linejoin="round"/>
<path d="M175.975 201.176H204.768" stroke="#263238" stroke-miterlimit="10" stroke-linecap="round" stroke-linejoin="round"/>
<path d="M205.332 207.662H236.948" stroke="#263238" stroke-miterlimit="10" stroke-linecap="round" stroke-linejoin="round"/>
<path d="M175.975 207.662H198.558" stroke="#263238" stroke-miterlimit="10" stroke-linecap="round" stroke-linejoin="round"/>
<path d="M223.398 214.149H236.948" stroke="#263238" stroke-miterlimit="10" stroke-linecap="round" stroke-linejoin="round"/>
<path d="M189.524 214.149H217.753" stroke="#263238" stroke-miterlimit="10" stroke-linecap="round" stroke-linejoin="round"/>
<path d="M175.975 214.149H183.315" stroke="#263238" stroke-miterlimit="10" stroke-linecap="round" stroke-linejoin="round"/>
</svg>
