<svg width="55" height="94" viewBox="0 0 55 94" fill="none" xmlns="http://www.w3.org/2000/svg">
<path d="M13.3762 72.146L11.5579 69.9255L16.0065 73.6652L12.0917 66.7545L18.9427 74.397L12.5366 63.8276L22.057 74.56L13.1593 60.9822L25.4381 75.2917L13.782 58.2993L28.1964 74.8851L14.6718 55.2099L31.2219 75.0477L15.3327 52.1266L33.6242 75.1292L16.6674 49.3622L36.3285 74.6959L17.4683 46.8419L38.8738 74.2344L18.6504 44.6882L41.0196 72.7743L20.2006 43.1856L42.5654 70.6206L24.2816 44.559L43.3209 66.775L27.396 45.2092L43.0543 62.3846L30.3321 45.1282L42.3833 57.3402L32.8233 44.4775L41.2761 53.2583L34.6918 43.5832L39.7636 48.1361L36.2043 43.0955L38.34 44.2339L36.8275 42.4448" stroke="#FFD700" stroke-width="3" stroke-miterlimit="10" stroke-linecap="round" stroke-linejoin="round"/>
<path d="M37.2584 75.6523C37.8212 80.4288 39.1052 84.9651 40.0167 89.6758C40.651 89.5166 41.1616 89.3469 41.6862 89.2663C42.564 89.1309 43.4499 88.9746 44.333 88.9717C45.274 88.9684 45.8841 89.5128 45.8812 90.1463C45.8788 90.7393 45.3474 91.227 44.4344 91.3438C42.9591 91.5325 41.4877 91.4482 40.0293 91.1407C39.5211 91.0334 39.3032 90.7336 39.1984 90.2426C38.7588 88.188 38.2467 86.1482 37.8366 84.0884C37.327 81.53 36.8922 78.9572 36.4241 76.3907C36.4004 76.261 36.3657 76.1333 36.3125 75.9016C30.961 77.0957 25.6221 77.0681 20.1668 75.9149C20.0764 76.2386 19.9677 76.5456 19.9059 76.8612C19.1151 80.8855 18.3122 84.9079 17.5606 88.9393C17.4041 89.7773 17.0833 90.643 17.5263 91.5201C17.5823 91.6317 17.3693 91.9697 17.1992 92.0831C15.8022 93.016 14.2617 93.3588 12.5936 93.0608C12.3642 93.0198 12.1284 92.9207 11.9352 92.791C11.2352 92.321 11.2376 91.5402 11.9917 91.1726C12.47 90.9395 13.0337 90.8142 13.5694 90.776C14.4501 90.7126 15.3389 90.7588 16.1882 90.7588C17.1828 85.7297 18.1664 80.7563 19.1649 75.7071C18.8311 75.5879 18.4794 75.4764 18.1388 75.3386C16.9017 74.839 15.6409 74.3847 14.4433 73.8055C13.681 73.4371 12.9946 72.9022 12.3077 72.3969C11.2575 71.6246 10.7807 70.6498 10.7903 69.2726C10.8188 65.2035 11.428 61.2383 12.5989 57.3499C13.1955 55.3692 13.8018 53.3895 14.4815 51.436C14.9588 50.0631 15.5669 48.7345 16.1524 47.2992C15.4563 46.3329 14.7414 45.2589 13.9448 44.2474C10.3097 39.6334 7.23683 34.6553 4.15434 29.6804C3.84083 29.1742 3.4022 28.7127 2.93506 28.3357C2.05539 27.6254 1.42739 26.7659 1.0506 25.72C0.959778 25.4678 0.896982 25.1976 0.87621 24.9316C0.820656 24.2108 1.0907 23.7041 1.6042 23.4953C2.1124 23.2889 2.894 23.4776 3.24761 24.0287C3.62828 24.6222 3.91329 25.2838 4.17415 25.9412C4.32197 26.313 4.41955 26.7401 4.39636 27.1349C4.33743 28.1564 4.84224 28.9549 5.34464 29.76C8.29911 34.4937 11.2531 39.2268 14.6704 43.6587C15.3525 44.5434 15.965 45.4806 16.6698 46.4793C17.4833 45.1283 18.2321 43.8851 19.0074 42.597C18.7987 42.4464 18.5871 42.2824 18.3639 42.1351C10.7198 37.0959 9.25463 27.1506 15.2148 20.2041C19.0977 15.6788 24.1526 13.5404 30.1176 14.11C36.4096 14.7111 41.206 17.7916 43.4862 23.7775C45.7199 29.6413 44.2025 34.9036 39.9892 39.4637C39.3235 40.184 38.539 40.7975 37.8067 41.463C38.7409 43.2735 39.6699 45.073 40.622 46.9183C40.7539 46.7286 40.8843 46.5727 40.979 46.3982C43.2615 42.1852 45.5566 37.9788 47.8101 33.751C48.4966 32.4634 49.0507 31.1077 49.6956 29.7972C50.14 28.8939 50.3332 27.9533 50.3622 26.9537C50.396 25.7829 50.698 24.6708 51.3965 23.7031C51.611 23.4061 51.8781 23.1125 52.1882 22.9237C52.8983 22.4913 53.837 22.8765 53.9297 23.6898C53.992 24.2332 53.9055 24.8605 53.6732 25.353C53.3597 26.0165 52.8838 26.6215 52.4013 27.1878C51.7085 28.0001 51.1612 28.8791 50.7202 29.8482C48.7773 34.1147 46.7445 38.3368 44.3151 42.3625C43.261 44.1091 42.305 45.9125 41.2626 47.6663C41.0148 48.0834 41.107 48.4128 41.2171 48.8132C41.9891 51.6238 42.8707 54.4135 43.4707 57.2603C44.3851 61.5992 44.5228 65.9996 44.0272 70.4138C43.9398 71.1913 43.6354 71.8406 43.0987 72.4017C42.0157 73.5343 40.6838 74.2923 39.2477 74.8886C38.6182 75.1494 37.9753 75.3777 37.2584 75.6523ZM36.9453 41.995C36.5135 42.2305 36.2164 42.3964 35.9159 42.5556C32.717 44.2498 29.3273 45.0053 25.6922 44.6306C23.9695 44.4533 22.3179 44.0429 20.7252 43.3788C19.8938 43.0323 19.8286 43.0604 19.3238 43.8226C19.2301 43.9642 19.1427 44.1106 19.0562 44.2569C17.3079 47.2196 15.7152 50.2509 14.7877 53.5811C14.5423 54.4621 14.2448 55.3292 13.966 56.2011C12.5743 60.5567 11.6879 64.9871 11.7975 69.5844C11.8164 70.3685 12.0574 70.9182 12.6419 71.423C14.1979 72.7668 16.0114 73.6339 17.9485 74.2575C23.1043 75.9178 28.3722 76.24 33.7141 75.4115C35.9251 75.0688 38.0979 74.5273 40.0578 73.4199C40.9099 72.938 41.665 72.2792 42.4292 71.6585C42.8021 71.3558 43.0079 70.9382 43.0374 70.4181C43.1055 69.2021 43.2963 67.9908 43.3224 66.7752C43.4238 62.0335 42.7403 57.3952 41.4254 52.8322C40.4655 49.5011 39.4114 46.2152 37.6757 43.1824C37.4579 42.8044 37.2188 42.4388 36.9453 41.995ZM43.4823 29.0774C43.4369 24.8815 41.9485 21.5198 38.9651 18.8551C35.9777 16.1865 32.4204 14.95 28.394 15.0501C23.1768 15.1802 18.8504 17.1728 15.6249 21.2443C9.63867 28.8 12.6709 39.427 21.7826 42.7358C27.4056 44.7775 32.7064 43.8922 37.4661 40.3694C41.3109 37.5245 43.3533 33.6537 43.4823 29.0774ZM1.75202 24.3638C1.8554 25.6943 2.38291 26.6133 3.30703 27.4676C3.3964 25.9584 2.84667 24.7638 1.75202 24.3638ZM52.8452 23.5992C51.7114 24.4563 51.4762 25.5732 51.2549 26.7759C52.4781 25.9503 53.1138 24.7623 52.8452 23.5992ZM44.6842 90.0877C43.6692 89.8584 42.677 89.8455 41.7345 90.3298C42.7374 90.4838 43.7398 90.6659 44.6842 90.0877ZM12.7125 92.0226C13.6395 92.2366 14.5443 92.2657 15.3805 91.7623C14.4622 91.5573 13.5641 91.5483 12.7125 92.0226Z" fill="black"/>
<path d="M18.0818 11.8639C18.0987 11.945 17.9108 12.1399 17.7934 12.3206C17.6021 12.1733 17.2934 12.0594 17.2393 11.873C17.0128 11.095 16.8741 10.2927 16.6823 9.5038C16.2669 7.79531 15.8297 6.09159 15.4239 4.38119C15.3481 4.06085 15.3148 3.70333 15.3819 3.38823C15.4152 3.23092 15.7065 3.08505 15.9089 3.02451C15.9973 2.99829 16.2432 3.18134 16.2688 3.30052C16.8794 6.10636 17.4712 8.9165 18.0818 11.8639Z" fill="black"/>
<path d="M47.8212 6.19045C47.6497 6.44358 47.5029 6.70338 47.3154 6.92981C45.9285 8.60207 44.5315 10.2657 43.1426 11.9361C42.8388 12.3017 42.5581 12.6855 42.2639 13.0587C42.0722 13.3023 41.8461 13.6088 41.5137 13.3738C41.1311 13.1031 41.3693 12.7689 41.5809 12.4967C42.7253 11.0223 43.8639 9.54307 45.03 8.08533C45.602 7.37028 46.2111 6.68145 46.8454 6.01932C46.9918 5.86677 47.3067 5.84866 47.5497 5.82387C47.6135 5.81767 47.6985 6.01884 47.8212 6.19045Z" fill="black"/>
<path d="M31.2847 1.98994C30.9823 4.40109 30.6808 6.81223 30.377 9.22289C30.3601 9.35541 30.3582 9.51225 30.2847 9.60997C30.1925 9.73248 29.9963 9.90743 29.9103 9.8774C29.7504 9.82162 29.5785 9.65478 29.5215 9.49556C29.4577 9.31775 29.5026 9.09609 29.5244 8.89635C29.7843 6.51429 30.0417 4.13175 30.319 1.7516C30.362 1.38358 30.2582 0.789618 30.8494 0.834427C31.5233 0.884958 31.2195 1.49179 31.262 1.88555C31.2654 1.91844 31.2571 1.95276 31.2542 1.98661C31.2639 1.98756 31.2741 1.98851 31.2847 1.98994Z" fill="black"/>
<path d="M54.7302 15.5917C54.578 15.7504 54.3954 15.9855 54.1693 16.168C52.8969 17.1934 51.6138 18.2064 50.3351 19.2237C49.9888 19.4992 49.6487 19.7828 49.2956 20.0493C49.1352 20.1704 48.9574 20.3239 48.7739 20.3458C48.6077 20.3658 48.3777 20.2667 48.2618 20.1423C48.1879 20.0631 48.2232 19.8133 48.2961 19.6904C48.3956 19.523 48.5686 19.3915 48.727 19.2651C50.3501 17.9695 51.9757 16.6767 53.6051 15.3886C53.7626 15.2642 53.9365 15.1312 54.1244 15.0793C54.435 14.9934 54.6519 15.1307 54.7302 15.5917Z" fill="black"/>
<path d="M4.36592 11.4419C4.49104 11.5287 4.70649 11.6345 4.86445 11.7951C6.26826 13.2247 7.66289 14.6629 9.05704 16.1021C9.17395 16.2227 9.32563 16.3547 9.35461 16.502C9.38891 16.6756 9.37008 16.943 9.25849 17.0374C9.14593 17.1332 8.86285 17.1294 8.70826 17.0574C8.50247 16.9611 8.33823 16.7657 8.1735 16.5964C6.86969 15.2593 5.56877 13.9188 4.27027 12.5764C4.1297 12.4315 3.97657 12.2837 3.8872 12.1083C3.72875 11.797 3.94227 11.4533 4.36592 11.4419Z" fill="black"/>
<path d="M28.6152 35.3131C26.5511 35.2978 25.041 34.5851 23.8154 33.2814C22.6343 32.0248 21.986 30.5127 21.7353 28.829C21.701 28.5978 21.6841 28.349 21.7319 28.1235C21.8165 27.7236 22.2512 27.5333 22.6145 27.7307C22.7889 27.8256 22.9242 27.9929 23.071 28.1335C26.2187 31.14 30.7055 31.3455 34.1107 28.6383C34.1909 28.5745 34.2682 28.5072 34.3474 28.4419C34.6339 28.2069 34.9203 27.8561 35.3271 28.1421C35.7203 28.4186 35.5179 28.8252 35.3995 29.1675C35.1778 29.8067 34.9725 30.4593 34.6701 31.0623C33.9054 32.5887 32.7842 33.8005 31.2407 34.6033C30.3442 35.0699 29.3862 35.3016 28.6152 35.3131ZM23.0406 29.4931C23.1043 31.7516 25.5076 34.1151 27.8921 34.3392C30.4012 34.5751 33.2977 32.5601 33.902 30.0332C30.1326 32.1597 26.5226 31.9857 23.0406 29.4931Z" fill="black"/>
<path d="M32.6933 24.2637C32.7136 23.5806 33.2238 23.0043 33.7865 23.0286C34.3967 23.0548 34.9329 23.6302 34.9184 24.2427C34.9015 24.9454 34.3503 25.5446 33.7377 25.5274C33.1291 25.5098 32.6726 24.9573 32.6933 24.2637Z" fill="black"/>
<path d="M24.7144 24.2003C24.7308 24.871 24.2603 25.3892 23.614 25.4121C23.0473 25.4321 22.6319 24.9578 22.599 24.2528C22.5672 23.5749 23.029 23.001 23.627 22.9743C24.2115 22.9485 24.697 23.4962 24.7144 24.2003Z" fill="black"/>
</svg>
