<svg width="335" height="293" viewBox="0 0 335 293" fill="none" xmlns="http://www.w3.org/2000/svg">
<path d="M305.888 122.538C273.233 73.6192 184.652 91.041 166.562 67.2494C157.296 55.084 146.931 40.9438 131.896 33.6012C117.565 26.5692 100.949 24.1022 86.4635 25.028C34.7328 28.3389 12.8037 68.8198 22.7398 113.274C36.0058 172.571 96.1048 233.146 167.5 233.568C204.846 233.814 240.53 222.094 268.469 205.61L269.092 205.241C297.031 188.604 330.826 159.884 305.888 122.538Z" fill="#FFDF31"/>
<path opacity="0.7" d="M305.888 122.538C273.233 73.6192 184.652 91.041 166.562 67.2494C157.296 55.084 146.931 40.9438 131.896 33.6012C117.565 26.5692 100.949 24.1022 86.4635 25.028C34.7328 28.3389 12.8037 68.8198 22.7398 113.274C36.0058 172.571 96.1048 233.146 167.5 233.568C204.846 233.814 240.53 222.094 268.469 205.61L269.092 205.241C297.031 188.604 330.826 159.884 305.888 122.538Z" fill="white"/>
<path d="M52.3873 126.095H48.7559C44.859 126.095 41.1218 127.449 38.3663 129.859C35.6108 132.269 34.0628 135.538 34.0628 138.946V209.466C34.0628 212.874 35.6108 216.143 38.3663 218.553C41.1218 220.963 44.859 222.317 48.7559 222.317H98.5771C102.474 222.317 106.211 220.963 108.967 218.553C111.722 216.143 113.27 212.874 113.27 209.466" stroke="#263238" stroke-width="1.10311" stroke-linecap="round" stroke-linejoin="round" stroke-dasharray="4.41 4.41"/>
<path d="M109.21 59.5552V45.626C109.21 43.5418 110.155 41.5427 111.838 40.0673C113.522 38.5918 115.805 37.7606 118.188 37.756H182.977C185.363 37.756 187.652 38.5851 189.34 40.061C191.027 41.537 191.975 43.5387 191.975 45.626" stroke="#263238" stroke-width="1.10311" stroke-linecap="round" stroke-linejoin="round" stroke-dasharray="4.41 4.41"/>
<path d="M167.5 276.686C238.368 276.686 295.818 269.665 295.818 261.004C295.818 252.344 238.368 245.323 167.5 245.323C96.6317 245.323 39.1816 252.344 39.1816 261.004C39.1816 269.665 96.6317 276.686 167.5 276.686Z" fill="#FFDF31"/>
<path opacity="0.5" d="M167.5 276.686C238.368 276.686 295.818 269.665 295.818 261.004C295.818 252.344 238.368 245.323 167.5 245.323C96.6317 245.323 39.1816 252.344 39.1816 261.004C39.1816 269.665 96.6317 276.686 167.5 276.686Z" fill="white"/>
<path d="M288.462 78.2427V183.758C288.462 187.207 286.896 190.515 284.108 192.955C281.32 195.394 277.538 196.766 273.595 196.767H61.4055C57.4618 196.766 53.6803 195.394 50.8923 192.955C48.1044 190.515 46.5382 187.207 46.5382 183.758V78.2427C46.5382 77.9321 46.5382 77.6567 46.5851 77.3286C46.8463 74.0462 48.5211 70.9727 51.2716 68.728C54.0221 66.4833 57.6436 65.2345 61.4055 65.2335H273.595C277.361 65.2349 280.986 66.4869 283.737 68.7366C286.488 70.9862 288.16 74.0655 288.415 77.352C288.448 77.6333 288.462 77.938 288.462 78.2427Z" fill="white" stroke="#263238" stroke-width="1.10311" stroke-linecap="round" stroke-linejoin="round"/>
<path d="M53.7742 82.2041H281.983V179.673C281.983 182.906 280.515 186.006 277.901 188.292C275.288 190.578 271.743 191.862 268.047 191.862H67.7169C64.0208 191.862 60.4762 190.578 57.8627 188.292C55.2492 186.006 53.7809 182.906 53.7809 179.673V82.2041H53.7742Z" fill="#263238"/>
<path opacity="0.2" d="M281.99 82.2041V179.673C282.009 182.888 280.568 185.978 277.984 188.264C275.4 190.549 271.883 191.844 268.208 191.862H67.5561C63.8807 191.844 60.3643 190.549 57.7798 188.264C55.1954 185.978 53.7546 182.888 53.7742 179.673V82.2041H281.99Z" fill="white"/>
<path d="M288.415 77.352H46.5851C46.8463 74.0697 48.5211 70.9961 51.2716 68.7514C54.0221 66.5067 57.6436 65.2579 61.4055 65.257H273.595C277.356 65.2579 280.978 66.5067 283.728 68.7514C286.479 70.9961 288.154 74.0697 288.415 77.352Z" fill="#FFDF31" stroke="#263238" stroke-width="1.10311" stroke-miterlimit="10"/>
<path d="M76.2996 71.281C76.2996 71.7365 76.1452 72.1818 75.8558 72.5605C75.5665 72.9392 75.1553 73.2344 74.6741 73.4087C74.193 73.583 73.6636 73.6286 73.1528 73.5397C72.642 73.4509 72.1729 73.2315 71.8046 72.9095C71.4364 72.5874 71.1856 72.177 71.084 71.7303C70.9824 71.2836 71.0345 70.8205 71.2338 70.3997C71.4331 69.9789 71.7706 69.6192 72.2036 69.3661C72.6366 69.1131 73.1457 68.978 73.6665 68.978C74.3648 68.978 75.0346 69.2207 75.5284 69.6526C76.0222 70.0844 76.2996 70.6702 76.2996 71.281Z" fill="#263238"/>
<path d="M87.435 71.281C87.435 71.7365 87.2806 72.1818 86.9912 72.5605C86.7019 72.9392 86.2907 73.2344 85.8095 73.4087C85.3284 73.583 84.799 73.6286 84.2882 73.5397C83.7774 73.4509 83.3083 73.2315 82.94 72.9095C82.5718 72.5874 82.321 72.177 82.2194 71.7303C82.1178 71.2836 82.1699 70.8205 82.3692 70.3997C82.5685 69.9789 82.906 69.6192 83.339 69.3661C83.772 69.1131 84.2811 68.978 84.8019 68.978C85.5002 68.978 86.17 69.2207 86.6638 69.6526C87.1576 70.0844 87.435 70.6702 87.435 71.281Z" fill="#263238"/>
<path d="M95.9373 73.584C97.3915 73.584 98.5704 72.5529 98.5704 71.281C98.5704 70.0091 97.3915 68.978 95.9373 68.978C94.4831 68.978 93.3042 70.0091 93.3042 71.281C93.3042 72.5529 94.4831 73.584 95.9373 73.584Z" fill="#263238"/>
<path d="M281.983 82.2041V179.673C281.983 182.906 280.515 186.006 277.901 188.292C275.288 190.578 271.743 191.862 268.047 191.862H67.7169C64.4911 191.862 61.3654 190.882 58.8729 189.091C56.3804 187.3 54.6755 184.809 54.0489 182.041V182.006C53.8786 181.233 53.7933 180.448 53.7943 179.662V82.2041H281.983Z" stroke="#263238" stroke-width="1.10311" stroke-miterlimit="10"/>
<path d="M281.768 97.276C280.791 96.7962 279.752 96.4204 278.673 96.1568L277.42 91.2637H272.1L270.861 96.1568C269.776 96.4157 268.731 96.7917 267.752 97.276L262.948 94.5863L259.19 97.862L262.211 102.064C261.658 102.92 261.228 103.834 260.932 104.783L255.337 105.867V110.52L260.932 111.615C261.225 112.569 261.655 113.487 262.211 114.346L259.136 118.577L262.901 121.865L267.732 119.175C268.709 119.66 269.751 120.038 270.834 120.3L272.08 125.187H277.38L278.626 120.3C279.706 120.035 280.745 119.658 281.722 119.175L281.97 119.315V97.1588L281.768 97.276ZM274.774 114.27C273.414 114.27 272.085 113.917 270.954 113.256C269.823 112.595 268.942 111.656 268.422 110.557C267.902 109.458 267.766 108.249 268.032 107.083C268.298 105.916 268.953 104.845 269.915 104.004C270.877 103.164 272.103 102.591 273.437 102.36C274.771 102.129 276.153 102.249 277.409 102.705C278.665 103.161 279.738 103.932 280.493 104.922C281.247 105.911 281.649 107.074 281.648 108.264C281.648 109.053 281.47 109.834 281.125 110.563C280.779 111.293 280.273 111.955 279.634 112.513C278.996 113.071 278.238 113.513 277.404 113.814C276.57 114.116 275.676 114.271 274.774 114.27Z" fill="#263238"/>
<path d="M185.892 101.993V92.1837L174.1 89.8924C173.463 87.8995 172.564 85.9782 171.42 84.1672L172.847 82.2041H117.17L118.543 84.1145C117.385 85.9175 116.485 87.8384 115.863 89.8338L104.064 92.1309V101.964L115.863 104.267C116.485 106.277 117.385 108.214 118.543 110.033L112.064 118.946L120.004 125.885L130.188 120.212C132.254 121.229 134.451 122.025 136.734 122.585L139.36 132.87H150.549L153.189 122.562C155.464 121.999 157.654 121.203 159.715 120.189L169.905 125.861L177.838 118.923L171.399 110.01C172.541 108.202 173.44 106.285 174.079 104.296L185.892 101.993ZM145.022 109.764C142.155 109.764 139.353 109.02 136.97 107.628C134.587 106.235 132.729 104.255 131.633 101.939C130.536 99.623 130.249 97.0744 130.808 94.6157C131.367 92.1569 132.747 89.8985 134.774 88.1258C136.801 86.3531 139.383 85.146 142.194 84.6569C145.005 84.1678 147.919 84.4188 150.567 85.3782C153.215 86.3375 155.479 87.9621 157.071 90.0465C158.664 92.131 159.514 94.5816 159.514 97.0885C159.514 98.7532 159.14 100.402 158.412 101.94C157.684 103.478 156.617 104.876 155.271 106.053C153.925 107.23 152.327 108.164 150.568 108.8C148.81 109.437 146.925 109.764 145.022 109.764Z" fill="#263238"/>
<path d="M111.475 169.354L111.95 161.566L102.724 159.292C102.296 157.692 101.662 156.139 100.835 154.663L106.409 147.818L100.433 142.023L92.0848 146.125C90.4891 145.247 88.7827 144.533 86.9995 143.998L85.4049 135.723L76.5073 135.366L73.9345 143.459C72.1014 143.818 70.3243 144.369 68.6415 145.099L60.8226 140.23L54.1829 145.451L58.9131 152.758C57.899 154.148 57.0802 155.639 56.4743 157.2L53.7943 157.587V168.135L55.7507 168.616C56.1566 170.221 56.7843 171.778 57.62 173.251L53.7742 177.968L54.0288 182.006V182.041L58.0019 185.891L66.3635 181.76C67.9564 182.656 69.6687 183.378 71.4622 183.91L73.03 191.856L73.1037 192.19L82.0013 192.601L82.2358 191.856L84.5741 184.514C86.4155 184.153 88.2013 183.602 89.8939 182.873L97.6994 187.737L104.332 182.521L99.6424 175.208C100.647 173.82 101.455 172.331 102.048 170.772L111.475 169.354ZM87.8437 157.194C86.3196 155.712 84.3269 154.658 82.1177 154.166C79.9086 153.674 77.5822 153.766 75.4329 154.43C73.2836 155.095 71.4079 156.302 70.0432 157.899C68.6784 159.496 67.8859 161.411 67.7659 163.403C67.6459 165.394 68.2037 167.371 69.3689 169.085C70.5341 170.799 72.2543 172.172 74.3118 173.03C76.3693 173.889 78.6717 174.194 80.9278 173.908C83.1838 173.622 85.2922 172.757 86.9861 171.423C89.2478 169.635 90.6079 167.137 90.7686 164.475C90.9293 161.813 89.8776 159.203 87.8437 157.218V157.194Z" fill="#263238"/>
<path d="M182.642 157.745C182.986 156.539 183.168 155.302 183.185 154.059L189.583 151.129L187.814 145.451L180.592 145.744C179.86 144.683 178.99 143.7 177.999 142.814L180.136 136.772L174.307 133.842L169.43 138.495C168.053 138.205 166.644 138.047 165.229 138.026L161.879 132.43L155.393 133.971L155.735 140.294C154.521 140.934 153.397 141.695 152.385 142.562L145.47 140.693L142.12 145.785L147.48 150.045C147.134 151.247 146.956 152.481 146.951 153.72L140.539 156.65L142.308 162.322L149.544 162.023C150.261 163.09 151.128 164.074 152.123 164.953L149.973 170.966L155.808 173.896L160.659 169.278C162.037 169.581 163.453 169.737 164.874 169.741L168.224 175.343L174.709 173.802L174.421 168.399L174.374 167.473C175.605 166.839 176.743 166.078 177.764 165.205L184.672 167.08L187.526 162.721L188.009 161.982L182.642 157.745ZM167.319 161.191C165.656 161.592 163.894 161.552 162.257 161.076C160.619 160.601 159.181 159.71 158.123 158.518C157.065 157.326 156.436 155.886 156.315 154.381C156.194 152.876 156.587 151.373 157.444 150.063C158.301 148.753 159.583 147.696 161.129 147.025C162.674 146.353 164.412 146.098 166.123 146.292C167.834 146.486 169.44 147.12 170.739 148.114C172.037 149.108 172.969 150.416 173.416 151.874C174.012 153.816 173.705 155.886 172.563 157.631C171.421 159.377 169.536 160.656 167.319 161.191Z" fill="#263238"/>
<path d="M256.824 167.731L258.298 159.937L249.28 156.767C249.076 155.106 248.641 153.473 247.987 151.903L254.479 145.58L249.227 139.134L240.275 142.457C238.789 141.415 237.165 140.533 235.438 139.831L234.915 131.34L226.004 130.051L222.353 137.903C220.462 138.098 218.603 138.481 216.812 139.046L209.563 133.368L202.226 137.962L206.032 145.785C204.984 146.929 204.075 148.164 203.318 149.471C203.218 149.653 203.111 149.834 203.017 150.016L193.315 150.485L191.834 158.267L193.295 158.783L200.853 161.449C201.059 163.102 201.493 164.727 202.146 166.289L195.64 172.653L200.9 179.099L209.844 175.759C211.325 176.81 212.947 177.7 214.675 178.408L215.177 186.858L224.082 188.147L227.726 180.353C229.621 180.172 231.484 179.79 233.274 179.216L240.51 184.895L247.88 180.295L244.074 172.466C245.287 171.165 246.311 169.738 247.123 168.217L256.824 167.731ZM231.833 167.379C229.959 168.556 227.727 169.219 225.421 169.286C223.115 169.354 220.839 168.821 218.879 167.756C216.919 166.692 215.364 165.142 214.411 163.305C213.457 161.467 213.149 159.423 213.524 157.432C213.899 155.441 214.94 153.592 216.517 152.118C218.093 150.645 220.134 149.614 222.381 149.155C224.628 148.696 226.98 148.83 229.139 149.54C231.299 150.251 233.169 151.505 234.513 153.145C236.314 155.345 237.042 158.081 236.537 160.75C236.032 163.419 234.335 165.804 231.82 167.379H231.833Z" fill="#263238"/>
<path d="M136.064 110.033H65.995C61.1439 110.033 57.2113 113.473 57.2113 117.716V202.563C57.2113 206.806 61.1439 210.245 65.995 210.245H136.064C140.915 210.245 144.847 206.806 144.847 202.563V117.716C144.847 113.473 140.915 110.033 136.064 110.033Z" fill="#FFDF31" stroke="#263238" stroke-width="1.10311" stroke-miterlimit="10"/>
<path opacity="0.2" d="M136.064 110.033H65.995C61.1439 110.033 57.2113 113.473 57.2113 117.716V202.563C57.2113 206.806 61.1439 210.245 65.995 210.245H136.064C140.915 210.245 144.847 206.806 144.847 202.563V117.716C144.847 113.473 140.915 110.033 136.064 110.033Z" fill="black"/>
<path d="M153.001 125.287V210.134C153.002 211.143 152.776 212.143 152.335 213.075C151.893 214.008 151.247 214.856 150.431 215.57C149.615 216.284 148.647 216.85 147.58 217.237C146.514 217.623 145.372 217.822 144.218 217.822H74.1489C72.9954 217.821 71.8534 217.622 70.788 217.235C69.7227 216.848 68.7549 216.282 67.9399 215.568C67.1248 214.854 66.4786 214.006 66.038 213.074C65.5973 212.142 65.371 211.143 65.3719 210.134V125.287C65.3719 123.25 66.2964 121.297 67.9422 119.856C69.588 118.416 71.8205 117.606 74.1489 117.604H144.218C146.547 117.604 148.781 118.414 150.429 119.854C152.076 121.295 153.001 123.249 153.001 125.287Z" fill="white" stroke="#263238" stroke-width="1.10311" stroke-linecap="round" stroke-linejoin="round"/>
<path d="M153.001 125.287V129.828H65.3719V125.287C65.3719 123.25 66.2964 121.297 67.9422 119.856C69.588 118.416 71.8205 117.606 74.1489 117.604H144.217C146.547 117.604 148.781 118.414 150.429 119.854C152.076 121.295 153.001 123.249 153.001 125.287Z" fill="#FFDF31" stroke="#263238" stroke-width="1.10311" stroke-miterlimit="10"/>
<path d="M95.1735 135.091H73.6129V138.255H95.1735V135.091Z" fill="#FFDF31"/>
<path d="M95.1735 163.447H73.6129V166.612H95.1735V163.447Z" fill="#FFDF31"/>
<path d="M95.1735 189.161H73.6129V192.325H95.1735V189.161Z" fill="#FFDF31"/>
<path d="M134.844 142.925H73.6129V145.246H134.844V142.925Z" fill="#263238"/>
<path d="M123.803 147.361H73.6129V149.623H123.803V147.361Z" fill="#263238"/>
<path d="M130.375 151.727H73.6129V153.989H130.375V151.727Z" fill="#263238"/>
<path d="M130.375 156.087H73.6129V158.349H130.375V156.087Z" fill="#263238"/>
<path d="M134.844 168.639H73.6129V170.96H134.844V168.639Z" fill="#263238"/>
<path d="M123.803 173.075H73.6129V175.337H123.803V173.075Z" fill="#263238"/>
<path d="M130.375 177.441H73.6129V179.703H130.375V177.441Z" fill="#263238"/>
<path d="M134.844 196.873H73.6129V199.193H134.844V196.873Z" fill="#263238"/>
<path d="M123.803 201.314H73.6129V203.576H123.803V201.314Z" fill="#263238"/>
<path d="M130.375 205.68H73.6129V207.942H130.375V205.68Z" fill="#263238"/>
<path d="M251.766 58.7699V93.0626C251.766 94.2659 251.495 95.4574 250.968 96.569C250.441 97.6807 249.669 98.6906 248.696 99.5412C247.723 100.392 246.568 101.066 245.297 101.526C244.025 101.986 242.663 102.223 241.287 102.222H150.985C149.609 102.223 148.246 101.986 146.975 101.526C145.704 101.066 144.548 100.392 143.575 99.5412C142.602 98.6906 141.83 97.6807 141.303 96.569C140.777 95.4574 140.506 94.2659 140.506 93.0626V58.7699C140.507 56.3397 141.612 54.0094 143.577 52.2909C145.542 50.5725 148.206 49.6064 150.985 49.6049H241.287C244.066 49.6049 246.732 50.5705 248.697 52.2892C250.662 54.008 251.766 56.3392 251.766 58.7699Z" fill="white" stroke="#222221" stroke-width="1.10311" stroke-miterlimit="10"/>
<path d="M251.766 58.7699V59.5551H140.506V58.7699C140.507 56.3397 141.612 54.0094 143.577 52.2909C145.542 50.5725 148.206 49.6064 150.985 49.6049H241.287C244.066 49.6049 246.732 50.5705 248.697 52.2892C250.662 54.008 251.766 56.3392 251.766 58.7699Z" fill="#FFDF31" stroke="#263238" stroke-width="1.10311" stroke-miterlimit="10"/>
<path d="M156.854 56.2208C156.629 56.4179 156.342 56.5522 156.03 56.6067C155.718 56.6612 155.395 56.6336 155.101 56.5272C154.807 56.4209 154.555 56.2406 154.379 56.0093C154.202 55.7779 154.107 55.5059 154.107 55.2276C154.107 54.9493 154.202 54.6772 154.379 54.4459C154.555 54.2145 154.807 54.0342 155.101 53.9279C155.395 53.8215 155.718 53.7939 156.03 53.8484C156.342 53.903 156.629 54.0373 156.854 54.2343C157.153 54.4987 157.321 54.8556 157.321 55.2276C157.321 55.5995 157.153 55.9564 156.854 56.2208Z" fill="#263238"/>
<path d="M164.304 56.2208C164.079 56.4179 163.793 56.5522 163.481 56.6067C163.169 56.6612 162.845 56.6336 162.551 56.5272C162.257 56.4209 162.006 56.2406 161.829 56.0093C161.652 55.7779 161.558 55.5059 161.558 55.2276C161.558 54.9493 161.652 54.6772 161.829 54.4459C162.006 54.2145 162.257 54.0342 162.551 53.9279C162.845 53.8215 163.169 53.7939 163.481 53.8484C163.793 53.903 164.079 54.0373 164.304 54.2343C164.603 54.4987 164.771 54.8556 164.771 55.2276C164.771 55.5995 164.603 55.9564 164.304 56.2208Z" fill="#263238"/>
<path d="M171.754 56.2208C171.53 56.4179 171.243 56.5522 170.931 56.6067C170.619 56.6612 170.296 56.6336 170.002 56.5272C169.708 56.4209 169.456 56.2406 169.279 56.0093C169.102 55.7779 169.008 55.5059 169.008 55.2276C169.008 54.9493 169.102 54.6772 169.279 54.4459C169.456 54.2145 169.708 54.0342 170.002 53.9279C170.296 53.8215 170.619 53.7939 170.931 53.8484C171.243 53.903 171.53 54.0373 171.754 54.2343C172.054 54.4987 172.221 54.8556 172.221 55.2276C172.221 55.5995 172.054 55.9564 171.754 56.2208Z" fill="#263238"/>
<path d="M183.969 65.8605H147.601V93.3556H183.969V65.8605Z" stroke="#263238" stroke-width="1.10311" stroke-linecap="round" stroke-linejoin="round" stroke-dasharray="4.41 4.41"/>
<path d="M231.438 65.8605H189.583V67.7943H231.438V65.8605Z" fill="#263238"/>
<path d="M221.69 69.8629H189.583V71.7909H221.69V69.8629Z" fill="#263238"/>
<path d="M237.388 73.8477H189.583V75.799H237.388V73.8477Z" fill="#263238"/>
<path d="M230.292 77.7329H189.583V79.6843H230.292V77.7329Z" fill="#263238"/>
<path d="M254.808 143.88H234.339C231.923 143.88 229.964 145.594 229.964 147.707V158.214C229.964 160.327 231.923 162.041 234.339 162.041H254.808C257.224 162.041 259.183 160.327 259.183 158.214V147.707C259.183 145.594 257.224 143.88 254.808 143.88Z" fill="white" stroke="#263238" stroke-width="1.10311" stroke-linecap="round" stroke-linejoin="round"/>
<path d="M239.391 149.342L233.77 152.424L238.989 156.468" stroke="#263238" stroke-width="1.10311" stroke-linecap="round" stroke-linejoin="round"/>
<path d="M249.629 156.761L254.68 152.999L248.851 149.658" stroke="#263238" stroke-width="1.10311" stroke-linecap="round" stroke-linejoin="round"/>
<path d="M242.125 159.081L246.272 147.701" stroke="#263238" stroke-width="1.10311" stroke-linecap="round" stroke-linejoin="round"/>
<path d="M198.896 258.115C198.896 258.115 179.466 262.985 176.753 263.829C174.287 264.591 167.601 266.642 162.582 266.003C162.098 265.942 161.619 265.852 161.148 265.733C156.063 264.409 153.778 263.173 153.108 260.377C152.438 257.582 154.971 255.519 157.41 254.201C159.849 252.882 173.074 251.505 173.074 251.505L176.27 252.326L198.896 258.115Z" fill="#FFDF31"/>
<path d="M162.582 266.003C162.098 265.942 161.619 265.852 161.148 265.733C156.063 264.409 153.778 263.173 153.108 260.377C152.438 257.582 154.971 255.519 157.41 254.201C159.849 252.882 173.074 251.505 173.074 251.505L176.27 252.326C173.376 253.498 162.602 254.137 160.251 255.32C157.899 256.504 156.767 258.731 158.154 261.766C158.897 263.348 160.88 264.901 162.582 266.003Z" fill="white"/>
<path d="M195.975 258.807C195.975 258.807 181.382 262.112 175.594 264.227C169.805 266.343 158.77 267.269 154.824 262.909C150.877 258.549 154.368 254.787 158.301 253.949C162.234 253.111 170.187 251.792 174.528 252.326" stroke="#263238" stroke-width="1.10311" stroke-linecap="round" stroke-linejoin="round"/>
<path d="M162.87 265.774C162.87 265.774 155.447 262.212 157.912 257.219C159.735 253.539 169.637 254.336 174.542 252.326" stroke="#263238" stroke-width="1.10311" stroke-linecap="round" stroke-linejoin="round"/>
<path d="M258.077 266.794C257.876 268.552 257.173 270.199 255.163 271.236C253.823 271.927 251.92 272.338 249.193 272.314C242.379 272.238 229.569 267.978 229.569 267.978L217.576 262.176L223.814 253.545L225.522 251.201L229.931 252.068C229.931 252.068 233.582 253.879 237.254 255.32C240.925 256.762 249.843 257.078 252.985 259.287C256.128 261.497 258.419 263.899 258.077 266.794Z" fill="#FFDF31"/>
<path d="M258.077 266.794C257.876 268.552 257.173 270.199 255.163 271.236C255.742 269.508 255.623 267.658 254.828 265.997C253.488 263.366 249.126 261.045 243.391 260.659C237.656 260.272 233.267 257.928 230.969 256.879C229.173 256.064 225.388 254.283 223.813 253.545L225.522 251.201L229.931 252.068C229.931 252.068 233.582 253.879 237.254 255.32C240.925 256.762 249.843 257.078 252.985 259.287C256.128 261.497 258.419 263.899 258.077 266.794Z" fill="white"/>
<path d="M220.236 263.805C228.869 268.194 238.41 271.044 248.309 272.191C250.493 272.42 253.032 272.455 254.493 271.019C254.881 270.604 255.171 270.126 255.343 269.611C255.516 269.097 255.568 268.557 255.498 268.025C255.236 265.329 252.644 263.196 249.803 262.124C246.962 261.051 243.833 260.805 240.811 260.213C237.806 259.621 234.901 258.691 232.168 257.447C229.998 256.457 227.9 255.256 225.509 254.81C223.117 254.365 220.269 254.904 218.99 256.732" stroke="#263238" stroke-width="1.10311" stroke-linecap="round" stroke-linejoin="round"/>
<path d="M253.689 271.752C254.811 271.282 255.793 270.588 256.555 269.728C257.317 268.867 257.838 267.862 258.077 266.794C258.513 264.257 256.858 261.702 254.533 260.143C252.208 258.584 249.294 257.846 246.419 257.324C243.545 256.803 240.604 256.451 237.85 255.496C233.649 254.054 229.502 251.218 225.12 252.232" stroke="#263238" stroke-width="1.10311" stroke-linecap="round" stroke-linejoin="round"/>
<path d="M233.77 173.022L213.475 166.272L213.221 166.184C213.221 166.184 213.294 165.715 213.355 165.012C213.482 163.594 213.549 161.285 212.785 160.505C211.653 159.333 208.45 160.318 205.322 159.064C202.193 157.81 196.41 160.054 196.41 160.054C196.41 160.054 192.23 159.38 190.38 162.017C189.442 164.144 189.764 167.291 189.764 167.291L189.382 167.408C186.964 168.2 173.805 172.53 171.024 174.271C167.949 176.175 164.545 195.73 163.453 201.473C162.361 207.215 160.418 212.39 161.403 214.365C162.388 216.339 176.525 225.862 184.659 228.317C192.792 230.773 221.636 230.075 221.636 230.075C221.636 230.075 222.105 229.964 222.942 229.73C227.82 228.358 245.126 222.698 254.312 209.407C254.325 209.431 245.428 183.922 233.77 173.022ZM178.937 205.915C177.443 206.84 178.267 210.427 178.267 210.427L175.728 208.47L182.106 194.751L184.826 205.299C184.826 205.299 180.431 204.995 178.937 205.915ZM229.964 214.628C229.261 214.945 231.974 208.352 230.688 206.858C229.401 205.364 225.522 205.504 225.522 205.504L225.85 203.705L228.148 193.392L228.912 192.601C228.912 192.601 236.805 204.432 238.218 208.604C238.218 208.616 229.616 214.628 229.964 214.628Z" fill="#FFDF31"/>
<path d="M195.452 130.239L184.974 139.966C184.974 139.966 183.533 141.085 184.103 143.904C184.672 146.723 186.012 149.178 187.024 149.342C187.825 149.465 188.636 149.527 189.449 149.53C189.449 149.53 191.694 153.784 193.288 155.454C193.288 155.454 193.838 162.023 193.543 163.846C193.543 163.846 197.308 166.723 200.853 167.086C204.397 167.45 209.871 162.703 209.871 162.703L211.211 156.89C211.211 156.89 214.427 152.624 214.641 151.487C214.856 150.35 216.33 150.643 217.053 150.08C217.777 149.518 219.445 147.016 219.733 144.648C220.021 142.281 220.028 139.562 216.886 140.359C214.159 139.72 215.867 134.68 215.867 134.68L211.077 130.989L195.452 130.239Z" fill="white"/>
<path opacity="0.5" d="M213.475 166.272C213.317 166.634 213.136 166.988 212.933 167.332C211.204 170.18 203.673 175.612 203.673 175.612L201.395 169.489L200.149 175.612C197.637 174.651 189.972 168.844 189.972 168.844C189.972 168.844 189.71 168.299 189.396 167.449L189.778 167.332C189.778 167.332 189.456 164.162 190.394 162.058C192.23 159.421 196.424 160.095 196.424 160.095C196.424 160.095 202.206 157.851 205.335 159.105C208.464 160.359 211.666 159.386 212.799 160.546C213.931 161.707 213.234 166.207 213.234 166.207L213.475 166.272Z" fill="white"/>
<path opacity="0.2" d="M233.77 173.022L213.475 166.272L213.221 166.184C213.221 166.184 213.295 165.715 213.355 165.012L212.933 167.315L209.931 170.878C213.14 171.911 216.272 173.116 219.311 174.487C220.766 175.169 221.953 176.217 222.717 177.496C223.482 178.776 223.789 180.226 223.599 181.66L219.86 209.641L218.326 225.528L222.956 229.73C227.833 228.358 245.14 222.698 254.325 209.407C254.325 209.431 245.428 183.922 233.77 173.022ZM229.964 214.628C229.261 214.945 231.974 208.352 230.688 206.858C229.401 205.364 225.522 205.504 225.522 205.504L225.85 203.705L228.148 193.392L228.912 192.601C228.912 192.601 236.805 204.432 238.218 208.604C238.218 208.616 229.616 214.628 229.964 214.628Z" fill="black"/>
<path opacity="0.2" d="M186.173 206.858L183.017 197.634C183.017 197.634 177.356 180.752 173.476 176.591L174.495 188.463C174.495 188.463 171.145 202.645 168.083 206.858C165.021 211.071 164.338 212.132 168.083 212.132C171.828 212.132 180.947 218.484 180.947 218.484L180.243 213.21L186.173 206.858ZM178.22 210.427L175.681 208.469L182.059 194.751L184.779 205.299C184.779 205.299 180.411 205.012 178.917 205.932C177.423 206.852 178.22 210.427 178.22 210.427Z" fill="black"/>
<path d="M193.288 155.454C193.288 155.454 193.864 160.429 193.288 162.703" stroke="#263238" stroke-width="1.10311" stroke-linecap="round" stroke-linejoin="round"/>
<path d="M210.454 162.035C210.46 160.435 210.671 158.841 211.083 157.282" stroke="#263238" stroke-width="1.10311" stroke-linecap="round" stroke-linejoin="round"/>
<path d="M211.975 133.948C211.975 133.948 215.418 137.728 215.237 140.587C215.057 143.447 214.802 146.834 214.889 150.151C214.976 153.468 208.799 160.417 205.623 161.033C202.447 161.648 199.714 161.806 197.683 160.031C195.653 158.255 193.623 155.788 190.983 152.624C188.344 149.459 188.973 142.515 188.973 142.515" stroke="#263238" stroke-width="1.10311" stroke-linecap="round" stroke-linejoin="round"/>
<path d="M203.68 145.158C203.47 146.197 203.38 147.251 203.412 148.305C203.343 149.193 203.659 150.072 204.296 150.766C204.678 151.106 205.228 151.381 205.301 151.85C205.3 152.061 205.233 152.268 205.108 152.448C204.983 152.629 204.804 152.777 204.591 152.876C204.162 153.065 203.747 153.281 203.352 153.52" stroke="#263238" stroke-width="1.10311" stroke-linecap="round" stroke-linejoin="round"/>
<path d="M198.233 153.884C198.233 153.884 198.628 156.128 202.065 156.597" stroke="#263238" stroke-width="1.10311" stroke-linecap="round" stroke-linejoin="round"/>
<path d="M198.588 146.869C198.588 147.52 198.266 148.041 197.871 148.041C197.476 148.041 197.154 147.52 197.154 146.869C197.154 146.219 197.476 145.697 197.871 145.697C198.266 145.697 198.588 146.225 198.588 146.869Z" fill="#263238"/>
<path d="M208.846 147.15C208.846 147.801 208.524 148.322 208.129 148.322C207.734 148.322 207.412 147.795 207.412 147.15C207.412 146.506 207.734 145.978 208.129 145.978C208.524 145.978 208.846 146.5 208.846 147.15Z" fill="#263238"/>
<path d="M206.775 144.308C206.775 144.308 210.125 141.378 212.933 144.648" stroke="#263238" stroke-width="2.20621" stroke-linecap="round" stroke-linejoin="round"/>
<path d="M199.72 144.367C199.72 144.367 197.603 142.292 194.267 144.367" stroke="#263238" stroke-width="2.20621" stroke-linecap="round" stroke-linejoin="round"/>
<path d="M193.543 158.22C193.543 158.22 195.586 163.142 200.149 164.543C204.712 165.944 210.769 158.683 210.769 158.683L210.454 157.739C210.454 157.739 206.481 162.252 202.065 161.484C197.65 160.716 193.288 155.478 193.288 155.478L193.543 158.22Z" fill="#263238"/>
<path d="M189.449 149.342C189.449 149.342 186.729 150.18 186.005 148.328C185.282 146.477 182.803 141.595 184.974 139.966C187.144 138.337 188.886 142.117 188.886 142.117" stroke="#263238" stroke-width="1.10311" stroke-linecap="round" stroke-linejoin="round"/>
<path d="M214.882 150.35C214.882 150.35 217.408 150.795 218.132 148.944C218.855 147.092 221.334 142.21 219.164 140.581C216.993 138.952 215.251 142.732 215.251 142.732" stroke="#263238" stroke-width="1.10311" stroke-linecap="round" stroke-linejoin="round"/>
<path d="M188.886 146.869C189.831 146.739 190.684 146.299 191.272 145.639C191.63 145.059 191.858 144.424 191.942 143.769C192.19 142.523 192.316 141.26 192.317 139.995C192.287 139.501 192.339 139.006 192.471 138.525C192.672 138.04 192.982 137.596 193.382 137.218C194.327 136.245 195.473 135.425 196.377 134.417C196.862 133.941 197.231 133.384 197.461 132.779C197.692 132.175 197.779 131.536 197.717 130.901C199.79 132.395 202.212 133.475 204.813 134.063C207.414 134.651 210.13 134.734 212.772 134.305C217.562 133.485 222.152 129.811 221.596 125.193C221.491 124.419 221.111 123.693 220.51 123.117C219.91 122.541 219.118 122.144 218.246 121.982C215.881 121.466 213.757 122.568 211.613 123.277C207.707 124.566 203.881 122.351 199.935 121.982C196.585 121.659 192.411 122.029 190.655 124.964C190.655 124.964 184.625 125.586 181.945 129.945C179.265 134.305 184.337 140.335 184.337 140.335C184.337 140.335 186.347 138.179 188.98 142.539L188.886 146.869Z" fill="#263238"/>
<path d="M212.39 132.835C212.39 132.835 210.822 139.984 214.916 143.447C214.916 143.447 215.814 141.296 216.718 140.769C217.37 139.5 217.647 138.108 217.521 136.721C217.396 135.335 216.873 133.998 216.001 132.835C212.973 128.674 212.39 132.835 212.39 132.835Z" fill="#263238"/>
<path opacity="0.2" d="M219.854 124.701C219.494 125.676 218.885 126.567 218.072 127.305C217.259 128.044 216.265 128.61 215.164 128.961C209.482 130.989 203.968 128.744 198.273 128.305C193.63 127.941 188.504 131.61 188.176 135.782" stroke="white" stroke-width="1.10311" stroke-linecap="round" stroke-linejoin="round"/>
<path opacity="0.2" d="M184.672 134.68C184.742 133.034 185.346 131.439 186.414 130.081C187.481 128.724 188.969 127.661 190.702 127.016" stroke="white" stroke-width="1.10311" stroke-linecap="round" stroke-linejoin="round"/>
<path d="M191.975 162.035C194.474 164.312 197.488 166.109 200.826 167.309C200.826 167.309 207.626 165.58 211.083 161.449" stroke="#263238" stroke-width="1.10311" stroke-linecap="round" stroke-linejoin="round"/>
<path d="M198.925 151.641C201.945 150.429 203.271 147.305 201.885 144.664C200.5 142.022 196.928 140.863 193.908 142.074C190.888 143.286 189.562 146.41 190.948 149.051C192.333 151.693 195.904 152.852 198.925 151.641Z" stroke="#263238" stroke-width="1.10311" stroke-linecap="round" stroke-linejoin="round"/>
<path d="M210.584 152.104C213.882 151.75 216.227 149.124 215.822 146.24C215.417 143.355 212.415 141.304 209.117 141.658C205.819 142.012 203.474 144.638 203.879 147.522C204.284 150.407 207.285 152.458 210.584 152.104Z" stroke="#263238" stroke-width="1.10311" stroke-linecap="round" stroke-linejoin="round"/>
<path d="M193.288 160.072C192.679 160.212 192.108 160.458 191.609 160.795C191.111 161.132 190.695 161.554 190.387 162.035C189.322 163.676 189.965 168.838 189.965 168.838C189.965 168.838 195.466 173.597 200.149 175.607L201.529 168.815L203.673 175.607C203.673 175.607 210.923 171.124 212.933 167.332C212.933 167.332 213.603 162.908 212.933 161.472C212.78 161.074 212.491 160.726 212.103 160.477C211.715 160.228 211.249 160.091 210.769 160.083" stroke="#263238" stroke-width="1.10311" stroke-linecap="round" stroke-linejoin="round"/>
<path d="M184.672 205.51C184.672 205.51 182.521 192.911 179.66 187.772" stroke="#263238" stroke-width="1.10311" stroke-linecap="round" stroke-linejoin="round"/>
<path d="M173.476 176.591C175.142 178.662 176.629 180.838 177.925 183.102" stroke="#263238" stroke-width="1.10311" stroke-linecap="round" stroke-linejoin="round"/>
<path d="M229.964 185.996C230.542 183.89 231.333 181.833 232.329 179.849" stroke="#263238" stroke-width="1.10311" stroke-linecap="round" stroke-linejoin="round"/>
<path d="M225.522 205.51C225.522 205.51 227.07 196.873 228.919 189.759" stroke="#263238" stroke-width="1.10311" stroke-linecap="round" stroke-linejoin="round"/>
<path d="M228.148 193.38C229.644 191.645 231.748 190.386 234.138 189.794" stroke="#263238" stroke-width="1.10311" stroke-linecap="round" stroke-linejoin="round"/>
<path d="M213.228 166.184C213.228 166.184 225.71 170.549 233.77 173.028C233.77 173.028 243.686 181.179 254.319 209.431C254.319 209.431 244.577 223.764 226.045 228.358" stroke="#263238" stroke-width="1.10311" stroke-linecap="round" stroke-linejoin="round"/>
<path d="M229.261 215.138L238.218 208.616C238.218 208.616 242.955 205.469 247.88 207.62" stroke="#263238" stroke-width="1.10311" stroke-linecap="round" stroke-linejoin="round"/>
<path d="M228.919 192.601C228.919 192.601 236.322 202.17 238.218 208.616" stroke="#263238" stroke-width="1.10311" stroke-linecap="round" stroke-linejoin="round"/>
<path d="M178.32 210.79L175.701 208.616C175.701 208.616 171.815 208.03 167.406 210.603" stroke="#263238" stroke-width="1.10311" stroke-linecap="round" stroke-linejoin="round"/>
<path d="M175.701 208.616C175.701 208.616 178.957 199.24 182.166 194.441" stroke="#263238" stroke-width="1.10311" stroke-linecap="round" stroke-linejoin="round"/>
<path d="M189.777 167.332C189.777 167.332 171.815 173.227 170.053 174.95C168.291 176.673 161.597 209.636 161.416 213.409C161.262 216.785 175.252 224.362 182.186 227.556" stroke="#263238" stroke-width="1.10311" stroke-linecap="round" stroke-linejoin="round"/>
<path d="M203.211 178.472C203.211 178.677 203.141 178.878 203.011 179.048C202.881 179.219 202.696 179.352 202.479 179.43C202.262 179.509 202.024 179.529 201.794 179.489C201.564 179.449 201.352 179.351 201.187 179.206C201.021 179.061 200.908 178.876 200.862 178.675C200.816 178.473 200.84 178.265 200.929 178.075C201.019 177.886 201.171 177.724 201.366 177.61C201.561 177.496 201.791 177.435 202.025 177.435C202.181 177.434 202.336 177.46 202.48 177.512C202.624 177.564 202.755 177.641 202.866 177.737C202.976 177.833 203.063 177.948 203.123 178.074C203.182 178.201 203.212 178.336 203.211 178.472Z" fill="#263238"/>
<path d="M223.994 233.685H183.124C182.87 233.685 182.627 233.597 182.447 233.44C182.267 233.282 182.166 233.069 182.166 232.847C182.166 232.625 182.267 232.412 182.447 232.254C182.627 232.097 182.87 232.009 183.124 232.009H223.994C224.249 232.009 224.492 232.097 224.672 232.254C224.852 232.412 224.953 232.625 224.953 232.847C224.953 233.069 224.852 233.282 224.672 233.44C224.492 233.597 224.249 233.685 223.994 233.685Z" fill="#263238"/>
<path d="M225.428 230.884L230.902 208.382C230.987 208.033 230.982 207.672 230.886 207.325C230.791 206.978 230.608 206.654 230.351 206.377C230.094 206.1 229.77 205.877 229.401 205.724C229.033 205.571 228.63 205.492 228.222 205.493H180.451C180.047 205.493 179.647 205.571 179.282 205.723C178.916 205.874 178.594 206.094 178.337 206.368C178.081 206.641 177.897 206.961 177.799 207.304C177.701 207.648 177.692 208.005 177.771 208.352L182.682 230.105C182.803 230.639 183.128 231.121 183.604 231.472C184.081 231.822 184.679 232.02 185.302 232.032L222.681 232.783C223.32 232.795 223.944 232.612 224.445 232.266C224.947 231.919 225.294 231.43 225.428 230.884Z" fill="white" stroke="#263238" stroke-width="1.10311" stroke-linecap="round" stroke-linejoin="round"/>
<path d="M207.995 218.478C207.993 219.138 207.769 219.782 207.349 220.329C206.929 220.877 206.334 221.303 205.637 221.555C204.94 221.806 204.174 221.871 203.435 221.742C202.696 221.613 202.017 221.295 201.484 220.828C200.952 220.362 200.59 219.768 200.443 219.121C200.296 218.474 200.372 217.804 200.661 217.195C200.95 216.586 201.438 216.066 202.065 215.7C202.692 215.334 203.429 215.138 204.183 215.138C204.684 215.138 205.18 215.225 205.643 215.393C206.106 215.56 206.526 215.807 206.881 216.117C207.235 216.427 207.515 216.795 207.707 217.201C207.898 217.606 207.996 218.04 207.995 218.478Z" fill="#263238"/>
<path d="M215.492 207.643H221.167" stroke="#263238" stroke-width="1.10311" stroke-linecap="round" stroke-linejoin="round"/>
<path d="M188.391 207.643H209.931" stroke="#263238" stroke-width="1.10311" stroke-linecap="round" stroke-linejoin="round"/>
<path d="M225.522 254.775L221.167 264.772C221.167 264.772 210.058 262.323 195.834 259.774C180.954 257.107 165.416 253.656 157.356 241.285C156.378 239.779 155.721 237.998 156.184 236.31C157.343 232.038 163.701 230.878 167.889 230.45C170.521 230.201 173.167 230.072 175.815 230.064C177.155 230.064 181.61 229.425 182.689 230.122C184.31 231.156 186.039 232.053 187.855 232.8C190.233 233.685 224.953 232.009 224.953 232.009C225.557 230.857 225.926 229.622 226.045 228.358C231.505 225.932 244.135 223.881 249.495 224.79C257.89 226.214 262.787 230.497 261.856 234.986C260.925 239.475 242.379 251.511 225.522 254.775Z" fill="#263238"/>
<path d="M225.522 254.775C225.522 254.775 214.956 252.326 206.327 247.228C197.697 242.129 190.957 236.211 178.93 237.435" stroke="white" stroke-width="1.10311" stroke-linecap="round" stroke-linejoin="round"/>
<path d="M204.35 246.026C209.804 244.655 213.804 241.567 218.179 238.607C222.793 235.368 227.749 232.519 232.979 230.099" stroke="white" stroke-width="1.10311" stroke-linecap="round" stroke-linejoin="round"/>
<path d="M202.427 147.701H204.028" stroke="#263238" stroke-width="1.10311" stroke-linecap="round" stroke-linejoin="round"/>
</svg>
