<svg width="492" height="256" viewBox="0 0 492 256" fill="none" xmlns="http://www.w3.org/2000/svg">
<g filter="url(#filter0_i_164_1928)">
<path d="M69.8399 59.8806C71.3757 65.9385 67.0407 71.9051 60.8047 72.3164L55.3547 72.6759C53.6945 72.7854 52.0878 73.3075 50.6803 74.1947L46.0599 77.1073C40.7731 80.4399 33.7589 78.1609 31.4407 72.3573L29.4147 67.2851C28.7975 65.74 27.8045 64.3733 26.5257 63.3088L22.3279 59.8145C17.5247 55.8163 17.5247 48.4412 22.3279 44.443L26.5257 40.9487C27.8045 39.8843 28.7975 38.5176 29.4147 36.9725L31.4407 31.9003C33.7589 26.0967 40.7731 23.8176 46.0599 27.1502L50.6803 30.0628C52.0878 30.9501 53.6945 31.4721 55.3547 31.5816L60.8047 31.9411C67.0407 32.3525 71.3757 38.3191 69.8399 44.3769L68.4976 49.6713C68.0888 51.2841 68.0888 52.9734 68.4976 54.5863L69.8399 59.8806Z" fill="#FFD700"/>
</g>
<g filter="url(#filter1_i_164_1928)">
<path d="M429.76 161.602C431.167 155.513 437.752 152.191 443.485 154.679L448.495 156.853C450.021 157.516 451.689 157.787 453.346 157.642L458.787 157.167C465.013 156.623 470.207 161.859 469.612 168.08L469.093 173.517C468.934 175.173 469.192 176.843 469.842 178.375L471.975 183.403C474.416 189.156 471.041 195.713 464.941 197.07L459.61 198.256C457.985 198.617 456.477 199.378 455.221 200.47L451.099 204.052C446.382 208.152 439.102 206.968 435.926 201.586L433.151 196.882C432.305 195.449 431.116 194.249 429.69 193.392L425.008 190.579C419.652 187.359 418.528 180.07 422.665 175.387L426.282 171.294C427.383 170.047 428.156 168.544 428.531 166.923L429.76 161.602Z" fill="#FFD700"/>
</g>
<g filter="url(#filter2_i_164_1928)">
<path d="M323.035 39.5384C321.018 33.6233 324.861 27.3281 331.044 26.4178L336.447 25.6222C338.093 25.3799 339.653 24.7306 340.985 23.7333L345.357 20.4594C350.359 16.7134 357.533 18.4223 360.31 24.0212L362.736 28.9145C363.475 30.4052 364.575 31.6878 365.935 32.6462L370.399 35.7924C375.508 39.3924 376.1 46.7437 371.633 51.1144L367.729 54.9342C366.54 56.0978 365.659 57.5398 365.168 59.1294L363.556 64.3478C361.71 70.3187 354.902 73.1531 349.365 70.2554L344.525 67.7229C343.051 66.9515 341.408 66.56 339.744 66.584L334.283 66.663C328.034 66.7532 323.234 61.1537 324.279 54.9921L325.192 49.6071C325.471 47.9667 325.335 46.2828 324.798 44.708L323.035 39.5384Z" fill="#FFD700"/>
</g>
<g filter="url(#filter3_i_164_1928)">
<path d="M237.07 204.573C235.053 198.658 238.895 192.363 245.078 191.452L250.482 190.657C252.128 190.414 253.687 189.765 255.019 188.768L259.391 185.494C264.393 181.748 271.568 183.457 274.344 189.056L276.77 193.949C277.51 195.44 278.609 196.722 279.969 197.681L284.434 200.827C289.542 204.427 290.134 211.778 285.667 216.149L281.763 219.969C280.574 221.132 279.694 222.574 279.202 224.164L277.59 229.382C275.745 235.353 268.936 238.188 263.399 235.29L258.56 232.757C257.086 231.986 255.442 231.594 253.778 231.618L248.317 231.697C242.068 231.788 237.269 226.188 238.313 220.027L239.227 214.642C239.505 213.001 239.369 211.317 238.832 209.742L237.07 204.573Z" fill="#FFD700"/>
</g>
<g filter="url(#filter4_i_164_1928)">
<path d="M122.956 119.843C128.763 117.532 135.243 121.053 136.462 127.183L137.528 132.54C137.852 134.172 138.579 135.697 139.642 136.977L143.131 141.179C147.123 145.987 145.776 153.238 140.324 156.292L135.558 158.961C134.106 159.774 132.881 160.936 131.992 162.342L129.073 166.959C125.734 172.242 118.422 173.202 113.832 168.959L109.822 165.252C108.6 164.123 107.116 163.316 105.503 162.905L100.211 161.556C94.1546 160.013 90.9822 153.355 93.5986 147.679L95.8852 142.719C96.5818 141.208 96.8903 139.547 96.7828 137.887L96.4301 132.436C96.0265 126.2 101.378 121.126 107.585 121.86L113.009 122.502C114.661 122.697 116.336 122.478 117.882 121.862L122.956 119.843Z" fill="#FFD700"/>
</g>
<defs>
<filter id="filter0_i_164_1928" x="18.7255" y="25.6062" width="51.4253" height="57.0452" filterUnits="userSpaceOnUse" color-interpolation-filters="sRGB">
<feFlood flood-opacity="0" result="BackgroundImageFix"/>
<feBlend mode="normal" in="SourceGraphic" in2="BackgroundImageFix" result="shape"/>
<feColorMatrix in="SourceAlpha" type="matrix" values="0 0 0 0 0 0 0 0 0 0 0 0 0 0 0 0 0 0 127 0" result="hardAlpha"/>
<feOffset dy="4"/>
<feGaussianBlur stdDeviation="2"/>
<feComposite in2="hardAlpha" operator="arithmetic" k2="-1" k3="1"/>
<feColorMatrix type="matrix" values="0 0 0 0 0 0 0 0 0 0 0 0 0 0 0 0 0 0 0.25 0"/>
<feBlend mode="normal" in2="shape" result="effect1_innerShadow_164_1928"/>
</filter>
<filter id="filter1_i_164_1928" x="420.159" y="153.847" width="52.6163" height="56.6584" filterUnits="userSpaceOnUse" color-interpolation-filters="sRGB">
<feFlood flood-opacity="0" result="BackgroundImageFix"/>
<feBlend mode="normal" in="SourceGraphic" in2="BackgroundImageFix" result="shape"/>
<feColorMatrix in="SourceAlpha" type="matrix" values="0 0 0 0 0 0 0 0 0 0 0 0 0 0 0 0 0 0 127 0" result="hardAlpha"/>
<feOffset dy="4"/>
<feGaussianBlur stdDeviation="2"/>
<feComposite in2="hardAlpha" operator="arithmetic" k2="-1" k3="1"/>
<feColorMatrix type="matrix" values="0 0 0 0 0 0 0 0 0 0 0 0 0 0 0 0 0 0 0.25 0"/>
<feBlend mode="normal" in2="shape" result="effect1_innerShadow_164_1928"/>
</filter>
<filter id="filter2_i_164_1928" x="322.495" y="18.4614" width="52.1443" height="56.9387" filterUnits="userSpaceOnUse" color-interpolation-filters="sRGB">
<feFlood flood-opacity="0" result="BackgroundImageFix"/>
<feBlend mode="normal" in="SourceGraphic" in2="BackgroundImageFix" result="shape"/>
<feColorMatrix in="SourceAlpha" type="matrix" values="0 0 0 0 0 0 0 0 0 0 0 0 0 0 0 0 0 0 127 0" result="hardAlpha"/>
<feOffset dy="4"/>
<feGaussianBlur stdDeviation="2"/>
<feComposite in2="hardAlpha" operator="arithmetic" k2="-1" k3="1"/>
<feColorMatrix type="matrix" values="0 0 0 0 0 0 0 0 0 0 0 0 0 0 0 0 0 0 0.25 0"/>
<feBlend mode="normal" in2="shape" result="effect1_innerShadow_164_1928"/>
</filter>
<filter id="filter3_i_164_1928" x="236.529" y="183.496" width="52.1443" height="56.9387" filterUnits="userSpaceOnUse" color-interpolation-filters="sRGB">
<feFlood flood-opacity="0" result="BackgroundImageFix"/>
<feBlend mode="normal" in="SourceGraphic" in2="BackgroundImageFix" result="shape"/>
<feColorMatrix in="SourceAlpha" type="matrix" values="0 0 0 0 0 0 0 0 0 0 0 0 0 0 0 0 0 0 127 0" result="hardAlpha"/>
<feOffset dy="4"/>
<feGaussianBlur stdDeviation="2"/>
<feComposite in2="hardAlpha" operator="arithmetic" k2="-1" k3="1"/>
<feColorMatrix type="matrix" values="0 0 0 0 0 0 0 0 0 0 0 0 0 0 0 0 0 0 0.25 0"/>
<feBlend mode="normal" in2="shape" result="effect1_innerShadow_164_1928"/>
</filter>
<filter id="filter4_i_164_1928" x="92.6749" y="119.128" width="52.7638" height="56.4885" filterUnits="userSpaceOnUse" color-interpolation-filters="sRGB">
<feFlood flood-opacity="0" result="BackgroundImageFix"/>
<feBlend mode="normal" in="SourceGraphic" in2="BackgroundImageFix" result="shape"/>
<feColorMatrix in="SourceAlpha" type="matrix" values="0 0 0 0 0 0 0 0 0 0 0 0 0 0 0 0 0 0 127 0" result="hardAlpha"/>
<feOffset dy="4"/>
<feGaussianBlur stdDeviation="2"/>
<feComposite in2="hardAlpha" operator="arithmetic" k2="-1" k3="1"/>
<feColorMatrix type="matrix" values="0 0 0 0 0 0 0 0 0 0 0 0 0 0 0 0 0 0 0.25 0"/>
<feBlend mode="normal" in2="shape" result="effect1_innerShadow_164_1928"/>
</filter>
</defs>
</svg>
