<svg width="645" height="421" viewBox="0 0 645 421" fill="none" xmlns="http://www.w3.org/2000/svg">
<g filter="url(#filter0_i_23_41)">
<path d="M434.09 54.897C435.414 61.0048 430.873 66.8165 424.626 67.0099L419.167 67.179C417.504 67.2305 415.88 67.6961 414.443 68.5337L409.723 71.2833C404.323 74.4294 397.393 71.9069 395.279 66.0259L393.431 60.8862C392.868 59.3204 391.924 57.9199 390.683 56.8115L386.609 53.1728C381.949 49.0094 382.206 41.6388 387.146 37.8107L391.463 34.465C392.778 33.4459 393.818 32.1146 394.489 30.592L396.691 25.5936C399.21 19.8744 406.3 17.8416 411.467 21.3567L415.983 24.4287C417.359 25.3646 418.946 25.9424 420.601 26.1097L426.036 26.6592C432.253 27.2879 436.377 33.4022 434.631 39.4028L433.105 44.6471C432.64 46.2446 432.581 47.9329 432.933 49.559L434.09 54.897Z" fill="#FFD700"/>
<path d="M351.111 393.675C346.45 389.511 346.708 382.141 351.648 378.312L355.965 374.967C357.28 373.948 358.32 372.616 358.991 371.094L361.193 366.095C363.712 360.376 370.801 358.343 375.969 361.858L380.485 364.93C381.86 365.866 383.448 366.444 385.103 366.611L390.537 367.161C396.755 367.79 400.879 373.904 399.133 379.904L397.607 385.149C397.142 386.746 397.083 388.435 397.435 390.061L398.592 395.399C399.915 401.506 395.375 407.318 389.128 407.512L383.669 407.681C382.006 407.732 380.382 408.198 378.944 409.035L374.225 411.785C368.825 414.931 361.895 412.409 359.781 406.528L357.933 401.388C357.37 399.822 356.425 398.422 355.184 397.313L351.111 393.675Z" fill="#FFD700"/>
<path d="M220.9 114.579C214.672 114.059 210.442 108.018 212.083 101.988L213.518 96.7175C213.955 95.1121 213.984 93.423 213.603 91.8033L212.354 86.4863C210.924 80.4026 215.362 74.5126 221.604 74.2101L227.06 73.9458C228.722 73.8653 230.337 73.3713 231.76 72.5088L236.431 69.6773C241.775 66.4374 248.748 68.8386 250.965 74.6817L252.902 79.7885C253.492 81.3442 254.461 82.728 255.721 83.8146L259.857 87.3816C264.59 91.463 264.461 98.837 259.589 102.751L255.331 106.171C254.034 107.213 253.017 108.562 252.373 110.097L250.259 115.133C247.84 120.895 240.787 123.051 235.559 119.627L230.99 116.634C229.598 115.722 228.001 115.172 226.343 115.034L220.9 114.579Z" fill="#FFD700"/>
<path d="M374.04 165.12C380.264 164.551 385.479 169.766 384.909 175.989L384.412 181.429C384.26 183.085 384.525 184.754 385.181 186.283L387.335 191.302C389.799 197.045 386.451 203.617 380.356 204.998L375.029 206.206C373.407 206.574 371.902 207.341 370.65 208.437L366.542 212.037C361.842 216.155 354.558 215.002 351.36 209.632L348.565 204.939C347.714 203.51 346.52 202.315 345.09 201.464L340.397 198.669C335.028 195.472 333.874 188.188 337.993 183.487L341.592 179.379C342.689 178.128 343.456 176.623 343.823 175L345.031 169.673C346.413 163.579 352.984 160.23 358.727 162.695L363.746 164.849C365.275 165.505 366.944 165.769 368.601 165.618L374.04 165.12Z" fill="#FFD700"/>
<path d="M91.7312 356.615C88.9695 351.009 91.9692 344.271 97.9834 342.573L103.24 341.088C104.841 340.636 106.304 339.791 107.496 338.63L111.41 334.821C115.888 330.462 123.223 331.233 126.697 336.427L129.734 340.968C130.659 342.351 131.914 343.481 133.386 344.256L138.219 346.801C143.748 349.714 145.282 356.928 141.415 361.837L138.035 366.128C137.006 367.435 136.318 368.978 136.036 370.618L135.109 376C134.048 382.159 127.661 385.847 121.797 383.686L116.672 381.798C115.11 381.223 113.43 381.046 111.784 381.284L106.378 382.066C100.193 382.96 94.7119 378.025 94.9546 371.78L95.1668 366.322C95.2314 364.66 94.8802 363.007 94.1449 361.515L91.7312 356.615Z" fill="#FFD700"/>
<path d="M29.9027 261.731C23.6968 260.994 19.6801 254.808 21.5308 248.839L23.1483 243.622C23.641 242.033 23.7294 240.346 23.4055 238.714L22.3422 233.357C21.1255 227.227 25.7669 221.495 32.0158 221.411L37.4771 221.337C39.1408 221.315 40.7726 220.877 42.2246 220.065L46.9912 217.398C52.4451 214.347 59.3304 216.99 61.3417 222.907L63.0995 228.078C63.635 229.653 64.5551 231.07 65.7764 232.2L69.7856 235.909C74.373 240.153 73.987 247.518 68.9811 251.26L64.6062 254.53C63.2734 255.526 62.2103 256.838 61.5131 258.349L59.2244 263.308C56.6056 268.983 49.4817 270.892 44.3766 267.287L39.9149 264.136C38.5558 263.177 36.9786 262.571 35.3264 262.375L29.9027 261.731Z" fill="#FFD700"/>
<path d="M95.5918 175.339C89.7108 173.225 87.1883 166.294 90.3344 160.894L93.084 156.175C93.9216 154.737 94.3872 153.114 94.4387 151.451L94.6078 145.991C94.8013 139.745 100.613 135.204 106.721 136.528L112.059 137.684C113.685 138.037 115.373 137.978 116.971 137.513L122.215 135.987C128.216 134.24 134.33 138.364 134.959 144.582L135.508 150.016C135.675 151.672 136.253 153.259 137.189 154.635L140.261 159.151C143.776 164.318 141.743 171.408 136.024 173.927L131.026 176.129C129.503 176.799 128.172 177.84 127.153 179.155L123.807 183.472C119.979 188.412 112.608 188.669 108.445 184.008L104.806 179.935C103.698 178.694 102.297 177.75 100.732 177.187L95.5918 175.339Z" fill="#FFD700"/>
<path d="M290.146 236.536C296.189 238.13 299.306 244.814 296.643 250.467L294.315 255.408C293.606 256.913 293.283 258.572 293.377 260.233L293.684 265.686C294.036 271.926 288.642 276.956 282.442 276.17L277.024 275.483C275.373 275.273 273.697 275.479 272.146 276.081L267.054 278.059C261.229 280.322 254.778 276.746 253.61 270.607L252.589 265.241C252.278 263.607 251.564 262.076 250.512 260.787L247.058 256.556C243.106 251.714 244.513 244.475 249.991 241.467L254.778 238.837C256.237 238.037 257.472 236.884 258.373 235.485L261.33 230.893C264.713 225.638 272.033 224.74 276.587 229.02L280.566 232.76C281.779 233.9 283.256 234.719 284.865 235.143L290.146 236.536Z" fill="#FFD700"/>
<path d="M624.223 95.6929C626.587 101.478 623.124 107.99 617.006 109.265L611.659 110.38C610.031 110.719 608.512 111.46 607.242 112.534L603.072 116.062C598.3 120.097 591.037 118.817 587.934 113.392L585.222 108.651C584.395 107.207 583.222 105.992 581.807 105.116L577.164 102.24C571.851 98.9491 570.825 91.6457 575.025 87.018L578.695 82.9735C579.814 81.7414 580.607 80.2498 581.003 78.6338L582.303 73.329C583.791 67.2593 590.42 64.0262 596.119 66.5906L601.1 68.8318C602.617 69.5145 604.281 69.8079 605.94 69.6853L611.387 69.2828C617.62 68.8223 622.743 74.1275 622.065 80.3401L621.473 85.7698C621.292 87.4238 621.527 89.0967 622.157 90.6369L624.223 95.6929Z" fill="#FFD700"/>
<path d="M559.223 293.693C561.587 299.478 558.124 305.99 552.006 307.265L546.659 308.38C545.031 308.719 543.512 309.46 542.242 310.534L538.072 314.062C533.3 318.097 526.037 316.817 522.934 311.392L520.222 306.651C519.395 305.207 518.222 303.992 516.807 303.116L512.164 300.24C506.851 296.949 505.825 289.646 510.025 285.018L513.695 280.973C514.814 279.741 515.607 278.25 516.003 276.634L517.303 271.329C518.791 265.259 525.42 262.026 531.119 264.591L536.1 266.832C537.617 267.515 539.281 267.808 540.94 267.685L546.387 267.283C552.62 266.822 557.743 272.127 557.065 278.34L556.473 283.77C556.292 285.424 556.527 287.097 557.157 288.637L559.223 293.693Z" fill="#FFD700"/>
<path d="M434.09 54.897C435.414 61.0048 430.873 66.8165 424.626 67.0099L419.167 67.179C417.504 67.2305 415.88 67.6961 414.443 68.5337L409.723 71.2833C404.323 74.4294 397.393 71.9069 395.279 66.0259L393.431 60.8862C392.868 59.3204 391.924 57.9199 390.683 56.8115L386.609 53.1728C381.949 49.0094 382.206 41.6388 387.146 37.8107L391.463 34.465C392.778 33.4459 393.818 32.1146 394.489 30.592L396.691 25.5936C399.21 19.8744 406.3 17.8416 411.467 21.3567L415.983 24.4287C417.359 25.3646 418.946 25.9424 420.601 26.1097L426.036 26.6592C432.253 27.2879 436.377 33.4022 434.631 39.4028L433.105 44.6471C432.64 46.2446 432.581 47.9329 432.933 49.559L434.09 54.897Z" fill="#FFD700"/>
</g>
<defs>
<filter id="filter0_i_23_41" x="21.0773" y="19.6218" width="603.894" height="397.527" filterUnits="userSpaceOnUse" color-interpolation-filters="sRGB">
<feFlood flood-opacity="0" result="BackgroundImageFix"/>
<feBlend mode="normal" in="SourceGraphic" in2="BackgroundImageFix" result="shape"/>
<feColorMatrix in="SourceAlpha" type="matrix" values="0 0 0 0 0 0 0 0 0 0 0 0 0 0 0 0 0 0 127 0" result="hardAlpha"/>
<feOffset dy="4"/>
<feGaussianBlur stdDeviation="2"/>
<feComposite in2="hardAlpha" operator="arithmetic" k2="-1" k3="1"/>
<feColorMatrix type="matrix" values="0 0 0 0 0 0 0 0 0 0 0 0 0 0 0 0 0 0 0.25 0"/>
<feBlend mode="normal" in2="shape" result="effect1_innerShadow_23_41"/>
</filter>
</defs>
</svg>
