<svg width="27" height="26" viewBox="0 0 27 26" fill="none" xmlns="http://www.w3.org/2000/svg">
<path d="M21.4038 3.99536C20.6833 3.99536 19.8159 4.22796 18.5039 4.77204L18.3455 4.83685C16.3414 5.66904 14.4066 6.47913 12.5795 7.25022C12.2867 7.374 12.1001 7.6594 12.1001 7.97752C12.1001 8.54268 12.6779 8.92446 13.1988 8.70483C16.1794 7.44706 18.5568 6.46194 19.1088 6.23282C20.1242 5.81093 20.8787 5.5765 21.4038 5.5765C22.2924 5.5765 22.5256 6.2483 22.2628 7.8263C22.1001 8.80176 21.7717 10.9967 21.3956 13.3947C21.3203 13.874 21.6908 14.3093 22.1764 14.3093H22.1774C22.5661 14.3093 22.8982 14.0251 22.9582 13.6406C23.1215 12.5998 23.2765 11.5933 23.4139 10.6985C23.5883 9.56291 23.7312 8.63173 23.8223 8.08554C24.0062 6.9821 24.0908 5.733 23.3234 4.82759C23.0011 4.44837 22.4072 3.99536 21.4038 3.99536ZM9.39356 8.70791C9.26567 8.69459 9.13198 8.71291 9.00162 8.76861C7.15816 9.55656 5.48477 10.2799 4.04423 10.9135C3.47856 11.1626 1.7584 11.9195 1.82529 13.5028C1.85373 14.1859 2.22952 15.1176 3.85598 15.6754L3.97634 15.7166C4.43036 15.873 5.37531 16.1992 6.34445 16.4778C6.93435 16.6474 7.4678 16.7288 7.9729 16.7288C8.84934 16.7288 9.52823 16.479 10.0591 16.1877C10.0565 16.2762 10.0585 16.3656 10.0653 16.4552C10.1612 17.6729 11.1024 18.3407 11.665 18.74L11.7442 18.7955C12.5748 19.3896 16.3336 21.8725 16.7592 22.1532C17.5603 22.6821 18.2836 22.9392 18.9709 22.9392C20.0517 22.9392 21.4474 22.3617 21.9583 19.6113C22.0937 18.8823 22.2358 18.0726 22.378 17.2257C22.4591 16.7438 22.0881 16.3029 21.5993 16.3029C21.2137 16.3029 20.8832 16.581 20.8195 16.9613C20.6784 17.8019 20.5387 18.6048 20.4049 19.3232C20.1405 20.7464 19.6636 21.3601 18.9699 21.3601C18.5886 21.3601 18.1425 21.1752 17.6295 20.8365C16.9342 20.3772 13.4239 18.0558 12.6618 17.5106C11.9665 17.014 11.0072 16.4159 12.2102 15.2392C12.6384 14.82 15.4447 12.1408 17.6305 10.0555C17.8638 9.83274 17.6685 9.49282 17.4093 9.49282C17.3503 9.49282 17.2873 9.51091 17.2262 9.55146C14.2798 11.5055 10.1943 14.2182 9.6744 14.5716C9.15455 14.9245 8.64814 15.1508 7.9729 15.1508C7.62791 15.1508 7.23833 15.0911 6.78062 14.9594C5.75724 14.6655 4.75751 14.3155 4.36828 14.1817C2.86981 13.6677 3.22573 13.0014 4.68101 12.3609C6.25849 11.6672 7.96062 10.9333 9.62605 10.2212C9.91679 10.0969 10.1044 9.81143 10.1044 9.49488V9.49385C10.1044 9.0688 9.77723 8.74789 9.39356 8.70791Z" fill="black" fill-opacity="0.6"/>
</svg>
