<svg width="26" height="26" viewBox="0 0 26 26" fill="none" xmlns="http://www.w3.org/2000/svg">
<path d="M3.35895 6.07129C2.17837 6.07129 1.27941 7.23217 1.60499 8.37356C2.00114 9.76306 2.48666 11.1388 3.08325 12.4442C3.17042 12.6348 3.32973 12.7829 3.52612 12.856C3.72252 12.9291 3.93991 12.9212 4.13049 12.8341C4.32106 12.7469 4.4692 12.5876 4.54232 12.3912C4.61544 12.1948 4.60754 11.9774 4.52037 11.7868C3.96349 10.5683 3.5025 9.26664 3.1244 7.94047C3.07919 7.78195 3.17642 7.6514 3.35895 7.6514L5.17258 7.65654C5.28406 7.65681 5.36604 7.71696 5.3989 7.81702C5.91838 9.39673 7.28326 12.4066 9.01381 14.0922C9.46319 14.53 10.1228 14.6188 10.634 14.4111C11.1453 14.2034 11.5619 13.6653 11.5619 13.0336C11.5619 13.0326 11.5619 13.0316 11.5619 13.0306L11.5486 9.4856C11.5486 8.96902 11.3795 8.46664 11.0692 8.05466L11.0682 8.0526L10.7853 7.67506L13.4342 7.67917C13.5725 7.67944 13.6636 7.76956 13.6636 7.90549V11.9103C13.6636 13.1927 15.2787 13.9295 16.2498 13.0913C16.2501 13.0913 16.2505 13.0913 16.2508 13.0913C17.141 12.3223 18.7162 10.95 20.2556 7.79542C20.2913 7.72235 20.2603 7.673 20.6784 7.673H22.5106C22.6172 7.673 22.6485 7.7238 22.6083 7.83245C22.5169 8.07934 22.3974 8.36597 22.2493 8.67909C22.2006 8.77336 22.1714 8.87646 22.1635 8.98225C22.1555 9.08804 22.169 9.19435 22.203 9.29484C22.237 9.39532 22.2909 9.48793 22.3615 9.56714C22.4321 9.64635 22.5179 9.71053 22.6138 9.75586C22.7097 9.80119 22.8137 9.82674 22.9198 9.83099C23.0258 9.83524 23.1315 9.8181 23.2308 9.78059C23.33 9.74308 23.4207 9.68597 23.4974 9.61267C23.574 9.53936 23.6352 9.45137 23.6771 9.35393C23.8429 9.00339 23.9809 8.67743 24.0907 8.38076C24.4887 7.30433 23.668 6.09289 22.5106 6.09289H20.6784C19.882 6.09289 19.1395 6.48093 18.836 7.10206C17.4101 10.024 16.1391 11.0972 15.2437 11.8702V7.90549C15.2437 6.91638 14.423 6.10091 13.4373 6.09907L10.2287 6.09392C9.20698 6.09266 8.57342 7.35458 9.1856 8.17296L9.80386 9.00005C9.80454 9.00142 9.80523 9.00279 9.80592 9.00416C9.91206 9.14452 9.96846 9.31271 9.96846 9.4856C9.96845 9.48663 9.96845 9.48766 9.96846 9.48869L9.9808 12.7929C8.70466 11.447 7.31815 8.59605 6.89979 7.32427V7.32324C6.65546 6.58033 5.95254 6.07871 5.17669 6.07643H5.17566L3.36101 6.07129C3.36032 6.07129 3.35964 6.07129 3.35895 6.07129ZM21.4242 10.8425C21.296 10.8426 21.1696 10.8739 21.0562 10.9338C20.9427 10.9937 20.8456 11.0802 20.7731 11.1861C20.349 11.7868 19.8631 12.3969 19.3216 12.9802C18.799 13.5431 18.8203 14.4733 19.411 14.9964C20.3371 15.8155 22.3581 17.6948 23.1196 19.0568C23.1892 19.1814 23.1369 19.2678 22.992 19.2677H20.4243C20.336 19.2677 20.2633 19.2245 20.2248 19.1576C19.8826 18.5627 19.255 17.6066 18.4615 16.7504C17.668 15.8942 16.7234 15.052 15.4916 15.052C15.4567 15.052 15.4282 15.0525 15.4063 15.053C15.4052 15.053 15.4042 15.053 15.4032 15.053C14.4228 15.0806 13.6729 15.9126 13.6729 16.8636V18.9951C13.6729 19.1589 13.5466 19.2762 13.4013 19.2615C10.1966 18.9358 7.87977 17.1804 6.11694 14.6333C6.05875 14.546 5.98376 14.4711 5.89633 14.4131C5.8089 14.3551 5.7108 14.3151 5.60774 14.2954C5.50468 14.2757 5.39872 14.2767 5.29607 14.2984C5.19341 14.3201 5.0961 14.362 5.00982 14.4217C4.92354 14.4814 4.85001 14.5577 4.79353 14.6462C4.73705 14.7346 4.69875 14.8334 4.68087 14.9368C4.66298 15.0402 4.66586 15.1461 4.68935 15.2484C4.71284 15.3506 4.75646 15.4472 4.81767 15.5324C6.76283 18.3429 9.53411 20.4565 13.2418 20.8334C14.3217 20.9429 15.253 20.0627 15.253 18.9951V16.8636C15.253 16.7306 15.3438 16.636 15.4474 16.6331C15.4666 16.6327 15.4819 16.6321 15.4916 16.6321C15.8642 16.6321 16.6297 17.0988 17.3022 17.8244C17.9746 18.5499 18.5694 19.4481 18.8555 19.9456C18.8555 19.9459 18.8555 19.9463 18.8555 19.9466C19.1793 20.5086 19.7827 20.8478 20.4243 20.8478H22.991C24.2693 20.8487 25.1247 19.4047 24.4991 18.2863C23.518 16.5315 21.5627 14.7973 20.5817 13.9297C21.1306 13.3272 21.6329 12.7084 22.0641 12.0975C22.1499 11.9796 22.2014 11.8402 22.2129 11.6948C22.2244 11.5494 22.1954 11.4037 22.1291 11.2737C22.0629 11.1438 21.962 11.0347 21.8376 10.9586C21.7132 10.8825 21.5701 10.8423 21.4242 10.8425Z" fill="black" fill-opacity="0.6"/>
</svg>
